<svg width="71" height="71" fill="none" xmlns="http://www.w3.org/2000/svg"><g clip-path="url(#clip0_188_1858)" filter="url(#filter0_d_188_1858)" fill="#fff"><path d="M25.715 47.719c-.536 0-.805 0-1.34-.268-.805-.536-1.341-1.34-1.341-2.145V17.962c0-.805.536-1.609 1.34-2.145.805-.536 1.609-.536 2.413 0l25.468 13.672c.804.536 1.34 1.34 1.34 2.145 0 .804-.535 1.877-1.34 2.145L26.787 47.45c-.268 0-.536.268-1.072.268zm2.68-25.736v18.766l17.426-9.383-17.425-9.383z"/><path d="M40.728 62.464C19.28 65.949.783 47.719 4.268 26.004 6.681 13.136 17.136 2.681 30.272.536c21.447-3.485 39.945 14.745 36.46 36.46-2.413 12.868-12.868 23.323-26.004 25.468zm-.805-57.102c-17.961-2.95-33.51 12.6-30.561 30.561 1.876 10.992 10.723 19.839 21.715 21.715 17.961 2.95 33.51-12.6 30.561-30.561C59.762 16.084 50.915 7.238 39.923 5.361z"/></g><defs><clipPath id="clip0_188_1858"><path fill="#fff" transform="translate(4)" d="M0 0h63v63H0z"/></clipPath><filter id="filter0_d_188_1858" x="0" y="0" width="71" height="71" filterUnits="userSpaceOnUse" color-interpolation-filters="sRGB"><feFlood flood-opacity="0" result="BackgroundImageFix"/><feColorMatrix in="SourceAlpha" values="0 0 0 0 0 0 0 0 0 0 0 0 0 0 0 0 0 0 127 0" result="hardAlpha"/><feOffset dy="4"/><feGaussianBlur stdDeviation="2"/><feColorMatrix values="0 0 0 0 0 0 0 0 0 0 0 0 0 0 0 0 0 0 0.25 0"/><feBlend in2="BackgroundImageFix" result="effect1_dropShadow_188_1858"/><feBlend in="SourceGraphic" in2="effect1_dropShadow_188_1858" result="shape"/></filter></defs></svg>