<svg width="15" height="15" viewBox="0 0 15 15" fill="none" xmlns="http://www.w3.org/2000/svg">
<path fill-rule="evenodd" clip-rule="evenodd" d="M1.89194 4.92139C1.67751 4.92139 1.5 5.0989 1.5 5.31333V13.4077C1.5 13.6221 1.67751 13.7996 1.89194 13.7996H2.56089C2.77532 13.7996 2.95283 13.6221 2.95283 13.4077V5.31333C2.95283 5.0989 2.77532 4.92139 2.56089 4.92139H1.89194ZM0.5 5.31333C0.5 4.54662 1.12523 3.92139 1.89194 3.92139H2.56089C3.3276 3.92139 3.95283 4.54662 3.95283 5.31333V13.4077C3.95283 14.1744 3.3276 14.7996 2.56089 14.7996H1.89194C1.12523 14.7996 0.5 14.1744 0.5 13.4077V5.31333Z" fill="#FFD600"/>
<path fill-rule="evenodd" clip-rule="evenodd" d="M4.51375 6.38379C4.51375 6.10765 4.73761 5.88379 5.01375 5.88379H13.3311C13.9863 5.88379 14.5 6.39753 14.5 7.05274V13.5639C14.5 14.2191 13.9863 14.7329 13.3311 14.7329H5.59351C4.9383 14.7329 4.42456 14.2191 4.42456 13.5639V7.05274C4.42456 6.89887 4.49406 6.76124 4.60339 6.66952C4.54689 6.58853 4.51375 6.49003 4.51375 6.38379ZM5.39529 6.88379C5.41424 6.93656 5.42456 6.99345 5.42456 7.05274V13.5639C5.42456 13.6227 5.44564 13.6622 5.47044 13.687C5.49524 13.7118 5.53476 13.7328 5.59351 13.7328H13.3311C13.3898 13.7328 13.4294 13.7118 13.4542 13.687C13.479 13.6622 13.5 13.6227 13.5 13.5639V7.05274C13.5 6.99398 13.479 6.95447 13.4542 6.92967C13.4294 6.90487 13.3898 6.88379 13.3311 6.88379H5.39529Z" fill="#FFD600"/>
<path fill-rule="evenodd" clip-rule="evenodd" d="M11.5472 1.98145C11.8234 1.98145 12.0472 2.2053 12.0472 2.48145V6.20529C12.0472 6.48143 11.8234 6.70529 11.5472 6.70529C11.2711 6.70529 11.0472 6.48143 11.0472 6.20529V2.48145C11.0472 2.2053 11.2711 1.98145 11.5472 1.98145Z" fill="#FFD600"/>
<path fill-rule="evenodd" clip-rule="evenodd" d="M9.80786 0.242188C10.084 0.242188 10.3079 0.466045 10.3079 0.742188V1.81251C10.3079 1.87127 10.3289 1.91079 10.3537 1.93559C10.3785 1.96039 10.4181 1.98147 10.4768 1.98147H11.5471C11.8233 1.98147 12.0471 2.20533 12.0471 2.48147C12.0471 2.75761 11.8233 2.98147 11.5471 2.98147H10.4768C9.8216 2.98147 9.30786 2.46773 9.30786 1.81251V0.742188C9.30786 0.466045 9.53172 0.242188 9.80786 0.242188Z" fill="#FFD600"/>
<path fill-rule="evenodd" clip-rule="evenodd" d="M5.47044 1.28807C5.44564 1.31287 5.42456 1.35238 5.42456 1.41114V7.92229C5.42456 8.19844 5.2007 8.42229 4.92456 8.42229C4.64842 8.42229 4.42456 8.19844 4.42456 7.92229V1.41114C4.42456 0.755925 4.9383 0.242188 5.59351 0.242188H9.80793C10.0841 0.242188 10.3079 0.466045 10.3079 0.742188C10.3079 1.01833 10.0841 1.24219 9.80793 1.24219H5.59351C5.53476 1.24219 5.49524 1.26326 5.47044 1.28807Z" fill="#FFD600"/>
<path d="M7.91257 9.88446C8.40517 9.88446 8.80451 9.48513 8.80451 8.99252C8.80451 8.49992 8.40517 8.10059 7.91257 8.10059C7.41996 8.10059 7.02063 8.49992 7.02063 8.99252C7.02063 9.48513 7.41996 9.88446 7.91257 9.88446Z" fill="#FFD600"/>
<path d="M11.1457 9.88446C11.6383 9.88446 12.0377 9.48513 12.0377 8.99252C12.0377 8.49992 11.6383 8.10059 11.1457 8.10059C10.6531 8.10059 10.2538 8.49992 10.2538 8.99252C10.2538 9.48513 10.6531 9.88446 11.1457 9.88446Z" fill="#FFD600"/>
<path d="M7.91257 12.5602C8.40517 12.5602 8.80451 12.1609 8.80451 11.6683C8.80451 11.1757 8.40517 10.7764 7.91257 10.7764C7.41996 10.7764 7.02063 11.1757 7.02063 11.6683C7.02063 12.1609 7.41996 12.5602 7.91257 12.5602Z" fill="#FFD600"/>
<path d="M11.1457 12.5602C11.6383 12.5602 12.0377 12.1609 12.0377 11.6683C12.0377 11.1757 11.6383 10.7764 11.1457 10.7764C10.6531 10.7764 10.2538 11.1757 10.2538 11.6683C10.2538 12.1609 10.6531 12.5602 11.1457 12.5602Z" fill="#FFD600"/>
<path fill-rule="evenodd" clip-rule="evenodd" d="M9.45431 0.388634C9.64957 0.193372 9.96615 0.193372 10.1614 0.388634L11.9007 2.12791C12.096 2.32318 12.096 2.63976 11.9007 2.83502C11.7054 3.03028 11.3889 3.03028 11.1936 2.83502L9.45431 1.09574C9.25905 0.900479 9.25905 0.583896 9.45431 0.388634Z" fill="#FFD600"/>
</svg>
