<svg width="15" height="12" viewBox="0 0 15 12" fill="none" xmlns="http://www.w3.org/2000/svg">
<path fill-rule="evenodd" clip-rule="evenodd" d="M1.56834 1.54075C1.53609 1.57955 1.5 1.65543 1.5 1.76923V10.2308C1.5 10.3446 1.53609 10.4204 1.56834 10.4593C1.5979 10.4948 1.62179 10.5 1.63934 10.5H13.3607C13.3782 10.5 13.4021 10.4948 13.4317 10.4593C13.4639 10.4204 13.5 10.3446 13.5 10.2308V1.76923C13.5 1.65543 13.4639 1.57955 13.4317 1.54075C13.4021 1.50518 13.3782 1.5 13.3607 1.5H1.63934C1.62179 1.5 1.5979 1.50518 1.56834 1.54075ZM0.5 1.76923C0.5 1.14774 0.918319 0.5 1.63934 0.5H13.3607C14.0817 0.5 14.5 1.14774 14.5 1.76923V10.2308C14.5 10.8523 14.0817 11.5 13.3607 11.5H1.63934C0.918319 11.5 0.5 10.8523 0.5 10.2308V1.76923Z" fill="#FFD600"/>
<path fill-rule="evenodd" clip-rule="evenodd" d="M7.48902 6.11127C7.50761 6.12743 7.52162 6.13456 7.52937 6.13764C7.53695 6.14065 7.54107 6.14083 7.54271 6.14083C7.54435 6.14083 7.54847 6.14065 7.55605 6.13764C7.56381 6.13456 7.57782 6.12742 7.59643 6.11125C8.27995 5.50732 9.77174 4.19965 11.092 3.04352C11.7527 2.46493 12.3708 1.92402 12.8237 1.52775L13.5643 0.879883L14.2226 1.63264L13.4822 2.28035C13.0294 2.67655 12.4114 3.21737 11.7508 3.79584C10.4292 4.95314 8.93833 6.26001 8.25738 6.86168L8.25558 6.86327C8.05733 7.03674 7.80982 7.14083 7.54271 7.14083C7.2756 7.14083 7.02809 7.03674 6.82985 6.86327L6.82804 6.86168C6.14709 6.26001 4.65623 4.95314 3.33462 3.79584C2.67404 3.21737 2.05606 2.67655 1.60322 2.28035L0.862793 1.63264L1.52109 0.879883L2.2617 1.52775C2.71461 1.92402 3.3327 2.46493 3.99342 3.04352C5.3137 4.19966 6.80551 5.50736 7.48902 6.11127Z" fill="#FFD600"/>
</svg>
