<svg width="406" height="48" viewBox="0 0 406 48" fill="none" xmlns="http://www.w3.org/2000/svg">
<g clip-path="url(#clip0_188_2323)">
<path d="M159.071 45.2554C159.071 46.6582 157.913 47.817 156.51 47.817H85.1752C83.7729 47.817 82.6145 46.6582 82.6145 45.2554V2.56163C82.6145 1.15883 83.7729 0 85.1752 0H156.571C157.974 0 159.132 1.15883 159.132 2.56163V45.2554H159.071Z" fill="#F9F9F9"/>
<path d="M117.794 31.1058H114.075L116.392 16.7119H120.172L117.794 31.1058Z" fill="#0066B2"/>
<path d="M110.905 16.7119L107.368 26.5925L106.942 24.4578L105.661 17.9927C105.661 17.9927 105.539 16.7119 103.893 16.7119H97.9789L97.918 16.9559C97.918 16.9559 99.7471 17.3218 101.82 18.6026L105.051 31.0448H108.954L114.868 16.7119H110.905Z" fill="#0066B2"/>
<path d="M140.292 31.1059H143.707L140.719 16.7729H137.732C136.329 16.7729 136.024 17.8708 136.024 17.8708L130.476 31.1059H134.378L135.171 28.9712H139.926L140.292 31.1059ZM136.207 25.9826L138.158 20.6154L139.256 25.9826H136.207Z" fill="#0066B2"/>
<path d="M130.72 20.1882L131.269 17.0777C131.269 17.0777 129.622 16.4678 127.915 16.4678C126.086 16.4678 121.635 17.2607 121.635 21.2251C121.635 24.9455 126.818 25.0065 126.818 26.8973C126.818 28.849 122.184 28.483 120.66 27.2632L120.111 30.4957C120.111 30.4957 121.757 31.2886 124.318 31.2886C126.879 31.2886 130.72 29.9468 130.72 26.3483C130.72 22.6279 125.476 22.2619 125.476 20.6762C125.537 19.0904 129.135 19.3344 130.72 20.1882Z" fill="#0066B2"/>
<path d="M106.942 24.4578L105.661 17.9927C105.661 17.9927 105.539 16.7119 103.893 16.7119H97.9789L97.918 16.9559C97.918 16.9559 100.723 17.5658 103.466 19.7615C106.088 21.8352 106.942 24.4578 106.942 24.4578Z" fill="#F9A533"/>
<path d="M406 45.2554C406 46.6582 404.841 47.817 403.439 47.817H332.043C330.641 47.817 329.482 46.6582 329.482 45.2554V2.56163C329.482 1.15883 330.641 0 332.043 0H403.439C404.841 0 406 1.15883 406 2.56163V45.2554Z" fill="#F9F9F9"/>
<path d="M390.879 19.7613C390.209 19.3953 389.111 19.1514 387.587 19.1514C386.855 19.1514 386.124 19.2124 385.331 19.3343C384.782 19.3953 384.721 19.4563 384.417 19.5173C383.746 19.7003 383.624 20.3712 383.624 20.3712L383.38 21.2861C383.258 21.896 383.563 21.835 383.746 21.835C384.051 21.713 384.234 21.652 384.843 21.53C385.453 21.408 386.063 21.2861 386.551 21.2861C387.282 21.2861 387.831 21.347 388.197 21.53C388.563 21.713 388.745 21.957 388.745 22.3839C388.745 22.5059 388.745 22.5669 388.745 22.6279C388.684 22.6889 388.685 22.7498 388.502 22.8108C387.465 22.8718 386.672 22.9938 385.758 23.1158C384.843 23.2378 384.051 23.4817 383.441 23.7867C382.77 24.0916 382.222 24.5186 381.856 25.0675C381.49 25.6164 381.307 26.2263 381.307 27.0192C381.307 27.7511 381.551 28.3 382.039 28.788C382.527 29.2149 383.197 29.4589 383.99 29.4589C384.478 29.4589 384.843 29.3979 385.148 29.3369C385.392 29.2759 385.697 29.1539 386.063 29.0319C386.307 28.9099 386.551 28.788 386.794 28.605C387.038 28.422 387.221 28.3 387.465 28.1171L387.404 28.422C387.343 28.788 387.526 29.0929 387.892 29.0929C388.136 29.0929 388.928 29.0929 389.294 29.0929H389.538C389.904 29.0319 390.27 28.727 390.331 28.422L391.672 22.6279C391.672 22.5059 391.733 22.3229 391.733 22.1399C391.733 21.957 391.794 21.835 391.794 21.713C391.916 20.7371 391.611 20.1272 390.879 19.7613ZM387.648 26.6533C387.404 26.7753 387.16 26.8972 386.916 27.0192C386.551 27.1412 386.246 27.2022 385.941 27.2022C385.453 27.2022 385.148 27.1412 384.904 27.0192C384.66 26.8972 384.539 26.6533 384.539 26.3483C384.539 25.9824 384.599 25.6774 384.782 25.4335C384.965 25.1895 385.209 25.0065 385.575 24.8845C385.88 24.7625 386.307 24.7016 386.794 24.6406C387.221 24.5796 388.075 24.5186 388.136 24.5186C388.258 24.5186 388.319 24.4576 388.258 24.7625C388.258 24.8845 388.014 25.8604 387.892 26.2873C387.892 26.4093 387.709 26.5923 387.648 26.6533Z" fill="#336699"/>
<path d="M367.772 19.2729C367.406 19.2729 366.857 19.5779 366.613 20.0048C366.613 20.0048 363.992 24.5182 363.687 25.0061C363.565 25.2501 363.382 25.0671 363.382 25.0061C363.382 24.8841 362.589 20.0658 362.589 20.0658C362.528 19.6999 362.101 19.3339 361.553 19.3339H359.907C359.48 19.3339 359.236 19.6389 359.358 20.0658C359.358 20.0658 360.638 27.2018 360.882 28.8486C361.004 29.7634 360.882 29.9464 360.882 29.9464L359.236 32.813C358.992 33.1789 359.114 33.4839 359.541 33.4839H361.431C361.797 33.4839 362.345 33.1789 362.589 32.813L369.906 20.3708C369.906 20.3708 370.637 19.3339 369.967 19.3339C369.54 19.2729 367.772 19.2729 367.772 19.2729Z" fill="#003366"/>
<path d="M344.603 21.8348C344.054 22.2618 343.262 22.4447 342.286 22.4447H341.859C341.432 22.4447 341.189 22.1398 341.311 21.7128L341.859 19.3342C341.92 18.9682 342.347 18.6023 342.713 18.6633H343.323C344.054 18.6633 344.542 18.7853 344.908 19.0292C345.274 19.2732 345.456 19.6391 345.456 20.1271C345.456 20.798 345.152 21.4079 344.603 21.8348ZM348.566 18.1144C348.322 17.6874 348.017 17.3215 347.529 17.0165C347.103 16.7116 346.554 16.5286 345.944 16.4066C345.335 16.2846 344.603 16.2236 343.749 16.2236H339.908C339.481 16.2236 339.116 16.5286 339.055 16.8945L336.433 28.1779C336.372 28.5438 336.616 28.9098 336.982 28.9098H338.811C339.238 28.9098 339.603 28.6048 339.664 28.1779L340.274 25.4333C340.335 25.0673 340.762 24.7624 341.128 24.7624H341.676C343.932 24.7624 345.7 24.2745 346.92 23.3596C348.2 22.4447 348.81 21.2249 348.81 19.7001C348.932 19.1512 348.81 18.6023 348.566 18.1144Z" fill="#003366"/>
<path d="M378.014 21.8349C377.466 22.2618 376.673 22.4448 375.698 22.4448H375.21C374.783 22.4448 374.539 22.1398 374.661 21.7739L375.21 19.3952C375.271 19.0293 375.698 18.7243 376.063 18.7243H376.673C377.405 18.7243 377.893 18.8463 378.258 19.0903C378.624 19.3342 378.807 19.7002 378.807 20.1881C378.868 20.859 378.563 21.4689 378.014 21.8349ZM381.978 18.1754C381.734 17.7485 381.429 17.3825 380.941 17.0776C380.514 16.7726 379.966 16.5896 379.356 16.4676C378.746 16.3457 378.014 16.2847 377.161 16.2847H373.32C372.893 16.2847 372.527 16.5896 372.466 17.0166L369.905 28.2999C369.784 28.6659 370.088 29.0318 370.454 28.9708H372.283C372.649 28.9708 373.076 28.6659 373.198 28.2999L373.808 25.5553C373.869 25.1894 374.295 24.8234 374.722 24.8844H375.271C377.527 24.8844 379.295 24.3965 380.514 23.4816C381.734 22.5668 382.404 21.3469 382.404 19.8222C382.343 19.1512 382.221 18.6023 381.978 18.1754Z" fill="#336699"/>
<path d="M357.468 19.7613C356.797 19.3953 355.699 19.1514 354.175 19.1514C353.444 19.1514 352.712 19.2124 351.919 19.3343C351.371 19.3953 351.31 19.4563 351.005 19.5173C350.334 19.7003 350.212 20.3712 350.212 20.3712L349.968 21.2861C349.846 21.896 350.151 21.835 350.334 21.835C350.639 21.713 350.822 21.652 351.432 21.53C352.041 21.408 352.651 21.2861 353.139 21.2861C353.87 21.2861 354.419 21.347 354.785 21.53C355.151 21.713 355.334 21.957 355.334 22.3839C355.334 22.5059 355.334 22.5669 355.334 22.6279C355.273 22.6889 355.273 22.7498 355.09 22.8108C354.053 22.8718 353.261 22.9938 352.346 23.1158C351.432 23.2378 350.639 23.4817 350.029 23.7867C349.359 24.0916 348.81 24.5186 348.444 25.0675C348.078 25.6164 347.895 26.2263 347.895 27.0192C347.895 27.7511 348.139 28.3 348.627 28.788C349.115 29.2149 349.785 29.4589 350.578 29.4589C351.066 29.4589 351.432 29.3979 351.736 29.3369C351.98 29.2759 352.285 29.1539 352.651 29.0319C352.895 28.9099 353.139 28.788 353.383 28.605C353.626 28.422 353.809 28.3 354.053 28.1171L353.992 28.422C353.931 28.788 354.114 29.0929 354.48 29.0929H354.541C354.785 29.0929 355.577 29.0929 355.943 29.0929H356.187C356.553 29.0319 356.919 28.727 356.98 28.422L358.321 22.6279C358.321 22.5059 358.382 22.3229 358.382 22.1399C358.382 21.957 358.443 21.835 358.443 21.713C358.504 20.7371 358.138 20.1272 357.468 19.7613ZM354.175 26.6533C353.931 26.7753 353.687 26.8972 353.444 27.0192C353.078 27.1412 352.773 27.2022 352.468 27.2022C352.041 27.2022 351.675 27.1412 351.432 27.0192C351.188 26.8972 351.066 26.6533 351.066 26.3483C351.066 25.9824 351.127 25.6774 351.31 25.4335C351.493 25.1895 351.736 25.0065 352.102 24.8845C352.407 24.7625 352.834 24.7016 353.322 24.6406C353.748 24.5796 354.602 24.5186 354.663 24.5186C354.785 24.5186 354.846 24.4576 354.785 24.7625C354.785 24.8845 354.541 25.8604 354.419 26.3483C354.419 26.4093 354.236 26.5923 354.175 26.6533Z" fill="#003366"/>
<path d="M397.22 16.4067H395.574C395.208 16.4067 394.842 16.7117 394.72 17.0166V17.0776C394.72 17.0776 394.659 17.2606 394.598 17.5046L392.342 27.8121C392.282 28.056 392.282 28.239 392.221 28.239C392.16 28.605 392.342 28.9099 392.708 28.9099H394.415C394.781 28.9099 395.147 28.605 395.269 28.239V28.178L397.769 17.0166C397.891 16.7117 397.647 16.4067 397.22 16.4067Z" fill="#336699"/>
<path d="M399.72 18.6634C399.659 18.6634 399.598 18.6634 399.537 18.7244C399.476 18.7244 399.415 18.7244 399.354 18.7244C399.171 18.7244 399.049 18.6634 398.927 18.6024C398.805 18.4804 398.805 18.3585 398.805 18.1145V17.1386H398.623V16.8947H398.805V16.4067H399.11V16.8947H399.72V17.1386H399.11V17.9315C399.11 18.0535 399.11 18.1145 399.11 18.1755C399.11 18.2365 399.11 18.2975 399.171 18.2975C399.171 18.3585 399.232 18.3585 399.293 18.4194C399.354 18.4194 399.415 18.4194 399.476 18.4194C399.537 18.4194 399.598 18.4194 399.659 18.4194C399.72 18.4194 399.781 18.4194 399.781 18.3585V18.6634H399.72Z" fill="#336699"/>
<path d="M402.707 18.7242H402.403V17.6874C402.403 17.6264 402.403 17.5654 402.403 17.4434C402.403 17.3824 402.403 17.3214 402.342 17.2604C402.342 17.1994 402.281 17.1994 402.22 17.1385C402.159 17.1385 402.098 17.0775 402.037 17.0775C401.976 17.0775 401.854 17.0775 401.793 17.1385C401.732 17.1994 401.61 17.2604 401.549 17.3214V17.3824C401.549 17.4434 401.549 17.4434 401.549 17.5044V18.6632H401.244V17.6874C401.244 17.6264 401.244 17.5044 401.244 17.4434C401.244 17.3824 401.244 17.3214 401.183 17.2604C401.183 17.1994 401.122 17.1994 401.061 17.1385C401 17.1385 400.939 17.0775 400.878 17.0775C400.817 17.0775 400.695 17.0775 400.634 17.1385C400.573 17.1994 400.452 17.1994 400.391 17.3214V18.6632H400.086V16.8945H400.391V17.0775C400.512 17.0165 400.573 16.9555 400.695 16.8945C400.817 16.8335 400.878 16.8335 401 16.8335C401.122 16.8335 401.244 16.8335 401.305 16.8945C401.366 16.9555 401.427 17.0165 401.488 17.1385C401.61 17.0165 401.732 16.9555 401.793 16.8945C401.915 16.8335 401.976 16.8335 402.098 16.8335C402.281 16.8335 402.464 16.8945 402.524 17.0165C402.646 17.1385 402.646 17.3214 402.646 17.5044V18.7242H402.707Z" fill="#336699"/>
<path d="M76.4565 45.2554C76.4565 46.6582 75.2981 47.817 73.8958 47.817H2.56074C1.15843 47.817 0 46.6582 0 45.2554V2.56163C0 1.15883 1.15843 0 2.56074 0H73.9567C75.3591 0 76.5175 1.15883 76.5175 2.56163V45.2554H76.4565Z" fill="#F9F9F9"/>
<path d="M241.198 45.4385C241.198 46.8413 240.039 48.0001 238.637 48.0001H167.241C165.839 48.0001 164.68 46.8413 164.68 45.4385V2.74473C164.68 1.34194 165.839 0.183105 167.241 0.183105H238.637C240.039 0.183105 241.198 1.34194 241.198 2.74473V45.4385Z" fill="#F9F9F9"/>
<path fill-rule="evenodd" clip-rule="evenodd" d="M212.115 37.8147H212.847L213.517 37.7537L214.188 37.6927L214.859 37.5707L215.529 37.3877L216.2 37.2047L216.81 37.0218L217.48 36.7168L218.09 36.4728L218.639 36.1679L219.249 35.8629L219.797 35.497L220.346 35.0701L220.834 34.7041L221.382 34.2772L221.809 33.7892L222.297 33.3013L222.724 32.8134L223.151 32.3255L223.516 31.7765L223.882 31.2276L224.187 30.6177L224.492 30.0078L224.797 29.3979L225.041 28.788L225.224 28.1781L225.406 27.5072L225.589 26.8363L225.711 26.1653L225.772 25.4944L225.833 24.7626V24.0917V23.3598L225.772 22.6889L225.711 22.018L225.589 21.3471L225.406 20.6762L225.224 20.0052L225.041 19.3953L224.797 18.7244L224.492 18.1145L224.187 17.5656L223.882 16.9557L223.516 16.4068L223.151 15.8579L222.724 15.3699L222.297 14.882L221.809 14.3941L221.382 13.9671L220.834 13.5402L220.346 13.1133L219.797 12.7473L219.249 12.3814L218.639 12.0154L218.09 11.7105L217.48 11.4665L216.81 11.2225L216.2 10.9786L215.529 10.7956L214.859 10.6736L214.188 10.5516L213.517 10.4296L212.847 10.3687H212.115H211.383L210.713 10.4296L210.042 10.5516L209.371 10.6736L208.701 10.7956L208.03 10.9786L207.42 11.2225L206.75 11.4665L206.14 11.7105L205.591 12.0154L204.982 12.3814L204.433 12.7473L203.945 13.1133L203.396 13.5402L202.909 13.9671L202.421 14.3941L201.994 14.882L201.567 15.3699L201.14 15.8579L200.775 16.4068L200.409 16.9557L200.043 17.5656L199.738 18.1145L199.494 18.7244L199.25 19.3953L199.006 20.0052L198.824 20.6762L198.702 21.3471L198.58 22.018L198.458 22.6889V23.3598L198.397 24.0917L198.458 24.7626V25.4944L198.58 26.1653L198.702 26.8363L198.824 27.5072L199.006 28.1781L199.25 28.788L199.494 29.3979L199.738 30.0078L200.043 30.6177L200.409 31.2276L200.775 31.7765L201.14 32.3255L201.567 32.8134L201.994 33.3013L202.421 33.7892L202.909 34.2772L203.396 34.7041L203.945 35.0701L204.433 35.497L204.982 35.8629L205.591 36.1679L206.14 36.4728L206.75 36.7168L207.42 37.0218L208.03 37.2047L208.701 37.3877L209.371 37.5707L210.042 37.6927L210.713 37.7537L211.383 37.8147H212.115Z" fill="#FBB231"/>
<path fill-rule="evenodd" clip-rule="evenodd" d="M193.763 37.8147H194.434L195.165 37.7537L195.836 37.6927L196.507 37.5707L197.177 37.3877L197.848 37.2047L198.458 37.0218L199.067 36.7168L199.677 36.4728L200.287 36.1679L200.835 35.8629L201.445 35.497L201.933 35.0701L202.482 34.7041L202.969 34.2772L203.457 33.7892L203.884 33.3013L204.311 32.8134L204.737 32.3255L205.103 31.7765L205.469 31.2276L205.774 30.6177L206.079 30.0078L206.384 29.3979L206.628 28.788L206.81 28.1781L206.993 27.5072L207.176 26.8363L207.298 26.1653L207.359 25.4944L207.42 24.7626V24.0917V23.3598L207.359 22.6889L207.298 22.018L207.176 21.3471L206.993 20.6762L206.81 20.0052L206.628 19.3953L206.384 18.7244L206.079 18.1145L205.774 17.5656L205.469 16.9557L205.103 16.4068L204.737 15.8579L204.311 15.3699L203.884 14.882L203.457 14.3941L202.969 13.9671L202.482 13.5402L201.933 13.1133L201.445 12.7473L200.835 12.3814L200.287 12.0154L199.677 11.7105L199.067 11.4665L198.458 11.2225L197.848 10.9786L197.177 10.7956L196.507 10.6736L195.836 10.5516L195.165 10.4296L194.434 10.3687H193.763H193.031L192.361 10.4296L191.69 10.5516L190.958 10.6736L190.349 10.7956L189.678 10.9786L189.007 11.2225L188.398 11.4665L187.788 11.7105L187.178 12.0154L186.629 12.3814L186.081 12.7473L185.532 13.1133L184.983 13.5402L184.495 13.9671L184.008 14.3941L183.581 14.882L183.154 15.3699L182.727 15.8579L182.361 16.4068L181.996 16.9557L181.691 17.5656L181.386 18.1145L181.081 18.7244L180.837 19.3953L180.654 20.0052L180.471 20.6762L180.288 21.3471L180.167 22.018L180.106 22.6889L180.045 23.3598L179.984 24.0917L180.045 24.7626L180.106 25.4944L180.167 26.1653L180.288 26.8363L180.471 27.5072L180.654 28.1781L180.837 28.788L181.081 29.3979L181.386 30.0078L181.691 30.6177L181.996 31.2276L182.361 31.7765L182.727 32.3255L183.154 32.8134L183.581 33.3013L184.008 33.7892L184.495 34.2772L184.983 34.7041L185.532 35.0701L186.081 35.497L186.629 35.8629L187.178 36.1679L187.788 36.4728L188.398 36.7168L189.007 37.0218L189.678 37.2047L190.349 37.3877L190.958 37.5707L191.69 37.6927L192.361 37.7537L193.031 37.8147H193.763Z" fill="#EC1C2E"/>
<path fill-rule="evenodd" clip-rule="evenodd" d="M201.323 15.6137H208.64V14.8818H201.933L201.323 15.6137Z" fill="#FBB231"/>
<path fill-rule="evenodd" clip-rule="evenodd" d="M200.226 17.3217H208.64V16.5288H200.653L200.226 17.3217Z" fill="#FBB231"/>
<path fill-rule="evenodd" clip-rule="evenodd" d="M199.433 18.9687H208.64V18.1758H199.738L199.433 18.9687Z" fill="#FBB231"/>
<path fill-rule="evenodd" clip-rule="evenodd" d="M198.884 20.6152H208.64V19.8833H199.067L198.884 20.6152Z" fill="#FBB231"/>
<path fill-rule="evenodd" clip-rule="evenodd" d="M199.189 28.6049H208.64V27.873H198.945L199.189 28.6049Z" fill="#FBB231"/>
<path fill-rule="evenodd" clip-rule="evenodd" d="M199.86 30.2519H208.639V29.52H199.555L199.86 30.2519Z" fill="#FBB231"/>
<path fill-rule="evenodd" clip-rule="evenodd" d="M200.835 31.8984H208.64V31.1665H200.409L200.835 31.8984Z" fill="#FBB231"/>
<path fill-rule="evenodd" clip-rule="evenodd" d="M202.238 33.6064H208.64V32.8135H201.567L202.238 33.6064Z" fill="#FBB231"/>
<path fill-rule="evenodd" clip-rule="evenodd" d="M198.519 22.2622H208.64V21.5303H198.701L198.519 22.2622Z" fill="#FBB231"/>
<path fill-rule="evenodd" clip-rule="evenodd" d="M204.677 26.9585H208.518V26.2266H204.798L204.677 26.9585Z" fill="#FBB231"/>
<path fill-rule="evenodd" clip-rule="evenodd" d="M204.981 25.3115H208.518V24.5796H205.103L204.981 25.3115Z" fill="#FBB231"/>
<path fill-rule="evenodd" clip-rule="evenodd" d="M198.275 24.5796H199.25V25.3115H198.336L198.275 24.5796Z" fill="#FBB231"/>
<path fill-rule="evenodd" clip-rule="evenodd" d="M196.385 23.6647H196.324H196.263H196.202L196.141 23.6037H196.08H196.019H195.958H195.897H195.836H195.775L195.714 23.5427H195.592H195.531H195.409L195.287 23.6037H195.165H195.043H194.982L194.921 23.6647H194.799L194.738 23.7257H194.677V23.7867L194.616 23.8477L194.555 23.9087V23.9696V24.0306V24.0916V24.1526L194.616 24.2136L194.677 24.2746L194.738 24.3966L194.86 24.4576L194.982 24.5186L195.165 24.5796H195.287L195.47 24.6405L195.592 24.7015L195.714 24.7625L195.897 24.8235L196.019 24.9455L196.141 25.0675L196.202 25.1895L196.324 25.3724V25.5554L196.385 25.8604L196.324 26.1043V26.3483L196.263 26.5313L196.202 26.7142L196.08 26.8362L195.958 27.0192L195.836 27.1412L195.714 27.2022L195.592 27.3242L195.47 27.3851L195.287 27.4461L195.104 27.5071H194.982L194.799 27.5681H194.677H194.495H194.373H194.19H194.007H193.824H193.641H193.519H193.397L193.275 27.5071H193.153H193.092H192.97H192.909L192.848 27.4461H192.726L192.665 27.3851H192.604H192.543L192.726 26.3483H192.787H192.848H192.909L192.97 26.4093H193.031H193.153L193.275 26.4703H193.336H193.458L193.58 26.5313H193.702H193.824H194.007H194.129H194.251H194.373H194.495L194.616 26.4703L194.738 26.4093L194.799 26.3483V26.2873L194.86 26.2263V26.1653L194.921 26.1043V25.9214L194.86 25.7994L194.799 25.7384L194.677 25.6774L194.555 25.6164L194.373 25.4944L194.19 25.4334L194.007 25.3724L193.824 25.3114L193.641 25.1895L193.458 25.0675L193.336 24.9455L193.214 24.7625L193.153 24.5796L193.092 24.2746V24.0306L193.153 23.8477V23.6647L193.214 23.4817L193.275 23.3597L193.336 23.2378L193.397 23.1158L193.519 22.9938L193.641 22.8718L193.763 22.8108L193.885 22.6888L194.068 22.6278L194.251 22.5668H194.495L194.677 22.5059H194.921H195.226H195.409H195.531H195.714H195.836H195.958H196.019H196.141L196.202 22.5668H196.324H196.385H196.446H196.507L196.567 22.6278H196.628L196.385 23.6647Z" fill="white"/>
<path d="M196.385 23.6647H196.324H196.263H196.202L196.141 23.6037H196.08H196.019H195.958H195.897H195.836H195.775L195.714 23.5427H195.592H195.531H195.409L195.287 23.6037H195.165H195.043H194.982L194.921 23.6647H194.799L194.738 23.7257H194.677V23.7867L194.616 23.8477L194.555 23.9087V23.9696V24.0306V24.0916V24.1526L194.616 24.2136L194.677 24.2746L194.738 24.3966L194.86 24.4576L194.982 24.5186L195.165 24.5796H195.287L195.47 24.6405L195.592 24.7015L195.714 24.7625L195.897 24.8235L196.019 24.9455L196.141 25.0675L196.202 25.1895L196.324 25.3724V25.5554L196.385 25.8604L196.324 26.1043V26.3483L196.263 26.5313L196.202 26.7142L196.08 26.8362L195.958 27.0192L195.836 27.1412L195.714 27.2022L195.592 27.3242L195.47 27.3851L195.287 27.4461L195.104 27.5071H194.982L194.799 27.5681H194.677H194.495H194.373H194.19H194.007H193.824H193.641H193.519H193.397L193.275 27.5071H193.153H193.092H192.97H192.909L192.848 27.4461H192.726L192.665 27.3851H192.604H192.543L192.726 26.3483H192.787H192.848H192.909L192.97 26.4093H193.031H193.153L193.275 26.4703H193.336H193.458L193.58 26.5313H193.702H193.824H194.007H194.129H194.251H194.373H194.495L194.616 26.4703L194.738 26.4093L194.799 26.3483V26.2873L194.86 26.2263V26.1653L194.921 26.1043V25.9214L194.86 25.7994L194.799 25.7384L194.677 25.6774L194.555 25.6164L194.373 25.4944L194.19 25.4334L194.007 25.3724L193.824 25.3114L193.641 25.1895L193.458 25.0675L193.336 24.9455L193.214 24.7625L193.153 24.5796L193.092 24.2746V24.0306L193.153 23.8477V23.6647L193.214 23.4817L193.275 23.3597L193.336 23.2378L193.397 23.1158L193.519 22.9938L193.641 22.8718L193.763 22.8108L193.885 22.6888L194.068 22.6278L194.251 22.5668H194.495L194.677 22.5059H194.921H195.226H195.409H195.531H195.714H195.836H195.958H196.019H196.141L196.202 22.5668H196.324H196.385H196.446H196.507L196.567 22.6278H196.628L196.385 23.6647Z" stroke="white" stroke-width="0.216" stroke-miterlimit="2.6131"/>
<path fill-rule="evenodd" clip-rule="evenodd" d="M197.482 21.4688H198.763L198.58 22.5666H199.372L199.189 23.6644L198.397 23.6034L197.97 26.1651V26.287V26.348L198.031 26.409L198.092 26.47L198.153 26.531H198.275H198.336L198.458 26.592L198.58 26.531H198.641H198.763H198.824L198.885 26.47H198.945L198.763 27.3239V27.3849H198.702H198.641V27.4459H198.58H198.519L198.458 27.5069H198.397H198.336H198.275H198.153H198.092L198.031 27.5679H197.665L197.482 27.5069H197.299H197.177L197.055 27.4459L196.933 27.3849H196.872L196.751 27.3239L196.69 27.2629V27.2019L196.629 27.0799V27.0189V26.958L196.568 26.836V26.714L196.629 26.653V26.531L197.482 21.4688Z" fill="white"/>
<path d="M197.482 21.4688H198.763L198.58 22.5666H199.372L199.189 23.6644L198.397 23.6034L197.97 26.1651V26.287V26.348L198.031 26.409L198.092 26.47L198.153 26.531H198.275H198.336L198.458 26.592L198.58 26.531H198.641H198.763H198.824L198.885 26.47H198.945L198.763 27.3239V27.3849H198.702H198.641V27.4459H198.58H198.519L198.458 27.5069H198.397H198.336H198.275H198.153H198.092L198.031 27.5679H197.665L197.482 27.5069H197.299H197.177L197.055 27.4459L196.933 27.3849H196.872L196.751 27.3239L196.69 27.2629V27.2019L196.629 27.0799V27.0189V26.958L196.568 26.836V26.714L196.629 26.653V26.531L197.482 21.4688Z" stroke="white" stroke-width="0.216" stroke-miterlimit="2.6131"/>
<path d="M200.409 25.3724V25.4334V25.5554V25.6164V25.7384V25.7994L200.47 25.8604L200.531 25.9824L200.592 26.0433L200.653 26.1653L200.714 26.2263L200.775 26.2873L200.896 26.3483L200.957 26.4093H201.079L201.14 26.4703H201.262H201.384L201.445 26.5313H201.567H201.689H201.811H201.933H202.055H202.177L202.299 26.4703H202.482H202.604L202.726 26.4093L202.848 26.3483L202.969 26.2873L203.091 26.2263L203.213 26.1653L203.03 27.2632L202.969 27.3242L202.908 27.3851H202.848L202.787 27.4461H202.665H202.604L202.543 27.5071H202.482H202.36H202.299H202.177H202.055L201.933 27.5681H201.811H201.689H201.567H201.323L201.079 27.5071H200.836L200.592 27.4461L200.409 27.3851L200.165 27.2632L199.982 27.1412L199.799 27.0192L199.616 26.8362L199.433 26.6533L199.311 26.4703L199.189 26.2263L199.128 25.9214L199.067 25.6164V25.3114V24.8845V24.7625L199.128 24.5796V24.3966L199.189 24.2136L199.25 24.0306L199.372 23.8477L199.433 23.6037L199.616 23.4207L199.738 23.2378L199.921 23.0548L200.104 22.9328L200.348 22.7498L200.653 22.6278L200.896 22.5668L201.262 22.5059H201.628H201.811H201.994L202.177 22.5668H202.36L202.543 22.6888L202.726 22.7498L202.908 22.8718L203.091 22.9938L203.213 23.1158L203.335 23.3597L203.396 23.5427L203.457 23.7867L203.518 24.0916V24.3966V24.7015L203.396 25.1285V25.4334H200.043L200.226 24.5186H202.238L202.299 24.3966L202.238 24.2746V24.1526V24.0916L202.177 23.9696V23.9087L202.116 23.8477L202.055 23.7867V23.7257L201.994 23.6647L201.872 23.6037H201.811L201.75 23.5427H201.689H201.628H201.506H201.445H201.323H201.262L201.201 23.6037H201.079L201.018 23.6647L200.957 23.7257L200.896 23.7867L200.836 23.8477L200.775 23.9087V23.9696L200.714 24.0306L200.653 24.1526V24.2136L200.592 24.3356V24.3966L200.409 25.3724Z" stroke="white" stroke-width="0.216" stroke-miterlimit="2.6131"/>
<path fill-rule="evenodd" clip-rule="evenodd" d="M211.444 22.8719L211.383 22.8109H211.322L211.261 22.7499H211.2L211.139 22.6889H211.017L210.956 22.6279H210.895H210.773L210.713 22.5669H210.591H210.53H210.408H210.286H210.164H210.042H209.92H209.798H209.676H209.554L209.432 22.6279L209.31 22.6889L209.188 22.7499L209.066 22.8109L208.944 22.9329L208.822 23.0549L208.7 23.1769L208.579 23.3598L208.457 23.5428L208.396 23.7868L208.274 24.0307L208.213 24.3357V24.5187L208.152 24.7016V24.8236V25.0066V25.1286L208.213 25.3115L208.274 25.4335L208.335 25.5555L208.396 25.7385L208.457 25.7995L208.579 25.9215L208.64 26.0434L208.822 26.1044L208.944 26.1654L209.066 26.2264L209.249 26.2874H209.31H209.371L209.493 26.3484H209.554H209.676H209.798H209.92H210.042H210.164L210.225 26.2874H210.347L210.469 26.2264L210.591 26.1654L210.713 26.1044L210.834 26.0434L210.895 25.9824L210.713 27.2023H210.652V27.2633H210.591L210.53 27.3243L210.469 27.3852H210.347L210.286 27.4462H210.164L210.042 27.5072H209.92H209.737H209.554L209.371 27.5682L209.127 27.5072H208.883H208.64L208.457 27.4462L208.213 27.3852L208.03 27.2633L207.786 27.2023L207.603 27.0193L207.42 26.8973L207.237 26.7143L207.115 26.4704L206.993 26.2264L206.871 25.9824L206.81 25.7385L206.749 25.4335L206.688 25.0676L206.749 24.7016V24.3357L206.81 24.1527L206.871 23.9697V23.7868L206.932 23.6038L206.993 23.4208L207.054 23.2988L207.115 23.1159L207.176 22.9939L207.237 22.8109L207.298 22.6889L207.42 22.5669L207.481 22.445L207.542 22.323L207.664 22.201L207.725 22.14L207.847 22.018L207.969 21.957L208.091 21.8351L208.152 21.7741L208.274 21.7131L208.396 21.6521L208.518 21.5911L208.64 21.5301L208.822 21.4691L208.944 21.4081L209.066 21.3471H209.249L209.371 21.2861H209.554H209.737H209.859H210.042H210.225H210.347H210.469H210.652L210.773 21.3471H210.895H211.017L211.139 21.4081H211.2L211.322 21.4691H211.383L211.505 21.5301H211.566H211.627V21.5911H211.688L211.444 22.8719Z" fill="white"/>
<path d="M211.444 22.8719L211.383 22.8109H211.322L211.261 22.7499H211.2L211.139 22.6889H211.017L210.956 22.6279H210.895H210.773L210.713 22.5669H210.591H210.53H210.408H210.286H210.164H210.042H209.92H209.798H209.676H209.554L209.432 22.6279L209.31 22.6889L209.188 22.7499L209.066 22.8109L208.944 22.9329L208.822 23.0549L208.7 23.1769L208.579 23.3598L208.457 23.5428L208.396 23.7868L208.274 24.0307L208.213 24.3357V24.5187L208.152 24.7016V24.8236V25.0066V25.1286L208.213 25.3115L208.274 25.4335L208.335 25.5555L208.396 25.7385L208.457 25.7995L208.579 25.9215L208.64 26.0434L208.822 26.1044L208.944 26.1654L209.066 26.2264L209.249 26.2874H209.31H209.371L209.493 26.3484H209.554H209.676H209.798H209.92H210.042H210.164L210.225 26.2874H210.347L210.469 26.2264L210.591 26.1654L210.713 26.1044L210.834 26.0434L210.895 25.9824L210.713 27.2023H210.652V27.2633H210.591L210.53 27.3243L210.469 27.3852H210.347L210.286 27.4462H210.164L210.042 27.5072H209.92H209.737H209.554L209.371 27.5682L209.127 27.5072H208.883H208.64L208.457 27.4462L208.213 27.3852L208.03 27.2633L207.786 27.2023L207.603 27.0193L207.42 26.8973L207.237 26.7143L207.115 26.4704L206.993 26.2264L206.871 25.9824L206.81 25.7385L206.749 25.4335L206.688 25.0676L206.749 24.7016V24.3357L206.81 24.1527L206.871 23.9697V23.7868L206.932 23.6038L206.993 23.4208L207.054 23.2988L207.115 23.1159L207.176 22.9939L207.237 22.8109L207.298 22.6889L207.42 22.5669L207.481 22.445L207.542 22.323L207.664 22.201L207.725 22.14L207.847 22.018L207.969 21.957L208.091 21.8351L208.152 21.7741L208.274 21.7131L208.396 21.6521L208.518 21.5911L208.64 21.5301L208.822 21.4691L208.944 21.4081L209.066 21.3471H209.249L209.371 21.2861H209.554H209.737H209.859H210.042H210.225H210.347H210.469H210.652L210.773 21.3471H210.895H211.017L211.139 21.4081H211.2L211.322 21.4691H211.383L211.505 21.5301H211.566H211.627V21.5911H211.688L211.444 22.8719Z" stroke="white" stroke-width="0.216" stroke-miterlimit="2.6131"/>
<path fill-rule="evenodd" clip-rule="evenodd" d="M222.846 27.5679H221.565L221.626 27.0189V26.9579L221.565 27.0799L221.504 27.1409L221.382 27.2629L221.321 27.3239L221.26 27.3849H221.138L221.077 27.4459L221.016 27.5069H220.894L220.834 27.5679H220.712H220.651L220.529 27.6289H220.468H220.346H220.285L220.041 27.5679H219.797L219.614 27.4459L219.431 27.3849L219.248 27.2019L219.126 27.0799L218.943 26.897L218.882 26.714L218.761 26.47L218.7 26.287L218.639 26.0431L218.578 25.7991V25.5552V25.3112L218.639 25.1282V24.8843L218.7 24.5793L218.822 24.3353L218.882 24.0914L219.004 23.8474L219.126 23.6644L219.309 23.4815L219.431 23.2985L219.553 23.1765L219.736 23.0545L219.919 22.9325L220.102 22.8106L220.285 22.7496L220.468 22.6886L220.651 22.6276H220.834L221.016 22.5666H221.138L221.26 22.6276H221.382L221.504 22.6886H221.626L221.687 22.7496L221.809 22.8106L221.87 22.8715H221.931L222.053 22.9325L222.114 22.9935V23.0545L222.175 23.1155L222.236 23.1765V23.2375L222.297 23.2985L222.602 21.4688H223.882L222.846 27.5679Z" fill="white"/>
<path d="M222.846 27.5679H221.565L221.626 27.0189V26.9579L221.565 27.0799L221.504 27.1409L221.382 27.2629L221.321 27.3239L221.26 27.3849H221.138L221.077 27.4459L221.016 27.5069H220.894L220.834 27.5679H220.712H220.651L220.529 27.6289H220.468H220.346H220.285L220.041 27.5679H219.797L219.614 27.4459L219.431 27.3849L219.248 27.2019L219.126 27.0799L218.943 26.897L218.882 26.714L218.761 26.47L218.7 26.287L218.639 26.0431L218.578 25.7991V25.5552V25.3112L218.639 25.1282V24.8843L218.7 24.5793L218.822 24.3353L218.882 24.0914L219.004 23.8474L219.126 23.6644L219.309 23.4815L219.431 23.2985L219.553 23.1765L219.736 23.0545L219.919 22.9325L220.102 22.8106L220.285 22.7496L220.468 22.6886L220.651 22.6276H220.834L221.016 22.5666H221.138L221.26 22.6276H221.382L221.504 22.6886H221.626L221.687 22.7496L221.809 22.8106L221.87 22.8715H221.931L222.053 22.9325L222.114 22.9935V23.0545L222.175 23.1155L222.236 23.1765V23.2375L222.297 23.2985L222.602 21.4688H223.882L222.846 27.5679Z" stroke="white" stroke-width="0.216" stroke-miterlimit="2.6131"/>
<path fill-rule="evenodd" clip-rule="evenodd" d="M220.712 26.4092H220.834H220.956L221.078 26.3482L221.2 26.2872L221.321 26.2262L221.382 26.1652L221.504 26.1042L221.565 26.0432L221.626 25.9213L221.687 25.7993L221.748 25.7383L221.809 25.6163L221.87 25.4943V25.3723L221.931 25.2504V25.1284L221.992 25.0064V24.8844V24.7014V24.5795L221.931 24.4575V24.3355V24.2745L221.87 24.1525L221.809 24.0305L221.748 23.9695L221.687 23.9086L221.626 23.8476L221.565 23.7866L221.504 23.7256H221.382H221.321H221.139H221.078L220.956 23.7866H220.834L220.773 23.8476L220.651 23.9695L220.59 24.0305L220.468 24.0915L220.407 24.2135L220.346 24.3355L220.285 24.4575L220.224 24.5795V24.7014L220.163 24.8234L220.102 24.9454V25.0674V25.2504V25.4943V25.7383L220.163 25.9213L220.285 26.1652L220.407 26.2872L220.529 26.4092H220.712Z" fill="#FBB231"/>
<path fill-rule="evenodd" clip-rule="evenodd" d="M192.299 26.5313L192.117 27.5681H190.958L191.019 27.3851V27.2022V27.0802L191.08 26.9582L190.958 27.0802L190.897 27.1412L190.836 27.2022L190.714 27.2632L190.592 27.3242L190.531 27.3851L190.409 27.4461L190.226 27.5071H190.105L189.983 27.5681H189.861L189.739 27.6291H189.556H189.434H189.312L189.19 27.5681H189.007L188.885 27.5071L188.763 27.4461L188.641 27.3851L188.519 27.3242L188.458 27.2022L188.397 27.1412L188.275 27.0192V26.9582L188.214 26.8362L188.154 26.7142V26.6533L188.093 26.5313V26.4093V26.3483V26.2263V26.0433L188.154 25.8604V25.6774L188.214 25.5554L188.336 25.3724L188.397 25.2505L188.519 25.1285L188.58 25.0065L188.702 24.8845L188.824 24.8235L189.007 24.7015L189.129 24.6405L189.251 24.5796L189.434 24.5186H189.556L189.739 24.4576H189.8H189.861H189.922H189.983H190.044L190.105 24.3966H190.226H190.287H190.348H190.47H190.531H190.592H190.653H190.714H190.836H190.897H191.019H191.141H191.202H191.263H191.324V24.3356L191.385 24.2746V24.2136V24.0916V23.9696L191.324 23.9087L191.263 23.8477L191.202 23.7257L191.141 23.6647H191.019L190.897 23.6037H190.775H190.653H190.531H190.409H190.226H190.105H189.922L189.8 23.6647H189.617H189.495L189.373 23.7257H189.251H189.129L189.068 23.7867H188.946L188.885 23.8477H188.824L189.19 22.7498L189.251 22.6888H189.373L189.495 22.6278H189.617L189.678 22.5668H189.8H189.922H190.044H190.226L190.348 22.5059H190.47H190.592H190.775H190.897H191.08L191.263 22.5668H191.385H191.507L191.629 22.6278H191.812L191.934 22.6888L192.056 22.7498L192.238 22.8718L192.36 22.9328L192.482 23.0548L192.543 23.1158L192.665 23.2987L192.726 23.4207L192.787 23.5427V23.7257V23.9087V24.0916L192.299 26.5313Z" fill="white"/>
<path d="M192.299 26.5313L192.117 27.5681H190.958L191.019 27.3851V27.2022V27.0802L191.08 26.9582L190.958 27.0802L190.897 27.1412L190.836 27.2022L190.714 27.2632L190.592 27.3242L190.531 27.3851L190.409 27.4461L190.226 27.5071H190.105L189.983 27.5681H189.861L189.739 27.6291H189.556H189.434H189.312L189.19 27.5681H189.007L188.885 27.5071L188.763 27.4461L188.641 27.3851L188.519 27.3242L188.458 27.2022L188.397 27.1412L188.275 27.0192V26.9582L188.214 26.8362L188.154 26.7142V26.6533L188.093 26.5313V26.4093V26.3483V26.2263V26.0433L188.154 25.8604V25.6774L188.214 25.5554L188.336 25.3724L188.397 25.2505L188.519 25.1285L188.58 25.0065L188.702 24.8845L188.824 24.8235L189.007 24.7015L189.129 24.6405L189.251 24.5796L189.434 24.5186H189.556L189.739 24.4576H189.8H189.861H189.922H189.983H190.044L190.105 24.3966H190.226H190.287H190.348H190.47H190.531H190.592H190.653H190.714H190.836H190.897H191.019H191.141H191.202H191.263H191.324V24.3356L191.385 24.2746V24.2136V24.0916V23.9696L191.324 23.9087L191.263 23.8477L191.202 23.7257L191.141 23.6647H191.019L190.897 23.6037H190.775H190.653H190.531H190.409H190.226H190.105H189.922L189.8 23.6647H189.617H189.495L189.373 23.7257H189.251H189.129L189.068 23.7867H188.946L188.885 23.8477H188.824L189.19 22.7498L189.251 22.6888H189.373L189.495 22.6278H189.617L189.678 22.5668H189.8H189.922H190.044H190.226L190.348 22.5059H190.47H190.592H190.775H190.897H191.08L191.263 22.5668H191.385H191.507L191.629 22.6278H191.812L191.934 22.6888L192.056 22.7498L192.238 22.8718L192.36 22.9328L192.482 23.0548L192.543 23.1158L192.665 23.2987L192.726 23.4207L192.787 23.5427V23.7257V23.9087V24.0916L192.299 26.5313Z" stroke="white" stroke-width="0.216" stroke-miterlimit="2.6131"/>
<path fill-rule="evenodd" clip-rule="evenodd" d="M191.202 25.3115V25.2505H191.141H191.08H191.019H190.958H190.897H190.836H190.775H190.714H190.592H190.531H190.47L190.409 25.3115H190.349H190.288H190.227L190.166 25.3725L190.105 25.4335H190.044L189.922 25.4945L189.8 25.5554L189.739 25.6164V25.6774L189.678 25.7384H189.617L189.556 25.8604V25.9214V25.9824V26.1654V26.2873L189.617 26.3483L189.678 26.4093L189.739 26.4703H189.8L189.861 26.5313H189.983H190.105L190.227 26.4703H190.349H190.47L190.531 26.4093H190.653L190.714 26.3483L190.775 26.2873L190.836 26.2263L190.897 26.1654H190.958V26.1044L191.019 26.0434V25.9824L191.08 25.9214V25.8604L191.141 25.7384V25.5554L191.202 25.4335V25.3115Z" fill="#EC1C2E"/>
<path fill-rule="evenodd" clip-rule="evenodd" d="M182.544 27.5679H181.325L182.361 21.4688H184.556L184.739 25.0672L186.264 21.4688H188.58L187.483 27.5679H186.203L187.056 22.9935H186.995L185.105 27.5679H183.642V27.3849V26.836L183.581 26.1651L183.52 25.3112V24.4573L183.459 23.7254L183.398 23.2375V22.9935H183.337L182.544 27.5679Z" fill="white"/>
<path d="M182.544 27.5679H181.325L182.361 21.4688H184.556L184.739 25.0672L186.264 21.4688H188.58L187.483 27.5679H186.203L187.056 22.9935H186.995L185.105 27.5679H183.642V27.3849V26.836L183.581 26.1651L183.52 25.3112V24.4573L183.459 23.7254L183.398 23.2375V22.9935H183.337L182.544 27.5679Z" stroke="white" stroke-width="0.216" stroke-miterlimit="2.6131"/>
<path fill-rule="evenodd" clip-rule="evenodd" d="M215.285 26.5313L215.102 27.5681H213.944V27.3851V27.2022V27.0802V27.0192L213.883 27.0802L213.822 27.1412L213.761 27.2022L213.639 27.2632L213.578 27.3242L213.456 27.3851L213.334 27.4461L213.212 27.5071H213.09L212.968 27.5681H212.846L212.725 27.6291H212.542H212.42H212.298L212.176 27.5681H211.993L211.871 27.5071L211.749 27.4461L211.627 27.3851L211.505 27.3242L211.444 27.2022L211.322 27.1412L211.261 27.0192V26.9582L211.2 26.8362L211.139 26.7142V26.6533V26.5313L211.078 26.4093V26.3483V26.2263V26.0433L211.139 25.8604V25.6774L211.2 25.5554L211.322 25.3724L211.383 25.2505L211.505 25.1285L211.566 25.0065L211.688 24.8845L211.81 24.8235L211.993 24.7015L212.115 24.6405L212.237 24.5796L212.42 24.5186H212.542L212.725 24.4576H212.786H212.846H212.907H212.968H213.029L213.09 24.3966H213.151H213.273H213.334H213.395H213.517H213.578H213.639H213.7H213.761H213.883H214.005H214.127H214.188H214.249H214.31V24.3356L214.371 24.2746V24.2136V24.0916V23.9696L214.31 23.9087L214.249 23.8477L214.188 23.7257L214.127 23.6647H214.005L213.883 23.6037H213.761H213.639H213.517H213.395H213.212H213.09H212.907L212.786 23.6647H212.664H212.481L212.359 23.7257H212.237H212.115L212.054 23.7867H211.932L211.871 23.8477H211.81L212.176 22.7498L212.237 22.6888H212.359L212.481 22.6278H212.603L212.725 22.5668H212.786H212.907H213.09H213.212L213.334 22.5059H213.456H213.578H213.761H213.883H214.066L214.188 22.5668H214.31H214.493L214.615 22.6278H214.798L214.919 22.6888L215.041 22.7498L215.163 22.8718L215.346 22.9328L215.468 23.0548L215.529 23.1158L215.651 23.2987L215.712 23.4207L215.773 23.5427V23.7257V23.9087V24.0916L215.285 26.5313Z" fill="white"/>
<path fill-rule="evenodd" clip-rule="evenodd" d="M215.102 27.5681L215.285 26.5312H215.224L215.042 27.5681L215.102 27.5071V27.5681Z" fill="white"/>
<path fill-rule="evenodd" clip-rule="evenodd" d="M213.883 27.5683H213.944H215.102V27.5073H213.944V27.5683H213.883H213.944H213.883Z" fill="white"/>
<path fill-rule="evenodd" clip-rule="evenodd" d="M214.005 27.0195H213.944V27.0805L213.883 27.2025V27.3855V27.5685H213.944V27.3855L214.005 27.2025L213.944 27.0805V27.0195H214.005Z" fill="white"/>
<path fill-rule="evenodd" clip-rule="evenodd" d="M212.176 27.6294H212.298H212.42H212.542H212.725H212.846L212.968 27.5685H213.09L213.212 27.5075H213.334L213.456 27.4465L213.578 27.3855L213.639 27.3245L213.761 27.2635L213.822 27.2025L213.944 27.0805L214.005 27.0195H213.944L213.883 27.0805L213.822 27.1415L213.7 27.2025L213.639 27.2635L213.517 27.3245L213.395 27.3855L213.334 27.4465H213.212L213.09 27.5075L212.968 27.5685H212.846H212.725H212.542H212.42H212.298H212.176V27.6294Z" fill="white"/>
<path fill-rule="evenodd" clip-rule="evenodd" d="M211.078 26.2266V26.3485V26.4095V26.5315V26.6535L211.139 26.7145V26.8365L211.2 26.9585L211.261 27.0804L211.322 27.1414L211.383 27.2634L211.505 27.3244L211.627 27.3854L211.749 27.4464L211.871 27.5074L211.993 27.5684L212.176 27.6294V27.5684L211.993 27.5074H211.871L211.749 27.4464L211.627 27.3244L211.505 27.2634L211.444 27.2024L211.383 27.1414L211.322 27.0194L211.261 26.8975L211.2 26.8365V26.7145L211.139 26.6535V26.5315V26.4095V26.3485V26.2266H211.078Z" fill="white"/>
<path fill-rule="evenodd" clip-rule="evenodd" d="M212.725 24.4575H212.542L212.42 24.5185L212.237 24.5795L212.115 24.6405L211.932 24.7015L211.81 24.7625L211.688 24.8845L211.566 25.0064L211.444 25.1284L211.383 25.2504L211.261 25.3724L211.2 25.5554L211.139 25.6773L211.078 25.8603V26.0433V26.2263H211.139V26.0433V25.8603L211.2 25.7383L211.261 25.5554L211.322 25.4334L211.383 25.3114L211.505 25.1284L211.627 25.0674L211.749 24.9454L211.871 24.8235L211.993 24.7625L212.115 24.7015L212.237 24.6405L212.42 24.5795L212.542 24.5185H212.725V24.4575Z" fill="white"/>
<path fill-rule="evenodd" clip-rule="evenodd" d="M213.7 24.3354H213.639H213.578H213.517H213.395L213.334 24.3964H213.273H213.151H213.09H213.029H212.968H212.908H212.847L212.786 24.4574H212.725V24.5184L212.786 24.4574H212.847H212.908H212.968H213.029H213.09H213.151H213.273L213.334 24.3964H213.395H213.517H213.578H213.639H213.7V24.3354Z" fill="white"/>
<path fill-rule="evenodd" clip-rule="evenodd" d="M214.31 24.3964L214.249 24.3354H214.188H214.127H214.005H213.883H213.761H213.7V24.3964H213.761H213.883H214.005H214.127H214.188H214.249H214.31H214.371H214.31L214.371 24.4574V24.3964H214.31Z" fill="white"/>
<path fill-rule="evenodd" clip-rule="evenodd" d="M214.371 24.0918H214.31V24.2138V24.2748V24.3358V24.3968H214.371V24.2748V24.2138L214.432 24.0918H214.371Z" fill="white"/>
<path fill-rule="evenodd" clip-rule="evenodd" d="M213.761 23.6645H213.883H214.005L214.066 23.7255L214.188 23.7865L214.249 23.8475L214.31 23.9085V24.0305L214.371 24.0914V23.9695V23.9085L214.249 23.7865L214.188 23.7255L214.127 23.6645L214.005 23.6035H213.883H213.761V23.6645Z" fill="white"/>
<path fill-rule="evenodd" clip-rule="evenodd" d="M211.81 23.8474L211.871 23.9084V23.8474H211.932L212.054 23.7864H212.115L212.237 23.7255H212.359H212.481L212.664 23.6645H212.786H212.908H213.09H213.212H213.395H213.517H213.639H213.761V23.6035H213.639L213.517 23.5425H213.395L213.212 23.6035H213.09H212.908H212.786L212.664 23.6645H212.481H212.359L212.237 23.7255H212.115H212.054L211.932 23.7864H211.871L211.81 23.8474H211.871H211.81Z" fill="white"/>
<path fill-rule="evenodd" clip-rule="evenodd" d="M212.176 22.75H212.115L211.81 23.8478H211.871L212.176 22.75H212.115H212.176Z" fill="white"/>
<path fill-rule="evenodd" clip-rule="evenodd" d="M214.188 22.5059H214.066H213.883H213.761H213.578H213.456H213.334H213.212H213.09H212.907L212.785 22.5668H212.725H212.603L212.481 22.6278H212.359L212.237 22.6888L212.176 22.7498H212.298L212.359 22.6888H212.481L212.603 22.6278H212.725H212.846L212.907 22.5668H213.09H213.212H213.334H213.456H213.578H213.761H213.883H214.066H214.188V22.5059Z" fill="white"/>
<path fill-rule="evenodd" clip-rule="evenodd" d="M215.773 24.0916L215.834 23.9087V23.7257L215.773 23.5427L215.712 23.4207L215.651 23.2378L215.59 23.1158L215.468 22.9938L215.346 22.9328L215.224 22.8108L215.041 22.7498L214.919 22.6888L214.797 22.6278L214.615 22.5668H214.493L214.31 22.5059H214.188V22.5668H214.31L214.493 22.6278H214.615L214.736 22.6888L214.919 22.7498L215.041 22.8108L215.163 22.8718L215.285 22.9328L215.407 23.0548L215.529 23.1768L215.59 23.2987L215.651 23.4207L215.712 23.5427L215.773 23.7257V23.9087L215.712 24.0916H215.773Z" fill="white"/>
<path fill-rule="evenodd" clip-rule="evenodd" d="M215.285 26.5314L215.773 24.0918H215.712L215.224 26.5314H215.285Z" fill="white"/>
<path fill-rule="evenodd" clip-rule="evenodd" d="M214.188 25.3115H214.127V25.2505H214.066H214.005H213.944H213.883H213.822H213.761H213.639H213.578H213.517H213.456L213.395 25.3115H213.334H213.273H213.212L213.151 25.3725H213.09H213.029L212.969 25.4335H212.908L212.847 25.4945L212.786 25.5554H212.725V25.6164L212.664 25.6774L212.603 25.7384V25.7994L212.542 25.9214V25.9824V26.1654V26.2873L212.603 26.3483L212.664 26.4093L212.725 26.4703H212.786L212.847 26.5313H212.969H213.09L213.212 26.4703H213.334H213.456L213.517 26.4093L213.639 26.3483H213.7L213.761 26.2873L213.883 26.2263V26.1654L213.944 26.1044L214.005 26.0434L214.066 25.9824V25.9214V25.8604V25.7994L214.127 25.6774V25.5554V25.4335L214.188 25.3115Z" fill="#FBB231"/>
<path fill-rule="evenodd" clip-rule="evenodd" d="M223.699 26.897V26.836L223.76 26.6531L223.821 26.5921L223.882 26.4701L224.004 26.4091L224.065 26.3481L224.187 26.2871H224.37H224.492L224.614 26.3481L224.675 26.4091L224.797 26.4701L224.858 26.5921L224.919 26.6531L224.98 26.836V26.897H224.858V26.836L224.797 26.714V26.6531L224.736 26.5311L224.614 26.4701H224.553L224.431 26.4091H224.37H224.248L224.126 26.4701H224.065L223.943 26.5311L223.882 26.6531V26.714L223.821 26.836V26.897H223.699Z" fill="white"/>
<path fill-rule="evenodd" clip-rule="evenodd" d="M224.126 26.8973V26.6533H224.37H224.431H224.492H224.553V26.7143H224.614V26.7753V26.8363V26.8973H224.553H224.37H224.431H224.492V26.8363V26.7753V26.7143H224.431H224.37H224.248V26.8973H224.126Z" fill="white"/>
<path fill-rule="evenodd" clip-rule="evenodd" d="M223.699 26.897V26.958V27.0799L223.76 27.2019L223.821 27.3239L223.882 27.3849L224.004 27.5069L224.065 27.5679H224.187H224.37H224.492H224.614L224.675 27.5069L224.797 27.3849L224.858 27.3239L224.919 27.2019L224.98 27.0799V26.958V26.897H224.858V26.958V27.0799L224.797 27.1409V27.2629L224.736 27.3239L224.614 27.3849L224.553 27.4459H224.431L224.37 27.5069L224.248 27.4459H224.126L224.065 27.3849L223.943 27.3239L223.882 27.2629V27.1409L223.821 27.0799V26.958V26.897H223.699Z" fill="white"/>
<path fill-rule="evenodd" clip-rule="evenodd" d="M224.126 26.897V27.2019H224.248V26.958H224.37L224.492 27.2019H224.553L224.431 26.958H224.492H224.553V26.897H224.37H224.248H224.126Z" fill="white"/>
<path d="M223.699 26.958V26.836L223.76 26.714L223.821 26.5921L223.882 26.4701L224.004 26.4091L224.126 26.3481L224.248 26.2871H224.37H224.492L224.614 26.3481L224.736 26.4091L224.858 26.4701L224.919 26.5921L224.98 26.714V26.836V26.958V27.08L224.919 27.202L224.858 27.324L224.797 27.4459L224.675 27.5069L224.553 27.5679L224.431 27.6289H224.309H224.187L224.065 27.5679L223.943 27.5069L223.821 27.4459L223.76 27.324L223.699 27.202L223.638 27.08L223.699 26.958ZM224.248 27.202H224.126V26.6531H224.37H224.431H224.492H224.553H224.614V26.714V26.775V26.836V26.897H224.553H224.492L224.614 27.141H224.492L224.37 26.897H224.248V27.202V27.202ZM224.37 26.897H224.431V26.836H224.309V27.019H224.37V26.897ZM224.37 27.5069H224.492L224.614 27.4459L224.675 27.3849L224.736 27.324L224.797 27.263L224.858 27.202V27.08V26.958V26.836V26.714L224.797 26.5921L224.736 26.5311L224.675 26.4701L224.614 26.4091L224.492 26.3481H224.37H224.248L224.126 26.4091L224.065 26.4701L224.004 26.5311L223.943 26.5921L223.882 26.714V26.836V26.958V27.08V27.202L223.943 27.263L224.004 27.324L224.065 27.3849L224.126 27.4459L224.248 27.5069H224.37Z" stroke="white" stroke-width="0.216" stroke-miterlimit="2.6131"/>
<path fill-rule="evenodd" clip-rule="evenodd" d="M215.651 27.5682H216.931L217.419 24.8846V24.8236V24.7016L217.48 24.5796L217.541 24.5186V24.3966L217.602 24.3356L217.663 24.2137L217.724 24.1527L217.846 24.0307L217.907 23.9697L218.029 23.9087L218.151 23.8477L218.273 23.7867H218.456L218.578 23.7257H218.761H218.822H218.883L219.126 22.5669H218.943H218.822H218.7L218.639 22.6279H218.517L218.395 22.6889L218.334 22.7499L218.212 22.8109L218.151 22.8719L218.09 22.9328L218.029 22.9938L217.907 23.0548L217.846 23.1768L217.785 23.2378L217.724 23.3598L217.663 23.4208L217.785 22.5669H216.505L215.651 27.5682Z" fill="white"/>
<path d="M215.651 27.5682H216.931L217.419 24.8846V24.8236V24.7016L217.48 24.5796L217.541 24.5186V24.3966L217.602 24.3356L217.663 24.2137L217.724 24.1527L217.846 24.0307L217.907 23.9697L218.029 23.9087L218.151 23.8477L218.273 23.7867H218.456L218.578 23.7257H218.761H218.822H218.883L219.126 22.5669H218.943H218.822H218.7L218.639 22.6279H218.517L218.395 22.6889L218.334 22.7499L218.212 22.8109L218.151 22.8719L218.09 22.9328L218.029 22.9938L217.907 23.0548L217.846 23.1768L217.785 23.2378L217.724 23.3598L217.663 23.4208L217.785 22.5669H216.505L215.651 27.5682Z" stroke="white" stroke-width="0.216" stroke-miterlimit="2.6131"/>
<path fill-rule="evenodd" clip-rule="evenodd" d="M203.396 27.5682H204.677L205.164 24.8846V24.8236V24.7016L205.225 24.6406V24.5186L205.286 24.4576L205.347 24.3356L205.408 24.2746L205.469 24.1527L205.53 24.0917L205.591 24.0307L205.713 23.9697L205.835 23.9087H205.957L206.079 23.8477H206.262H206.445H206.506H206.567V23.7867L206.628 23.6647V23.6037L206.689 23.4818V23.3598L206.75 23.1768V23.0548L206.811 22.9938L206.872 22.8719L206.932 22.8109V22.7499L206.993 22.6889L207.054 22.6279V22.5669H206.993H206.932H206.872H206.689H206.567H206.445L206.323 22.6279H206.262L206.14 22.6889L206.018 22.7499L205.957 22.8109L205.896 22.8719L205.835 22.9328L205.713 22.9938L205.652 23.0548L205.591 23.1768L205.53 23.2378L205.469 23.3598L205.408 23.4208L205.591 22.5669H204.25L203.396 27.5682Z" fill="white"/>
<path d="M203.396 27.5682H204.677L205.164 24.8846V24.8236V24.7016L205.225 24.6406V24.5186L205.286 24.4576L205.347 24.3356L205.408 24.2746L205.469 24.1527L205.53 24.0917L205.591 24.0307L205.713 23.9697L205.835 23.9087H205.957L206.079 23.8477H206.262H206.445H206.506H206.567V23.7867L206.628 23.6647V23.6037L206.689 23.4818V23.3598L206.75 23.1768V23.0548L206.811 22.9938L206.872 22.8719L206.932 22.8109V22.7499L206.993 22.6889L207.054 22.6279V22.5669H206.993H206.932H206.872H206.689H206.567H206.445L206.323 22.6279H206.262L206.14 22.6889L206.018 22.7499L205.957 22.8109L205.896 22.8719L205.835 22.9328L205.713 22.9938L205.652 23.0548L205.591 23.1768L205.53 23.2378L205.469 23.3598L205.408 23.4208L205.591 22.5669H204.25L203.396 27.5682Z" stroke="white" stroke-width="0.216" stroke-miterlimit="2.6131"/>
<path fill-rule="evenodd" clip-rule="evenodd" d="M223.699 32.4474V32.3864L223.76 32.2644L223.821 32.1424L223.882 32.0814L224.004 32.0204L224.065 31.9594L224.187 31.8984H224.37H224.492L224.614 31.9594L224.675 32.0204L224.797 32.0814L224.858 32.1424L224.919 32.2644L224.98 32.3864V32.4474H224.858L224.797 32.3254V32.2034L224.736 32.1424L224.614 32.0814L224.553 32.0204H224.431H224.37H224.248H224.126L224.065 32.0814L223.943 32.1424L223.882 32.2034V32.3254L223.821 32.4474H223.699Z" fill="#FBB231"/>
<path fill-rule="evenodd" clip-rule="evenodd" d="M224.126 32.4476V32.2646H224.37H224.431H224.492H224.553V32.3256H224.614V32.3866V32.4476H224.492V32.3866V32.3256H224.431H224.37H224.248V32.4476H224.126Z" fill="#FBB231"/>
<path fill-rule="evenodd" clip-rule="evenodd" d="M223.699 32.5083V32.4473H223.821V32.5083H223.699Z" fill="#FBB231"/>
<path fill-rule="evenodd" clip-rule="evenodd" d="M224.126 32.5083V32.4473H224.248V32.5083H224.37H224.431L224.492 32.4473H224.614L224.553 32.5083H224.126Z" fill="#FBB231"/>
<path fill-rule="evenodd" clip-rule="evenodd" d="M224.858 32.5083V32.4473H224.98V32.5083H224.858Z" fill="#FBB231"/>
<path fill-rule="evenodd" clip-rule="evenodd" d="M223.699 32.5083V32.6913L223.76 32.8133L223.821 32.8743L223.882 32.9962L224.004 33.0572L224.065 33.1182L224.187 33.1792H224.37H224.492L224.614 33.1182L224.675 33.0572L224.797 32.9962L224.858 32.8743L224.919 32.8133L224.98 32.6913V32.5083H224.858V32.6303L224.797 32.7523V32.8133L224.736 32.9352L224.614 32.9962L224.553 33.0572H224.431H224.37H224.248H224.126L224.065 32.9962L223.943 32.9352L223.882 32.8133V32.7523L223.821 32.6303V32.5083H223.699Z" fill="#FBB231"/>
<path fill-rule="evenodd" clip-rule="evenodd" d="M224.126 32.5083V32.8133H224.248V32.5693H224.37L224.492 32.8133H224.553L224.431 32.5693H224.492L224.553 32.5083H224.126Z" fill="#FBB231"/>
<path fill-rule="evenodd" clip-rule="evenodd" d="M203.518 24.0916L203.457 23.7867L203.396 23.5427L203.274 23.3597L203.152 23.1768L203.03 22.9938L202.848 22.8718L202.665 22.7498L202.482 22.6888L202.299 22.6278L202.116 22.5668L201.933 22.5059H201.75H201.567H201.201L200.897 22.5668L200.592 22.6278L200.348 22.7498L200.104 22.8718L199.921 23.0548L199.738 23.2378L199.616 23.4207L199.494 23.6037L199.372 23.7867L199.311 23.9696L199.25 24.1526L199.189 24.3356L199.128 24.5186V24.7015V24.8235V25.1895V25.5554L199.189 25.8604L199.25 26.1043L199.372 26.3483L199.494 26.5313L199.677 26.7142L199.86 26.8972L200.043 27.0192L200.226 27.1412L200.47 27.2022L200.592 27.4461L200.836 27.5071L201.079 27.5681H201.323H201.567H201.75H201.872H201.994H202.116H202.238H202.36H202.482H202.543H202.604H202.665H202.726H202.787H202.848H202.909L202.97 27.5071L203.03 27.4461L203.213 26.2873L203.091 26.3483L202.97 26.4093L202.848 26.4703L202.726 26.5313L202.604 26.5923H202.482H202.36H202.238H202.116H201.994H201.811H201.689H201.567H201.445H201.323H201.201H201.079L200.958 26.5313L200.836 26.4703L200.775 26.4093L200.714 26.3483L200.653 26.2873L200.592 26.2263L200.531 26.1653L200.47 26.1043L200.409 26.0433L200.348 25.9824L200.287 25.9214V25.8604V25.7994V25.7384V25.6774H203.274V25.3724L203.335 25.0065L203.396 24.6405L203.518 24.0916ZM202.238 24.5186H200.592V24.4576V24.3356V24.2136L200.653 24.0916L200.714 24.0306L200.775 23.9696L200.836 23.9087L200.897 23.8477L200.958 23.7867L201.018 23.7257L201.079 23.6647L201.14 23.6037L201.201 23.5427H201.262H201.323H201.384H201.445H201.506H201.567H201.628H201.689L201.75 23.6037L201.811 23.6647L201.872 23.7257L201.933 23.7867L201.994 23.8477L202.055 23.9087L202.116 23.9696L202.177 24.0306V24.1526V24.2746V24.3966L202.238 24.5186Z" fill="white"/>
<path d="M323.264 45.3164C323.264 46.7192 322.105 47.8781 320.703 47.8781H249.307C247.905 47.8781 246.746 46.7192 246.746 45.3164V2.62266C246.746 1.21987 247.905 0.0610352 249.307 0.0610352H320.703C322.105 0.0610352 323.264 1.21987 323.264 2.62266V45.3164Z" fill="#F9F9F9"/>
<path d="M270.525 22.8716V22.0788L270.159 22.8716H266.988L266.561 22.0788V22.8716H260.647L259.977 21.2249H258.818L258.087 22.8716H255.038V17.8704L257.294 12.8081H261.623L262.233 14.2719V12.8691H267.476L268.634 15.3087L269.793 12.8691H286.438C286.438 12.8691 287.291 12.8691 287.901 13.235V12.8691H292.108V13.418C292.108 13.418 292.84 12.8691 293.998 12.8691C295.095 12.8691 301.375 12.8691 301.375 12.8691L302.046 14.3329V12.8691H306.802L307.655 14.3329V12.8691H312.167V22.9936H307.533L306.436 21.2249V22.9936H300.644L299.851 21.1639H298.693L297.9 22.9936H294.425C294.425 22.9936 293.144 22.9936 292.169 22.2617C292.169 22.6277 292.169 22.9936 292.169 22.9936H285.218C285.218 22.9936 285.218 20.9809 285.218 20.615C285.218 20.249 284.974 20.31 284.974 20.31H284.731V22.9936H270.525V22.8716Z" fill="white"/>
<path d="M267.049 25.0063H276.195L277.536 26.5311L278.877 25.0063H285.889C285.889 25.0063 286.56 25.0063 287.169 25.3723V25.0063C287.169 25.0063 292.657 25.0063 293.449 25.0063C294.242 25.0063 294.912 25.4333 294.912 25.4333V25.0063H302.96V25.3723C302.96 25.3723 303.509 25.0063 304.302 25.0063C305.094 25.0063 309.545 25.0063 309.545 25.0063V25.3723C309.545 25.3723 310.216 25.0063 310.887 25.0063C311.557 25.0063 315.033 25.0063 315.033 25.0063V34.521C315.033 34.521 314.484 35.1309 313.386 35.1309H307.96V34.8259C307.96 34.8259 307.472 35.1309 306.68 35.1309C305.887 35.1309 292.23 35.1309 292.23 35.1309C292.23 35.1309 292.23 32.9352 292.23 32.6912C292.23 32.4473 292.108 32.3863 291.925 32.3863H291.742V35.1309H287.169V32.3863C287.169 32.3863 286.681 32.6302 285.828 32.6302C284.974 32.6302 284.182 32.6302 284.182 32.6302V35.0699H278.633L277.353 33.5451L276.012 35.0699H267.049V25.0063Z" fill="white"/>
<path d="M295.888 26.5312H301.619V28.117H297.656V29.4588H301.497V30.8006H297.656V32.2034H301.619V33.7282H295.888V26.5312Z" fill="#0078A9"/>
<path d="M312.716 29.3369C314.85 29.4589 315.033 30.5567 315.033 31.6545C315.033 32.9963 313.935 33.7282 312.777 33.7282H309.118V32.2035H311.984C312.472 32.2035 313.203 32.2035 313.203 31.5326C313.203 31.2276 313.081 30.9836 312.533 30.9227C312.289 30.8617 311.435 30.8617 311.313 30.8617C309.362 30.8007 308.936 29.8248 308.936 28.666C308.936 27.3242 309.85 26.5923 311.009 26.5923H314.728V28.1171H312.045C311.435 28.1171 310.765 28.0561 310.765 28.727C310.765 29.1539 311.069 29.2759 311.496 29.2759C311.618 29.2759 312.594 29.3369 312.716 29.3369Z" fill="#0078A9"/>
<path d="M306.131 29.3369C308.265 29.4589 308.448 30.5567 308.448 31.6545C308.448 32.9963 307.351 33.7282 306.192 33.7282H302.473V32.2035H305.339C305.826 32.2035 306.558 32.2035 306.558 31.5326C306.558 31.2276 306.436 30.9836 305.887 30.9227C305.643 30.8617 304.79 30.8617 304.668 30.8617C302.717 30.8007 302.29 29.8248 302.29 28.666C302.29 27.3242 303.205 26.5923 304.363 26.5923H308.082V28.1171H305.4C304.79 28.1171 304.119 28.0561 304.119 28.727C304.119 29.1539 304.424 29.2759 304.851 29.2759C305.034 29.2759 306.009 29.3369 306.131 29.3369Z" fill="#0078A9"/>
<path d="M285.279 26.5922H279.121L277.109 28.7879L275.158 26.5312H268.208V33.6672H274.914L277.048 31.2886L279.121 33.6672H282.475V31.2276H284.852C285.767 31.2276 287.413 31.1666 287.413 28.6659C287.413 26.9582 286.133 26.5922 285.279 26.5922ZM274 32.2034H269.976V30.8006H273.878V29.4588H269.976V28.117H274.244L275.951 30.0687L274 32.2034ZM280.706 33.0573L278.207 30.0687L280.706 27.2631V33.0573ZM284.669 29.8248H282.475V28.117H284.669C285.401 28.117 285.645 28.6049 285.645 28.9099C285.645 29.3978 285.401 29.8248 284.669 29.8248Z" fill="#0078A9"/>
<path d="M293.754 30.4957C294.73 30.0078 294.974 29.3979 294.974 28.483C294.974 26.9582 293.754 26.5923 292.84 26.5923H288.267V33.7282H290.035V31.2276H292.352C292.962 31.2276 293.205 31.8375 293.205 32.4474L293.266 33.7892H294.974L294.913 32.3254C294.913 31.1056 294.608 30.5567 293.754 30.4957ZM292.23 29.7028H290.035V28.0561H292.23C292.962 28.0561 293.205 28.544 293.205 28.849C293.205 29.3979 292.962 29.7028 292.23 29.7028Z" fill="#0078A9"/>
<path d="M290.766 14.2109H288.998V21.4079H290.766V14.2109Z" fill="#0078A9"/>
<path d="M274.609 14.2109H280.341V15.7357H276.378V17.0775H280.28V18.4193H276.378V19.8831H280.341V21.3469H274.609V14.2109Z" fill="#0078A9"/>
<path d="M286.864 18.1144C287.84 17.6264 288.084 17.0165 288.084 16.1017C288.084 14.5769 286.864 14.2109 285.95 14.2109H281.377V21.3469H283.145V18.8463H285.462C286.072 18.8463 286.316 19.4562 286.316 20.0661L286.377 21.4079H288.084L288.023 19.9441C288.023 18.7243 287.718 18.1754 286.864 18.1144ZM285.34 17.3825H283.145V15.7357H285.34C286.072 15.7357 286.316 16.2236 286.316 16.5286C286.316 17.0165 286.072 17.3825 285.34 17.3825Z" fill="#0078A9"/>
<path d="M270.585 14.2109L268.451 19.0292L266.317 14.2109H263.574V21.1029L260.525 14.2109H258.208L254.977 21.3469H256.806L257.477 19.7611H261.013L261.684 21.3469H265.22V16.0407L267.598 21.3469H269.183L271.561 16.1017V21.3469H273.329V14.2109H270.585ZM258.208 18.2364L259.245 15.7357L260.342 18.2364H258.208Z" fill="#0078A9"/>
<path d="M308.875 14.2109V19.1512L305.887 14.2109H303.265V20.9199L300.278 14.2109H297.961L295.522 19.7611C295.522 19.7611 294.486 19.7611 294.425 19.7611C293.998 19.7001 293.327 19.3951 293.327 18.1143V17.5654C293.327 15.8577 294.242 15.7357 295.4 15.7357H296.498V14.1499H294.181C293.388 14.1499 291.62 14.7598 291.559 17.6874C291.498 19.7001 292.352 21.2859 294.303 21.2859H296.62L297.29 19.7001H300.827L301.497 21.2859H304.973V16.0406L308.143 21.2859H310.521V14.2109H308.875ZM298.083 18.2363L299.119 15.7357L300.217 18.2363H298.083Z" fill="#0078A9"/>
<path d="M47.0689 10.6734L61.8846 25.5552C62.0675 25.7382 62.0675 25.9822 61.8846 26.1651L47.0079 40.986C46.825 41.1689 46.5811 41.1689 46.4592 40.986L31.5825 26.1651C31.3996 25.9822 31.3996 25.7382 31.5825 25.6162L46.4592 10.7344C46.6421 10.5514 46.886 10.5514 47.0689 10.6734Z" fill="#002B59"/>
<path d="M47.0689 10.6734L61.8846 25.5552C62.0675 25.7382 62.0675 25.9822 61.8846 26.1651L47.0079 40.986C46.825 41.1689 46.5811 41.1689 46.4592 40.986L31.5825 26.1651C31.3996 25.9822 31.3996 25.7382 31.5825 25.6162L46.4592 10.7344C46.6421 10.5514 46.886 10.5514 47.0689 10.6734Z" stroke="#002B59" stroke-width="0.4561" stroke-miterlimit="3.8636"/>
<path d="M32.68 24.7014L40.3012 17.0775L33.3506 10.1245C33.1677 9.94156 32.9239 9.94156 32.8019 10.1245L17.8642 25.0064C17.6813 25.1893 17.6813 25.4333 17.8642 25.6163L32.68 40.4371C32.8629 40.6201 33.1068 40.6201 33.2897 40.4371L48.1664 25.4943C48.3493 25.3113 48.3493 25.0674 48.1664 24.8844L47.5567 24.2745L39.3867 32.5693L38.777 31.9594L46.947 23.7256L45.9105 22.6887L37.7405 30.8615L37.1308 30.2516L45.3008 22.0788L44.2643 21.0419L36.0333 29.1538L35.4236 28.5438L43.5936 20.371L42.5571 19.3342L34.3262 27.507L33.7165 26.8971L41.8865 18.7243L40.9719 17.6874L32.7409 25.9212L32.3751 25.5553C32.1922 25.3723 32.1922 25.1283 32.3751 25.0064L32.68 24.7014Z" fill="#C51015"/>
<path d="M31.8265 22.7495H29.0828C29.9364 22.7495 30.8509 22.7495 31.8265 22.7495ZM52.1905 22.9324V22.8714H52.2514H52.3124V22.8105C53.5928 22.8715 53.8976 22.8714 54.2025 22.8714H54.2635C54.2635 22.9324 54.3244 23.0544 54.3244 23.2374C54.3244 23.2984 54.2635 23.5424 54.2025 23.8473C54.1415 24.4572 53.9586 25.4331 53.5928 25.921V25.982C53.5928 26.104 53.5318 26.104 53.4708 26.104C53.4099 26.165 53.3489 26.226 53.3489 26.226H53.166H53.105H52.9831H51.6417V26.165V25.982C51.8856 24.8232 52.2514 23.8473 52.1905 22.9324ZM59.385 25.0671C59.324 25.1891 59.324 25.3721 59.202 25.5551C59.0801 25.921 58.9582 26.165 58.8362 26.165H58.7143H57.19H57.1291C57.312 25.1281 57.7997 23.8473 57.6778 22.8105H57.7388H59.6898H59.7508C59.8117 22.9324 59.8117 23.0544 59.8117 23.1764V23.2374V23.2984C59.8117 23.3594 59.8117 23.5424 59.7508 23.7863C59.6898 24.1523 59.5679 24.5792 59.4459 25.0061L59.385 25.0671ZM49.2029 24.2133C49.142 24.2133 49.2029 24.1523 49.2029 24.0913C49.2639 23.6643 49.3859 23.2374 49.3859 22.9934C49.3859 22.9324 49.3249 22.8715 49.3249 22.8105H49.3859H51.3369H51.3979C51.4588 22.9324 51.4588 23.1154 51.4588 23.2984C51.4588 23.3594 51.2759 24.2133 51.093 24.9451L50.8491 26.226V26.5919C50.9101 26.6529 51.032 26.7139 51.215 26.7749H53.5318C53.7147 26.7749 53.8367 26.7139 53.9586 26.6529C54.2025 26.4089 54.4464 25.738 54.6293 25.0671C54.6903 24.5182 54.7512 23.8473 54.9341 22.9324C54.9341 22.8714 54.8732 22.8715 54.8732 22.8105H54.9341H56.8852H56.9461C57.0071 22.9324 57.0681 23.0544 57.0681 23.2374C57.0681 24.0303 56.9461 25.1281 56.5194 26.043C56.3364 26.5919 56.0316 27.0798 55.6048 27.4458C55.3 27.7507 54.9341 27.9337 54.5683 27.9337C54.3854 27.9947 54.2025 27.9947 53.9586 27.9947H49.5078C49.4468 27.9947 49.3249 27.9947 49.2029 27.9337H49.142C48.8371 27.9337 48.7152 27.7507 48.6542 27.5068C48.5932 27.4458 48.5932 27.3848 48.5323 27.3238L48.6542 26.8359C48.7762 26.165 49.02 25.0671 49.2029 24.2133ZM48.3494 22.9324C48.4103 22.9324 48.4103 22.9934 48.3494 22.9324C48.5323 23.0544 48.6542 23.1764 48.7152 23.3594L47.7397 27.9337H45.6667L46.4593 24.1523V24.0913C46.4593 24.0303 46.3983 23.9693 46.3373 23.9083H44.5692H44.5082C44.5692 23.5424 44.6912 23.1154 44.6912 22.7495H44.7521H47.6177H47.6787H47.9835C48.0445 22.8105 48.2274 22.8714 48.3494 22.9324ZM40.7281 23.2984C40.85 23.4814 40.972 23.6643 41.0939 23.8473L41.5817 24.5792C41.7036 24.5182 41.8256 24.2742 41.8865 24.0303C41.8865 23.8473 41.9475 23.6643 42.0085 23.4814C42.0085 23.3594 42.0085 23.2374 42.0085 23.2374C42.0085 23.0544 41.9475 22.9324 41.8865 22.7495H41.9475H42.0085C42.3133 22.7495 42.6182 22.7495 42.8621 22.7495H44.0815H44.1424V23.0544C44.1424 23.1764 44.0205 25.3111 43.4108 25.677H43.3498H43.2888H43.2279C43.2279 25.738 43.1669 25.738 43.1669 25.738L42.3743 25.799C42.8011 26.4699 43.2279 27.1408 43.7156 27.8117C43.6547 27.8727 41.2768 27.8117 41.2768 27.8117H41.2159L40.4232 26.5919L39.8745 25.799C39.2038 26.287 39.6306 27.2018 38.96 27.8727H36.9479V27.8117C37.0089 27.7507 37.0089 27.6897 37.0699 27.6288C37.4967 26.3479 37.1918 24.3962 39.0819 24.4572L37.9235 22.6885H37.9844H40.2403H40.3013L40.7281 23.2984ZM33.4727 22.8714L33.5336 22.8105H35.9115C37.0089 22.8105 37.5576 23.7253 37.5576 24.5182C37.5576 25.86 36.5212 28.2997 34.5091 27.9947L32.5581 27.9337H32.4362H32.3752C32.4362 27.6288 32.4971 27.3238 32.5581 26.8969H32.6191H34.1433C34.4482 26.7749 34.6311 26.6529 34.875 26.4699C35.2408 25.921 35.4237 25.1281 35.4847 24.8842C35.4847 24.8232 35.4847 24.7622 35.4847 24.7012C35.4237 24.3962 35.1798 24.0303 34.814 24.0303H33.3507H33.2897C33.3507 23.7253 33.4117 23.3594 33.5336 23.0544C33.4727 22.9324 33.4727 22.8714 33.4727 22.8714ZM32.802 23.2984C32.802 23.3594 32.802 23.4204 32.802 23.4814V23.7863L31.8874 27.9947H29.8144V27.9337L30.1193 26.5919L30.6071 24.2133C30.6071 24.1523 30.5461 24.0303 30.4851 23.9693H30.4241H28.656C28.717 23.6033 28.778 23.1764 28.8999 22.8714H32.0703C32.2532 22.8714 32.4971 22.9934 32.741 23.1764V23.2984H32.802ZM24.693 23.8473V23.7253C24.7539 23.2374 24.8149 22.9934 24.8759 22.7495H24.9368H26.705H26.7659H26.9489C28.0463 22.7495 28.4731 23.8473 28.4731 24.4572C28.4731 25.4331 28.0463 26.6529 27.2537 27.3238C27.0098 27.5678 26.705 27.7507 26.3391 27.8117C26.0953 27.8727 25.8514 27.9337 25.6075 27.9337H22.1932C22.0712 27.9337 21.9493 27.9337 21.8274 27.8727C21.6444 27.8727 21.5835 27.7507 21.5225 27.6897C21.4006 27.6288 21.3396 27.4458 21.3396 27.2628L21.4615 26.7139C21.6445 25.677 22.0712 23.7863 22.1322 23.0544C22.1322 22.9934 22.1322 22.8715 22.0712 22.8105H22.1322H24.0833H24.1442C24.2052 22.9324 24.2052 23.1154 24.2052 23.2374V23.2984L23.5345 26.5919C23.5955 26.7139 23.6565 26.7749 23.7174 26.8359H25.1197C25.4246 26.7749 25.6685 26.6529 25.8514 26.5309C26.2782 26.043 26.4001 25.1281 26.4001 24.9451C26.4001 24.8232 26.4001 24.3962 26.2172 24.2133C26.0953 24.0913 25.9733 24.0303 25.7294 24.0303H25.6685H24.693V23.8473ZM26.7659 22.8105H24.9978H26.8269H26.7659Z" fill="white"/>
</g>
<defs>
<clipPath id="clip0_188_2323">
<rect width="406" height="48" fill="white"/>
</clipPath>
</defs>
</svg>
