<svg width="40" height="40" viewBox="0 0 40 40" fill="none" xmlns="http://www.w3.org/2000/svg">
<path d="M19.9818 39.1111C9.45112 39.1111 0.92627 30.5863 0.92627 20.0556C0.92627 9.52485 9.45112 1 19.9818 1C30.5125 1 39.0374 9.52485 39.0374 20.0556C39.0374 30.5863 30.5125 39.1111 19.9818 39.1111Z" stroke="white" stroke-miterlimit="10"/>
<path d="M9.75208 26.4742C11.5573 27.6777 13.7638 28.3798 16.1708 28.3798C23.8933 28.3798 28.3062 21.8608 28.0053 15.9435C28.8076 15.3418 29.5097 14.6397 30.1114 13.7371C29.4094 14.038 28.607 14.3389 27.7044 14.4391C28.607 13.9377 29.2088 13.1353 29.5097 12.1324C28.7073 12.6339 27.8047 12.9348 26.9021 13.1353C26.0997 12.333 25.0968 11.8315 23.8933 11.8315C21.1854 11.8315 19.1796 14.3389 19.7813 16.9465C16.2711 16.7459 13.2623 15.1412 11.1562 12.6339C10.053 14.5394 10.5544 16.9465 12.46 18.2503C11.7579 18.2503 11.1562 18.0497 10.5544 17.7488C10.5544 19.6543 11.8582 21.4596 13.8641 21.8608C13.2623 22.0614 12.6606 22.0614 11.9585 21.9611C12.46 23.666 14.0646 24.8696 15.8699 24.8696C14.2652 26.0731 11.9585 26.6748 9.75208 26.4742Z" fill="white"/>
</svg>
