<svg width="15" height="15" viewBox="0 0 15 15" fill="none" xmlns="http://www.w3.org/2000/svg">
<path fill-rule="evenodd" clip-rule="evenodd" d="M0 15C0 14.9037 0.0485937 14.8556 0.0485937 14.8074C0.437343 13.6037 0.874687 12.4 1.26344 11.1963C1.31203 11.1 1.26344 11.0037 1.21484 10.9074C0.534531 9.70369 0.194375 8.35554 0.242969 6.95924C0.437343 3.58887 2.91562 0.699973 6.31718 0.122194C8.89265 -0.31114 11.0794 0.411084 12.9259 2.24072C14.1408 3.44442 14.7725 4.88887 14.9669 6.57406C15.1126 8.1148 14.7725 9.65555 14.0436 10.9555C13.3633 12.1111 12.3914 13.0741 11.128 13.7481C10.1561 14.2778 9.13562 14.5667 8.01796 14.6148C6.65734 14.663 5.3939 14.4222 4.22765 13.7963C4.13047 13.7481 4.03328 13.7481 3.93609 13.7481C2.67265 14.1333 1.40922 14.5185 0.194375 14.9519C0.145781 14.9519 0.0971874 15 0 15ZM1.89515 13.1222C1.99234 13.0741 2.04094 13.0741 2.13812 13.0741C2.76984 12.8815 3.45015 12.6407 4.08187 12.4481C4.17906 12.4 4.27625 12.4 4.37343 12.4963C5.58828 13.2667 6.9489 13.5556 8.40671 13.363C9.71874 13.2185 10.885 12.6889 11.8083 11.8222C13.4119 10.3296 14.0922 8.45184 13.7034 6.23702C13.4119 4.55183 12.3914 3.05924 10.9336 2.14442C10.0589 1.56664 9.03843 1.2296 7.92077 1.18146C6.60874 1.13331 5.3939 1.4222 4.27625 2.19257C2.42969 3.39627 1.50641 5.12961 1.45781 7.29628C1.45781 8.54813 1.79797 9.70369 2.52687 10.763C2.62406 10.8593 2.62406 11.0037 2.57547 11.1C2.42969 11.5333 2.2839 12.0148 2.13812 12.4481C2.08953 12.6407 1.99234 12.8815 1.89515 13.1222Z" fill="#FFD600"/>
<path fill-rule="evenodd" clip-rule="evenodd" d="M4.08185 5.70711C4.08185 5.08118 4.32482 4.5997 4.76216 4.21451C4.90794 4.07007 5.10231 4.02192 5.29669 4.02192C5.83122 4.02192 5.83122 4.02192 6.02559 4.5034C6.17138 4.88859 6.36575 5.27377 6.51153 5.65896C6.56013 5.8034 6.56013 5.8997 6.51153 5.996C6.36575 6.18859 6.21997 6.38118 6.07419 6.57377C5.977 6.71822 5.92841 6.81452 6.02559 7.00711C6.60872 7.97007 7.38622 8.64415 8.45528 9.07748C8.60106 9.12563 8.69825 9.12563 8.79544 8.98119C8.98981 8.74045 9.13559 8.54785 9.32997 8.35526C9.47575 8.16267 9.52434 8.11452 9.71872 8.21081C10.2047 8.45156 10.7392 8.6923 11.2251 8.93304C11.3709 8.98119 11.3709 9.12563 11.3709 9.27007C11.3223 10.0404 10.9822 10.4256 10.0589 10.7145C9.62153 10.859 9.18419 10.7145 8.74684 10.6182C7.09466 10.1367 5.87981 9.17378 4.90794 7.77748C4.56778 7.296 4.27622 6.86266 4.13044 6.28489C4.13044 6.04414 4.13044 5.85155 4.08185 5.70711Z" fill="#FFD600"/>
</svg>
