<svg width="19" height="19" viewBox="0 0 19 19" fill="none" xmlns="http://www.w3.org/2000/svg">
<path d="M0.359053 18.6414C-0.119029 18.1633 -0.119029 17.3882 0.359053 16.9101L16.9102 0.35857C17.3882 -0.119524 18.1634 -0.119523 18.6414 0.358571C19.1195 0.836665 19.1195 1.61181 18.6414 2.0899L2.09034 18.6414C1.61226 19.1195 0.837134 19.1195 0.359053 18.6414Z" fill="#D3D3D3"/>
<path d="M18.6409 18.6414C19.119 18.1633 19.119 17.3882 18.6409 16.9101L2.08985 0.35857C1.61177 -0.119524 0.836643 -0.119523 0.358561 0.358571C-0.11952 0.836665 -0.11952 1.61181 0.358561 2.0899L16.9097 18.6414C17.3877 19.1195 18.1629 19.1195 18.6409 18.6414Z" fill="#D3D3D3"/>
</svg>
