<svg width="28" height="34" viewBox="0 0 28 34" fill="none" xmlns="http://www.w3.org/2000/svg">
<path fill-rule="evenodd" clip-rule="evenodd" d="M7.99279 34C8.2251 33.9997 8.45602 33.9639 8.67776 33.8938C15.0957 31.8013 20.5469 27.4207 24.0199 21.5648C27.493 15.7089 28.7521 8.77517 27.5639 2.04991C27.4844 1.48283 27.2062 0.963669 26.7802 0.587296C26.3541 0.210923 25.8087 0.00246311 25.2435 0H25.2295L20.057 0.0184174C19.4982 0.0241236 18.9592 0.2292 18.5348 0.597618C18.1104 0.966037 17.8277 1.47423 17.7364 2.03292L16.8279 7.49134C16.7444 7.96849 16.8035 8.46005 16.9978 8.90284C17.1921 9.34563 17.5126 9.71941 17.9181 9.97617L20.9377 11.8575C21.0799 11.9442 21.1924 12.073 21.2599 12.2265C21.3274 12.3801 21.3467 12.5509 21.3152 12.716C20.1551 16.8113 17.9462 20.5226 14.9127 23.4727C14.7816 23.6041 14.6097 23.6853 14.4262 23.7027C14.2427 23.72 14.0588 23.6723 13.906 23.5677L11.2081 21.709C10.7956 21.4265 10.305 21.2843 9.80745 21.3028C9.30988 21.3214 8.83112 21.4999 8.44022 21.8124L3.98071 25.3739C3.52132 25.7457 3.21127 26.2743 3.10836 26.8609C3.00546 27.4475 3.11671 28.052 3.4215 28.5614L5.97984 32.8426C6.18788 33.1955 6.48261 33.4877 6.83546 33.6906C7.18831 33.8935 7.58711 34.0001 7.99279 34ZM25.2435 1.60367C25.4351 1.60436 25.6199 1.67534 25.7638 1.80347C25.9077 1.93161 26.0009 2.10823 26.0262 2.30067C27.1513 8.64705 25.9663 15.1916 22.6911 20.7197C19.4159 26.2478 14.2728 30.3841 8.21651 32.3609C8.04758 32.4121 7.86665 32.4049 7.70218 32.3406C7.5377 32.2762 7.39896 32.1583 7.30781 32.0053L4.74964 27.7242C4.64834 27.5501 4.61233 27.3448 4.64828 27.146C4.68423 26.9472 4.78974 26.7682 4.94538 26.6418L9.40472 23.0803C9.53694 22.9745 9.69897 22.914 9.86734 22.9076C10.0357 22.9013 10.2018 22.9493 10.3414 23.0449L13.0393 24.9036C13.4856 25.2122 14.0241 25.354 14.5622 25.3046C15.1003 25.2553 15.6046 25.0178 15.989 24.633C19.2372 21.4607 21.6004 17.4746 22.8389 13.0787C22.9485 12.5855 22.9022 12.0698 22.7065 11.6047C22.5108 11.1397 22.1758 10.7488 21.7486 10.4876L18.729 8.60625C18.5925 8.51912 18.4848 8.3925 18.42 8.24274C18.3552 8.09298 18.3363 7.92698 18.3656 7.76617L19.2743 2.30775C19.307 2.11706 19.4046 1.94401 19.5502 1.81873C19.6958 1.69345 19.88 1.62387 20.071 1.62208L25.2435 1.60367ZM5.64435 20.3788C5.82178 20.3757 5.99293 20.3119 6.13001 20.1977C6.26708 20.0835 6.36188 19.9256 6.39912 19.7498C7.36053 15.3085 9.79866 11.3369 13.305 8.5C13.4668 8.36599 13.5704 8.17322 13.5939 7.96282C13.6174 7.75241 13.5589 7.54102 13.4308 7.37375C13.3687 7.29131 13.291 7.22229 13.2021 7.17075C13.1133 7.11922 13.0152 7.08621 12.9136 7.07367C12.812 7.06113 12.7089 7.06931 12.6105 7.09773C12.5121 7.12615 12.4202 7.17424 12.3404 7.23917C8.5521 10.3112 5.91741 14.6062 4.87541 19.4083C4.83341 19.6156 4.8726 19.8314 4.9848 20.0098C5.09699 20.1883 5.27346 20.3155 5.4766 20.3646C5.53181 20.3757 5.58808 20.3805 5.64435 20.3788ZM0.779544 20.9298C0.96672 20.929 1.14726 20.86 1.28841 20.7355C1.42956 20.6109 1.52181 20.439 1.54831 20.2512C2.07627 16.6868 3.37362 13.2843 5.34776 10.2861C7.32191 7.28787 9.92431 4.76785 12.9695 2.90559C13.1469 2.79395 13.274 2.61633 13.3236 2.41083C13.3733 2.20533 13.3414 1.98829 13.2351 1.80625C13.1848 1.71572 13.1172 1.63633 13.0361 1.57282C12.955 1.50931 12.8622 1.46296 12.7631 1.43653C12.6639 1.4101 12.5607 1.40412 12.4593 1.41896C12.3579 1.4338 12.2603 1.46916 12.1726 1.52292C8.9286 3.50613 6.15657 6.19052 4.05426 9.38453C1.95194 12.5785 0.57123 16.2034 0.0106094 20.0005C-0.0233982 20.2082 0.0250764 20.4211 0.145591 20.5926C0.266106 20.7641 0.448792 20.8803 0.653607 20.9157C0.695173 20.9231 0.737351 20.9274 0.779544 20.9284V20.9298Z" fill="#386D00"/>
</svg>
