<svg width="81" height="71" fill="none" xmlns="http://www.w3.org/2000/svg"><path d="M27.22 12.453a1.016 1.016 0 00-.4.103L.6 25.435a1.017 1.017 0 00-.569.911v30.517a1.016 1.016 0 00.582.918l26.412 12.508a1.016 1.016 0 00.874 0l26.043-12.452a1.016 1.016 0 00.578-.918V26.234a1.017 1.017 0 00-.572-.916L27.713 12.553a1.017 1.017 0 00-.493-.1zm.05 2.146l25.216 12.27v29.41L27.46 68.246 2.065 56.22V26.98L27.269 14.6z" fill="#989898"/><path d="M53.525 25.21a1.015 1.015 0 00-.461.106l-25.877 12.39L1.486 25.43a1.017 1.017 0 10-.876 1.834L26.75 39.75a1.017 1.017 0 00.877 0l26.315-12.6a1.016 1.016 0 00-.417-1.94z" fill="#989898"/><path d="M27.163 37.802a1.017 1.017 0 00-.992 1.04l.274 30.538a1.017 1.017 0 102.032-.018l-.273-30.538a1.018 1.018 0 00-1.041-1.022z" fill="#989898"/><path d="M27.292 43.531a1.016 1.016 0 00-.463.103L.615 55.943a1.016 1.016 0 10.865 1.839l26.213-12.308a1.016 1.016 0 00-.401-1.943z" fill="#989898"/><path d="M27.201 43.532a1.016 1.016 0 00-.372 1.942l26.214 12.308a1.018 1.018 0 001.485-.865 1.014 1.014 0 00-.622-.974L27.694 43.634a1.017 1.017 0 00-.493-.102z" fill="#989898"/><path d="M53.262.001c-.135.006-.268.04-.39.098L26.829 12.551a1.016 1.016 0 00-.578.911l-.177 30.943a1.016 1.016 0 00.581.924l26.413 12.509a1.016 1.016 0 00.874-.002l26.041-12.451a1.017 1.017 0 00.578-.916V13.782a1.018 1.018 0 00-.572-.914L53.756.103A1.016 1.016 0 0053.262 0zm.044 2.144l25.223 12.272v29.41L53.5 55.794 28.11 43.77l.17-29.658L53.306 2.145z" fill="#989898"/><path d="M27.215 12.445a1.017 1.017 0 00-.385 1.94L52.97 26.87a1.015 1.015 0 00.867.005l26.138-12.173a1.016 1.016 0 10-.858-1.842L53.414 24.83 27.706 12.55a1.016 1.016 0 00-.491-.105zm26.296 18.207a1.016 1.016 0 00-.462.103L26.837 43.064a1.018 1.018 0 00.471 1.95c.137-.01.27-.048.392-.111l26.213-12.308a1.016 1.016 0 00-.401-1.943z" fill="#989898"/><path d="M53.421 30.653a1.017 1.017 0 00-.372 1.942l26.214 12.308a1.017 1.017 0 10.864-1.84L53.913 30.755a1.018 1.018 0 00-.492-.102z" fill="#989898"/></svg>