<svg width="61" height="71" fill="none" xmlns="http://www.w3.org/2000/svg"><path d="M30.307 0c-1.8 0-3.255 1.235-4.599 2.396-.806.698-1.62 1.45-2.436 1.668-.861.225-1.984-.015-3.068-.22-1.713-.326-3.556-.653-5.055.214-1.52.88-2.157 2.656-2.736 4.317-.357 1.028-.698 2.108-1.313 2.725v.001c-.617.616-1.697.956-2.725 1.313-1.661.578-3.437 1.215-4.318 2.737-.866 1.498-.537 3.34-.213 5.054.205 1.084.449 2.209.218 3.071-.218.815-.968 1.629-1.665 2.435C1.235 27.055 0 28.509 0 30.31c0 1.8 1.235 3.254 2.396 4.598.698.807 1.449 1.62 1.667 2.436.23.863-.015 1.987-.22 3.07-.323 1.714-.653 3.556.214 5.055.88 1.52 2.657 2.158 4.318 2.736 1.028.357 2.107.698 2.724 1.313.075.075.145.158.21.246a.343.343 0 01.053.309l-5.804 18.38a1.227 1.227 0 001.17 1.598h14.149c.537 0 1.01-.346 1.17-.858l3.351-10.608a.343.343 0 01.552-.157c1.28 1.101 2.664 2.191 4.359 2.191 1.695 0 3.08-1.09 4.358-2.19a.343.343 0 01.552.156l3.35 10.607c.16.513.633.859 1.171.859h14.147a1.23 1.23 0 001.171-1.599l-5.803-18.38a.343.343 0 01.054-.309c.064-.085.131-.166.206-.242v-.002c.617-.615 1.697-.957 2.725-1.314 1.661-.577 3.437-1.213 4.318-2.736.866-1.498.538-3.342.215-5.055-.206-1.083-.45-2.206-.22-3.069v-.001c.218-.816.969-1.63 1.666-2.435 1.162-1.344 2.397-2.799 2.397-4.6 0-1.8-1.235-3.254-2.397-4.598-.698-.806-1.449-1.62-1.666-2.435-.23-.863.015-1.988.22-3.07.323-1.715.652-3.556-.215-5.055-.88-1.52-2.656-2.158-4.317-2.736-1.028-.357-2.108-.698-2.725-1.313-.616-.618-.956-1.698-1.313-2.726-.578-1.661-1.215-3.437-2.737-4.318-1.499-.867-3.342-.538-5.054-.214-1.083.204-2.209.449-3.071.219-.815-.218-1.629-.97-2.435-1.666C33.562 1.235 32.108 0 30.308 0h-.001zm0 2.458c.519 0 1.01.261 1.505.601.496.34.998.776 1.486 1.197 1.075.93 2.15 1.845 3.407 2.18 1.31.352 2.733.094 4.162-.176.617-.118 1.253-.239 1.832-.285.579-.047 1.108-.037 1.536.21.436.253.716.714.97 1.247.252.532.467 1.15.675 1.75.474 1.363.956 2.714 1.898 3.655.941.943 2.293 1.424 3.655 1.898.6.209 1.218.424 1.75.677.533.253.995.534 1.248.97.248.427.257.957.21 1.536-.046.578-.168 1.213-.284 1.83-.27 1.428-.53 2.853-.18 4.162.336 1.258 1.253 2.334 2.183 3.408.422.488.857.99 1.197 1.486.34.496.601.986.601 1.506 0 .519-.261 1.01-.601 1.505-.34.497-.776.999-1.197 1.486-.93 1.075-1.845 2.151-2.18 3.408-.35 1.309-.093 2.733.177 4.162.116.617.238 1.253.284 1.832.047.579.038 1.108-.21 1.536-.253.436-.715.717-1.247.97-.533.252-1.151.467-1.751.675-1.362.474-2.714.956-3.655 1.898-.942.941-1.424 2.293-1.898 3.655-.209.6-.423 1.218-.676 1.75-.252.533-.533.995-.97 1.248-.427.247-.958.256-1.536.21-.58-.048-1.214-.169-1.83-.285-1.43-.271-2.854-.528-4.162-.179-1.258.337-2.333 1.252-3.408 2.182-.488.422-.99.857-1.486 1.197-.496.34-.986.601-1.505.601-.52 0-1.01-.261-1.506-.601-.496-.34-.998-.776-1.486-1.197-1.074-.93-2.151-1.845-3.408-2.18a5.384 5.384 0 00-1.404-.172c-.895 0-1.827.173-2.757.349-.618.116-1.254.238-1.832.284-.58.047-1.109.038-1.537-.21-.436-.252-.716-.714-.97-1.246-.252-.533-.467-1.151-.675-1.751-.474-1.362-.956-2.714-1.898-3.655-.941-.942-2.293-1.424-3.655-1.898-.6-.209-1.218-.423-1.75-.675-.533-.253-.995-.534-1.248-.97-.248-.428-.256-.957-.21-1.536.048-.58.17-1.215.286-1.831.27-1.43.527-2.853.178-4.162-.336-1.257-1.253-2.334-2.183-3.409-.422-.488-.857-.99-1.197-1.486-.34-.496-.6-.986-.6-1.505 0-.52.26-1.01.6-1.506.34-.496.776-.998 1.197-1.486.93-1.074 1.846-2.151 2.182-3.408.35-1.309.092-2.732-.177-4.16-.117-.617-.24-1.252-.286-1.831-.047-.58-.037-1.11.21-1.537.253-.436.715-.718 1.248-.971.532-.253 1.15-.467 1.75-.676 1.362-.474 2.714-.955 3.655-1.898.942-.941 1.424-2.292 1.898-3.655.209-.6.423-1.218.676-1.75.253-.533.534-.994.97-1.246.427-.248.956-.258 1.535-.211.58.046 1.215.168 1.831.285 1.43.27 2.854.528 4.162.179 1.257-.336 2.335-1.253 3.409-2.183.488-.422.99-.857 1.486-1.197.496-.34.986-.601 1.506-.601zm0 8.546C19.658 11.004 11 19.661 11 30.31c0 10.648 8.658 19.306 19.307 19.306 10.648 0 19.305-8.658 19.305-19.306 0-10.649-8.657-19.306-19.305-19.306zm0 2.458c9.286 0 16.847 7.56 16.847 16.848 0 9.286-7.56 16.848-16.847 16.848-9.287 0-16.85-7.562-16.85-16.848 0-9.287 7.563-16.848 16.85-16.848zM47.69 54.105a.344.344 0 01.334.24l4.043 12.802a.343.343 0 01-.328.446H40.89a.343.343 0 01-.327-.24l-3.28-10.384a.343.343 0 01.27-.441c.824-.14 1.853.057 2.858.247 1.713.324 3.555.653 5.054-.214.89-.515 1.472-1.329 1.924-2.262a.343.343 0 01.302-.194zm-34.764.002c.127.005.24.079.296.193.452.932 1.034 1.746 1.924 2.262 1.498.867 3.342.537 5.055.214 1.004-.19 2.032-.39 2.857-.248a.343.343 0 01.27.441L20.05 67.353a.343.343 0 01-.327.24H8.872a.343.343 0 01-.328-.446l4.043-12.8a.343.343 0 01.34-.24z" fill="#989898"/><path d="M29.706 17.386c-.444 0-.857.237-1.081.62l-3.173 5.44h-6.35a1.253 1.253 0 00-1.081 1.881l3.166 5.43-3.166 5.428a1.253 1.253 0 001.08 1.882h6.351l3.173 5.44a1.253 1.253 0 002.162 0l3.172-5.44h6.35a1.253 1.253 0 001.08-1.882l-3.165-5.429 3.167-5.429a1.253 1.253 0 00-1.08-1.882h-6.352l-3.173-5.438a1.253 1.253 0 00-1.08-.621zm0 3.735l1.356 2.324H28.35l1.356-2.324zm-8.426 4.827h2.712l-1.356 2.325-1.356-2.325zm5.61 0h5.632l2.805 4.808-2.805 4.808H26.89l-2.805-4.808 2.805-4.808zm8.53 0h2.711l-1.356 2.325-1.356-2.325zM22.635 33.24l1.356 2.324H21.28l1.356-2.324zm14.14 0l1.355 2.324h-2.71l1.356-2.324zm-8.426 4.827h2.712l-1.356 2.325-1.356-2.325z" fill="#989898"/></svg>