<svg width="70" height="70" fill="none" xmlns="http://www.w3.org/2000/svg"><path d="M5.944 0A5.939 5.939 0 000 5.945V59.56A11 11 0 0010.44 70h53.616A5.938 5.938 0 0070 64.056v-2.234a5.939 5.939 0 00-5.944-5.944H17.12a3.008 3.008 0 01-2.997-2.996V5.945A5.939 5.939 0 008.179.001H5.945L5.944 0zm0 2.947h2.235a3.008 3.008 0 012.996 2.997V43.94a.76.76 0 01-.76.762H3.708a.761.761 0 01-.761-.761V5.944a3.008 3.008 0 012.996-2.997zm29.067 1.496a1.471 1.471 0 00-1.044.45l-.009.01-4.466 4.465s0 .002-.002.002c-.07.072-.133.148-.186.228 0 .002-.002.002-.002.003.012-.017-.004.014-.055.107l-.016.029a1.637 1.637 0 00-.061.116 1.583 1.583 0 00-.038.12.818.818 0 01-.019.06 1.26 1.26 0 00-.028.098 1.453 1.453 0 000 .563c.009.033.018.066.028.097a.73.73 0 01.019.06c.01.04.024.08.038.121.02.043.041.084.064.123l.007.013c.05.089.065.12.068.127a1.643 1.643 0 00.183.224l4.457 4.456h.001a1.463 1.463 0 002.066-.019 1.463 1.463 0 00.018-2.066l-.645-.642c-.48-.48-1.128-1.3-1.128-1.3h11.915c6.58.007 11.93 5.356 11.936 11.936v11.962s-.82-.695-1.299-1.174l-.646-.646a1.463 1.463 0 00-2.066.018 1.463 1.463 0 00-.019 2.066v.002l4.457 4.456s.002 0 .002.002a1.548 1.548 0 00.23.188c-.01-.007.018.008.1.05a1.5 1.5 0 00.16.086l.15.045a1.171 1.171 0 00.127.038c.183.037.372.037.556 0a.964.964 0 00.097-.029.766.766 0 01.062-.019c.04-.01.08-.024.12-.038.04-.02.08-.04.117-.061l.023-.013c.1-.054.137-.074.115-.06h.002a1.51 1.51 0 00.226-.184l.002-.001 4.46-4.46a1.463 1.463 0 00-.019-2.066 1.463 1.463 0 00-2.066-.018l-.642.644c-.48.48-1.3 1.176-1.3 1.176V23.826c-.01-8.225-6.66-14.875-14.885-14.884H34.16s.748-.82 1.228-1.3l.655-.655.01-.009a1.47 1.47 0 00.401-1.433 1.47 1.47 0 00-1.442-1.1v-.002zM3.71 47.649h6.705c.42 0 .761.341.761.762v4.47a5.94 5.94 0 005.944 5.944h4.47a.76.76 0 01.762.761v6.705a.76.76 0 01-.761.761H10.414c-.022 0-.043-.002-.065-.003a8.137 8.137 0 01-7.402-7.463V48.411c0-.421.341-.762.762-.762zm22.35 11.176h37.997a3.008 3.008 0 012.996 2.996v2.235a3.008 3.008 0 01-2.996 2.996H26.06a.761.761 0 01-.761-.761v-6.705c0-.42.34-.761.76-.761z" fill="#989898"/></svg>