<svg width="69" height="69" fill="none" xmlns="http://www.w3.org/2000/svg"><path d="M69 54.12V9.435a4.048 4.048 0 00-4.043-4.043h-4.616v-.809A4.587 4.587 0 0055.759 0a4.587 4.587 0 00-4.582 4.582v.809H39.065v-.809A4.587 4.587 0 0034.483 0 4.587 4.587 0 0029.9 4.582v.809H17.789v-.809A4.587 4.587 0 0013.207 0a4.587 4.587 0 00-4.582 4.582v.809H4.043A4.048 4.048 0 000 9.434v55.523A4.048 4.048 0 004.043 69h50.078c.372 0 .708-.15.952-.394l13.532-13.532c.244-.244.395-.581.395-.953zM53.872 4.583a1.89 1.89 0 011.887-1.887c1.04 0 1.886.847 1.886 1.887v6.603c0 1.04-.846 1.887-1.886 1.887a1.889 1.889 0 01-1.887-1.886V4.581zm-21.276 0c0-1.04.847-1.887 1.887-1.887s1.887.847 1.887 1.887v6.603a1.89 1.89 0 01-1.887 1.887 1.889 1.889 0 01-1.887-1.886V4.581zm-21.276 0c0-1.04.847-1.887 1.887-1.887s1.887.847 1.887 1.887v6.603a1.89 1.89 0 01-1.887 1.887 1.889 1.889 0 01-1.887-1.886V4.581zM2.695 64.957v-2.47h50.539a1.348 1.348 0 000-2.696H2.695V23.18h63.819a1.348 1.348 0 000-2.696H2.695V9.434a1.35 1.35 0 011.348-1.348h4.582v3.1a4.587 4.587 0 004.582 4.582 4.587 4.587 0 004.582-4.583v-3.1h12.112v3.1a4.587 4.587 0 004.582 4.583 4.587 4.587 0 004.582-4.583v-3.1h12.112v3.1a4.587 4.587 0 004.582 4.583 4.587 4.587 0 004.582-4.583v-3.1h4.616a1.35 1.35 0 011.348 1.349v43.339h-9.489a4.048 4.048 0 00-4.043 4.043v9.489H4.043a1.35 1.35 0 01-1.348-1.348zm52.773-.558v-7.583a1.35 1.35 0 011.348-1.348h7.583l-8.93 8.93z" fill="#989898"/><path d="M26.422 47.237v-9.302a2.63 2.63 0 00-2.626-2.626H17.96a1.348 1.348 0 000 2.695h5.768v3.234H17.96a1.348 1.348 0 000 2.696h5.768v3.234H17.96a1.348 1.348 0 000 2.695h5.837a2.63 2.63 0 002.626-2.626zm11.698-9.233a1.348 1.348 0 000-2.695h-5.837a2.63 2.63 0 00-2.627 2.626v9.302a2.63 2.63 0 002.627 2.626h4.558a2.63 2.63 0 002.626-2.626v-3.372a2.63 2.63 0 00-2.626-2.627h-4.489v-3.234h5.768zm-3.262 5.93h1.914v3.234h-4.42v-3.234h2.506zm15.028-2.696h-4.489v-3.234h5.768a1.348 1.348 0 000-2.695h-5.837a2.63 2.63 0 00-2.626 2.626v3.372a2.63 2.63 0 002.626 2.627h4.49v3.234h-5.769a1.348 1.348 0 000 2.695h5.837a2.63 2.63 0 002.627-2.626v-3.373a2.63 2.63 0 00-2.627-2.626z" fill="#989898"/></svg>