<svg width="70" height="70" fill="none" xmlns="http://www.w3.org/2000/svg"><path d="M68.537 0H40.583a1.458 1.458 0 00-1.458 1.458v7.087a7.043 7.043 0 000 13.78v7.088a1.458 1.458 0 001.458 1.458h8.385a1.458 1.458 0 001.458-1.458 4.135 4.135 0 018.268 0 1.458 1.458 0 001.459 1.458h8.384a1.459 1.459 0 001.459-1.458V1.458A1.459 1.459 0 0068.537 0zM67.08 27.955h-5.63a7.044 7.044 0 00-13.78 0h-5.629v-6.927a1.459 1.459 0 00-1.458-1.458 4.134 4.134 0 010-8.269 1.458 1.458 0 001.458-1.458V2.916H67.08v25.039z" fill="#989898"/><path d="M57.353 39.125H50.28a7.044 7.044 0 00-13.78 0h-5.629v-6.927a1.458 1.458 0 00-1.458-1.458 4.134 4.134 0 010-8.268 1.46 1.46 0 001.458-1.459v-8.37a1.458 1.458 0 00-1.458-1.458H1.458A1.458 1.458 0 000 12.643v55.895a1.458 1.458 0 001.458 1.458h55.895a1.458 1.458 0 001.458-1.458V40.583a1.458 1.458 0 00-1.458-1.458zM2.917 14.1h25.038v5.63a7.043 7.043 0 000 13.78v5.628h-6.927a1.458 1.458 0 00-1.458 1.459 4.135 4.135 0 01-8.269 0 1.458 1.458 0 00-1.458-1.459H2.917V14.101zm0 27.955h5.628a7.043 7.043 0 0013.78 0h5.63v6.927a1.458 1.458 0 001.458 1.458 4.135 4.135 0 110 8.268 1.458 1.458 0 00-1.458 1.458v6.912H2.917V42.056zm52.978 25.023H30.87V61.45a7.043 7.043 0 000-13.78v-5.63h6.927a1.458 1.458 0 001.458-1.458 4.133 4.133 0 118.268 0 1.458 1.458 0 001.459 1.458h6.926l-.014 25.038z" fill="#989898"/></svg>