<svg width="65" height="68" fill="none" xmlns="http://www.w3.org/2000/svg"><path d="M34.25 32a1.25 1.25 0 10-2.5 0h2.5zM33 52l-.535 1.13c.338.16.73.16 1.068 0L33 52zm16.468-6.869a1.25 1.25 0 101.064-2.262l-1.064 2.262zM33 36l.532-1.131a1.25 1.25 0 00-1.061-.001L33 36zM2 2V.75C1.31.75.75 1.31.75 2H2zM.75 18.761a1.25 1.25 0 102.5 0H.75zM19.357 3.25a1.25 1.25 0 100-2.5v2.5zM3.25 49.33a1.25 1.25 0 00-2.5 0h2.5zM2 66.091H.75v1.25H2v-1.25zm16.357 1.25a1.25 1.25 0 100-2.5v2.5zM32.995 16l.544-1.125a1.25 1.25 0 00-1.092.002L32.995 16zM50 24.22h1.25a1.25 1.25 0 00-.706-1.125L50 24.221zm0 19.762l.533 1.13a1.25 1.25 0 00.717-1.13H50zm-34-.037h-1.25c0 .483.278.923.715 1.13l.535-1.13zm0-19.651l-.548-1.123a1.25 1.25 0 00-.702 1.123H16zM32.943 32l-.517 1.138c.329.15.707.15 1.036 0L32.943 32zM63.135 2h1.25V.75h-1.25V2zm-1.25 16.761a1.25 1.25 0 002.5 0h-2.5zM46.778.75a1.25 1.25 0 100 2.5V.75zm16.357 65.341v1.25h1.25v-1.25h-1.25zm1.25-16.76a1.25 1.25 0 00-2.5 0h2.5zM46.778 64.84a1.25 1.25 0 000 2.5v-2.5zm-2.903-43.58l-.544 1.125.544-1.125zM22.458 47.4a1.25 1.25 0 00-1.768-1.768l1.768 1.768zm21.444-.543l-.533-1.13.533 1.13zM31.75 32v20h2.5V32h-2.5zm18.782 10.869l-17-8-1.064 2.262 17 8 1.064-2.262zM3.25 18.761V2H.75v16.761h2.5zM2 3.25h17.357V.75H2v2.5zM.75 49.33v16.761h2.5v-16.76H.75zM2 67.341h16.357v-2.5H2v2.5zm46.75-43.12v19.76h2.5v-19.76h-2.5zM33.535 50.87l-17-8.056-1.07 2.26 17 8.055 1.07-2.26zM17.25 43.944v-19.65h-2.5v19.651h2.5zm-1.768-18.513l16.944 7.706 1.035-2.276-16.944-7.706-1.034 2.276zm17.98 7.705l17.057-7.78-1.038-2.274-17.057 7.78 1.038 2.274zm-16.933 11.94l17-7.945-1.058-2.264-17 7.945 1.058 2.264zM64.385 18.76V2h-2.5v16.761h2.5zM63.135.75H46.778v2.5h16.357V.75zm-1.25 48.58v16.761h2.5v-16.76h-2.5zm1.25 15.511H46.778v2.5h16.357v-2.5zM44.759 22.144l19.26-19.26-1.768-1.768-19.26 19.26 1.768 1.768zm-12.308-5.019l10.88 5.26 1.088-2.25-10.88-5.26-1.088 2.25zm10.88 5.26l6.125 2.96 1.088-2.25-6.125-2.96-1.088 2.25zm-26.783 3.032l5.574-2.72-1.096-2.247-5.574 2.72 1.096 2.247zm5.574-2.72l11.422-5.574-1.097-2.246-11.421 5.573 1.096 2.247zm.336-2.007L2.884 1.116 1.116 2.884 20.69 22.458l1.768-1.768zM20.69 45.633L1.116 65.207l1.768 1.768 19.574-19.574-1.768-1.768zm22.328 2.109l19.233 19.233 1.768-1.768-19.233-19.233-1.768 1.768zm6.449-4.89l-6.098 2.876 1.066 2.26 6.098-2.876-1.066-2.26zm-6.098 2.876l-10.902 5.141 1.066 2.262 10.902-5.142-1.066-2.261z" fill="#969696"/></svg>