<svg width="104" height="91" viewBox="0 0 104 91" fill="none" xmlns="http://www.w3.org/2000/svg">
<path fill-rule="evenodd" clip-rule="evenodd" d="M93.3168 90.2476H10.0734C7.36395 90.2076 4.78123 89.0957 2.89259 87.1564C1.00395 85.2171 -0.0361173 82.609 0.00095828 79.9049V79.056H12.3566C13.2519 79.0438 14.136 78.8556 14.9583 78.5019C15.7806 78.1482 16.5248 77.6359 17.1486 76.9948C17.7723 76.3536 18.2632 75.596 18.5931 74.7653C18.9231 73.9345 19.0858 73.047 19.0716 72.1535V24.818C19.0837 23.9262 18.9195 23.0408 18.5885 22.2123C18.2575 21.3837 17.7662 20.6283 17.1425 19.9893C16.5189 19.3503 15.7754 18.8402 14.9542 18.4882C14.133 18.1362 13.2503 17.9492 12.3566 17.9379H0.135116C0.415058 15.4913 1.57855 13.2302 3.40764 11.5775C5.23672 9.92472 7.6063 8.99345 10.0734 8.95776H93.3168C96.0263 8.99777 98.609 10.1096 100.498 12.0489C102.386 13.9882 103.426 16.5964 103.389 19.3005V79.9049C103.41 81.2444 103.165 82.5747 102.67 83.8198C102.174 85.0649 101.438 86.2004 100.503 87.1611C99.567 88.1217 98.4507 88.8887 97.2178 89.4184C95.9848 89.948 94.659 90.2299 93.3168 90.2476ZM64.8677 22.2046C59.1156 22.033 53.443 23.5783 48.5762 26.6431C43.7093 29.7079 39.8696 34.1527 37.5487 39.4082C35.2279 44.6636 34.5316 50.4907 35.5487 56.1435C36.5658 61.7963 39.25 67.0175 43.2579 71.1388C47.2659 75.2601 52.4152 78.094 58.0464 79.2774C63.6777 80.4609 69.5348 79.9399 74.8678 77.7817C80.2008 75.6235 84.767 71.9262 87.9819 67.1628C91.1969 62.3994 92.9142 56.7869 92.9141 51.0437C93.0241 43.5085 90.1316 36.2377 84.8725 30.83C79.6134 25.4222 72.418 22.3199 64.8677 22.2046ZM64.8677 76.1522C59.8598 76.3011 54.9213 74.9551 50.6844 72.2866C46.4475 69.618 43.1051 65.7482 41.0849 61.1727C39.0647 56.5971 38.4587 51.5238 39.3444 46.6025C40.2302 41.6811 42.5674 37.1357 46.0569 33.5478C49.5465 29.96 54.0294 27.4931 58.932 26.4629C63.8346 25.4327 68.9336 25.886 73.5765 27.765C78.2194 29.644 82.1949 32.8631 84.9938 37.0101C87.7928 41.1572 89.288 46.0436 89.288 51.0437C89.3819 57.604 86.8627 63.9331 82.2839 68.641C77.7051 73.3489 71.441 76.0504 64.8677 76.1522ZM65.0915 29.4423C60.8323 29.316 56.6323 30.461 53.029 32.7309C49.4258 35.0008 46.5833 38.2923 44.8654 42.1838C43.1474 46.0754 42.6323 50.3901 43.3858 54.5755C44.1394 58.761 46.1274 62.6269 49.0953 65.6783C52.0632 68.7296 55.8761 70.8275 60.0457 71.7036C64.2153 72.5796 68.5521 72.194 72.5008 70.5959C76.4495 68.9978 79.8304 66.26 82.211 62.733C84.5915 59.206 85.8632 55.0503 85.8633 50.7977C85.9047 48.0343 85.4003 45.2899 84.3788 42.721C83.3573 40.1521 81.8387 37.8093 79.9098 35.8261C77.9809 33.843 75.6794 32.2585 73.1369 31.1632C70.5943 30.0679 67.8605 29.483 65.0915 29.4423ZM18.1314 3.44022C18.1255 2.99431 18.2077 2.55154 18.3732 2.13732C18.5387 1.7231 18.7844 1.34557 19.0962 1.02612C19.4079 0.706667 19.7796 0.451731 20.1902 0.275686C20.6007 0.0996419 21.0421 0.00582861 21.4889 0H34.9189C35.3657 0.00582861 35.807 0.0996419 36.2175 0.275686C36.6281 0.451731 36.9998 0.706667 37.3116 1.02612C37.6233 1.34557 37.869 1.7231 38.0345 2.13732C38.2001 2.55154 38.2823 2.99431 38.2763 3.44022V6.88043H18.1314V3.44022ZM15.3111 28.0573V69.1155C15.3235 69.8901 15.1827 70.6596 14.8968 71.3799C14.611 72.1002 14.1857 72.7572 13.6452 73.3132C13.1046 73.8693 12.4595 74.3135 11.7467 74.6205C11.034 74.9275 10.2677 75.091 9.49146 75.102H0.00095828V22.0705H9.49146C10.2677 22.0815 11.034 22.2453 11.7467 22.5523C12.4595 22.8593 13.1046 23.3035 13.6452 23.8596C14.1857 24.4156 14.611 25.0726 14.8968 25.7929C15.1827 26.5132 15.3235 27.2827 15.3111 28.0573Z" fill="white"/>
</svg>
