<svg width="18" height="17" viewBox="0 0 18 17" fill="none" xmlns="http://www.w3.org/2000/svg">
<path fill-rule="evenodd" clip-rule="evenodd" d="M2.67471 16.2737C2.67471 16.2737 0.0889958 11.1256 0.0023525 8.08937C-0.0197331 7.12139 0.111085 6.92327 0.505227 6.61546C0.899369 6.30765 1.71144 6.54931 1.95268 6.74726C2.19393 6.94521 4.0559 10.9163 4.0559 10.9163C4.0559 10.9163 10.9381 2.72126 15.3433 0.565243C15.6194 0.408604 15.9048 0.269008 16.1979 0.147235C17.2937 -0.248664 17.6215 0.279202 17.6215 0.279202L17.9069 0.609289C17.9069 0.609289 18.2569 1.53339 17.5995 1.95123C14.9702 3.85208 12.6045 6.09376 10.5643 8.61758C6.79621 13.1058 4.8238 16.4497 4.8238 16.4497C4.68971 16.6185 4.5199 16.7553 4.3266 16.8505C4.13329 16.9457 3.92133 16.9967 3.70594 17C2.98221 16.9998 2.67471 16.2737 2.67471 16.2737Z" fill="#070606"/>
</svg>
