<svg width="18" height="17" viewBox="0 0 18 17" fill="none" xmlns="http://www.w3.org/2000/svg">
<path fill-rule="evenodd" clip-rule="evenodd" d="M0.597821 1.10138C0.767168 0.73718 1.13126 0.5 1.5365 0.5H16.4634C16.8685 0.5 17.2328 0.737072 17.4021 1.10145C17.571 1.46479 17.5186 1.89459 17.2652 2.20615L17.2534 2.22058L11.3723 8.44243V13.5899C11.3718 13.9684 11.1677 14.3201 10.8357 14.5041L8.16089 16.3739L8.12857 16.3901C7.98288 16.4634 7.82428 16.5 7.66585 16.5C7.47428 16.5 7.28374 16.4465 7.11667 16.3414C6.81184 16.1494 6.62938 15.8136 6.62934 15.4557C6.62934 15.4557 6.62934 15.4558 6.62934 15.4557L6.62766 8.44248L0.746301 2.22057L0.734489 2.20603C0.481234 1.89438 0.429049 1.46463 0.597821 1.10138ZM14.9582 2.18986H3.02994L8.06032 7.39264L8.07387 7.40931C8.22621 7.59667 8.30846 7.83073 8.30846 8.07105V8.07343L8.27927 14.2244L9.69144 13.2166V7.98482C9.69172 7.74469 9.77417 7.51067 9.92596 7.3239L9.94067 7.30579L14.9582 2.18986Z" fill="#707070"/>
</svg>
