<svg width="24" height="24" viewBox="0 0 24 24" fill="none" xmlns="http://www.w3.org/2000/svg">
<path fill-rule="evenodd" clip-rule="evenodd" d="M0 24C0 23.8459 0.0777499 23.7689 0.0777499 23.6919C0.69975 21.7659 1.3995 19.84 2.0215 17.9141C2.09925 17.76 2.0215 17.6059 1.94375 17.4518C0.855249 15.5259 0.311 13.3689 0.38875 11.1348C0.69975 5.74219 4.665 1.11996 10.1075 0.195511C14.2282 -0.497823 17.727 0.657734 20.6815 3.58515C22.6252 5.51108 23.636 7.82219 23.947 10.5185C24.1802 12.9837 23.636 15.4489 22.4697 17.5289C21.3812 19.3778 19.8262 20.9185 17.8047 21.997C16.2497 22.8444 14.617 23.3067 12.8287 23.3837C10.6517 23.4607 8.63024 23.0756 6.76425 22.0741C6.60875 21.997 6.45325 21.997 6.29775 21.997C4.27625 22.6133 2.25475 23.2296 0.311 23.923C0.23325 23.923 0.1555 24 0 24ZM3.03225 20.9955C3.18775 20.9185 3.2655 20.9185 3.421 20.9185C4.43175 20.6104 5.52025 20.2252 6.531 19.917C6.68649 19.84 6.842 19.84 6.9975 19.9941C8.94124 21.2267 11.1182 21.6889 13.4507 21.3807C15.55 21.1496 17.416 20.3022 18.8932 18.9155C21.459 16.5274 22.5475 13.5229 21.9255 9.97923C21.459 7.28293 19.8262 4.89478 17.4937 3.43107C16.0942 2.50663 14.4615 1.96737 12.6732 1.89033C10.574 1.81329 8.63024 2.27552 6.842 3.50811C3.8875 5.43404 2.41025 8.20738 2.3325 11.6741C2.3325 13.677 2.87675 15.5259 4.043 17.2207C4.1985 17.3748 4.1985 17.6059 4.12075 17.76C3.8875 18.4533 3.65425 19.2237 3.421 19.917C3.34325 20.2252 3.18775 20.6104 3.03225 20.9955Z" fill="white"/>
<path fill-rule="evenodd" clip-rule="evenodd" d="M6.53095 9.13137C6.53095 8.12989 6.9197 7.35952 7.61945 6.74322C7.8527 6.51211 8.1637 6.43507 8.4747 6.43507C9.32995 6.43507 9.32995 6.43507 9.64095 7.20544C9.8742 7.82174 10.1852 8.43804 10.4185 9.05433C10.4962 9.28544 10.4962 9.43952 10.4185 9.59359C10.1852 9.90174 9.95195 10.2099 9.7187 10.518C9.5632 10.7492 9.48545 10.9032 9.64095 11.2114C10.574 12.7521 11.818 13.8306 13.5285 14.524C13.7617 14.601 13.9172 14.601 14.0727 14.3699C14.3837 13.9847 14.6169 13.6766 14.9279 13.3684C15.1612 13.0603 15.2389 12.9832 15.5499 13.1373C16.3274 13.5225 17.1827 13.9077 17.9602 14.2929C18.1934 14.3699 18.1934 14.601 18.1934 14.8321C18.1157 16.0647 17.5714 16.681 16.0942 17.1432C15.3944 17.3743 14.6947 17.1432 13.9949 16.9892C11.3515 16.2188 9.4077 14.678 7.8527 12.444C7.30845 11.6736 6.84195 10.9803 6.6087 10.0558C6.6087 9.67063 6.6087 9.36248 6.53095 9.13137Z" fill="white"/>
</svg>
