<svg width="28" height="26" viewBox="0 0 28 26" fill="none" xmlns="http://www.w3.org/2000/svg">
<mask id="mask0_309_2493" style="mask-type:alpha" maskUnits="userSpaceOnUse" x="0" y="0" width="28" height="26">
<rect y="0.394531" width="27.8475" height="24.894" fill="#C4C4C4"/>
</mask>
<g mask="url(#mask0_309_2493)">
<g filter="url(#filter0_d_309_2493)">
<mask id="path-2-outside-1_309_2493" maskUnits="userSpaceOnUse" x="3.34766" y="1.08203" width="30" height="30" fill="black">
<rect fill="white" x="3.34766" y="1.08203" width="30" height="30"/>
<path d="M21.9244 19.4501L22.5833 18.7897L20.7804 16.9768C20.5836 17.2228 20.3731 17.4596 20.1534 17.6828L21.9244 19.4501Z"/>
<path d="M20.1536 17.6874C19.9568 17.8878 19.7509 18.0791 19.5358 18.2613L21.3205 20.0514L21.9244 19.4501L20.1536 17.6874Z"/>
<path d="M13.5685 18.9946C9.27609 18.9946 5.79827 15.5328 5.79827 11.2603C5.79827 9.09212 6.69518 7.13349 8.13665 5.73056L7.11161 4.71025C5.40931 6.37736 4.34766 8.69584 4.34766 11.2603C4.34766 16.3299 8.47528 20.4385 13.5685 20.4385C15.8428 20.4385 17.9249 19.6186 19.5357 18.2567L18.5106 17.2273C17.1652 18.3341 15.4446 18.9946 13.5685 18.9946Z"/>
<path d="M13.5683 3.53051C17.8606 3.53051 21.3385 6.99227 21.3385 11.2648C21.3385 13.0276 20.7436 14.6492 19.7506 15.9473L20.7802 16.9813C22.0386 15.4144 22.7937 13.4239 22.7937 11.2603C22.7937 6.1906 18.666 2.08203 13.5683 2.08203C11.0514 2.08203 8.7773 3.08413 7.11161 4.71025L8.14105 5.7351C9.54133 4.36862 11.4587 3.53051 13.5683 3.53051Z"/>
<path d="M19.1237 16.6671L20.1534 17.6919C20.373 17.4687 20.5835 17.2319 20.7803 16.9859L19.7507 15.9519C19.5585 16.1979 19.348 16.4393 19.1237 16.6671Z"/>
<path d="M19.1237 16.6671C18.927 16.8675 18.7255 17.0542 18.5059 17.2318L19.5309 18.2613C19.746 18.0791 19.9519 17.8878 20.1487 17.6873"/>
<path d="M28.4544 25.95L31.1726 28.6602C31.6211 28.2138 31.8499 27.608 31.8041 26.9703C31.7675 26.4191 31.5067 25.909 31.1131 25.5218L23.4665 17.9105L22.5787 18.7941L28.4453 24.6837C28.7976 25.0299 28.7976 25.5992 28.4544 25.95Z"/>
<path d="M28.4544 25.95C28.1066 26.2961 27.5392 26.2962 27.1959 25.95L21.3205 20.0514L20.3776 20.9897L28.0196 28.5964C28.4132 28.9836 28.9257 29.2478 29.4748 29.2842C30.1155 29.3252 30.7241 29.0975 31.1726 28.6557L28.4544 25.95Z"/>
<path d="M28.4544 25.95L21.9244 19.4501L21.3205 20.0514L27.1914 25.95C27.5392 26.2962 28.1066 26.2961 28.4544 25.95Z"/>
<path d="M28.4544 25.95C28.7976 25.5992 28.7975 25.0299 28.4543 24.6838L22.5831 18.7942L21.9242 19.4547L28.4544 25.95Z"/>
<path d="M13.2488 8.43996H14.0117V14.0348H13.2488V8.43996Z"/>
<path d="M10.8328 11.6189V10.8559H16.4277V11.6189H10.8328Z"/>
</mask>
<path d="M21.9244 19.4501L22.5833 18.7897L20.7804 16.9768C20.5836 17.2228 20.3731 17.4596 20.1534 17.6828L21.9244 19.4501Z" fill="white"/>
<path d="M20.1536 17.6874C19.9568 17.8878 19.7509 18.0791 19.5358 18.2613L21.3205 20.0514L21.9244 19.4501L20.1536 17.6874Z" fill="white"/>
<path d="M13.5685 18.9946C9.27609 18.9946 5.79827 15.5328 5.79827 11.2603C5.79827 9.09212 6.69518 7.13349 8.13665 5.73056L7.11161 4.71025C5.40931 6.37736 4.34766 8.69584 4.34766 11.2603C4.34766 16.3299 8.47528 20.4385 13.5685 20.4385C15.8428 20.4385 17.9249 19.6186 19.5357 18.2567L18.5106 17.2273C17.1652 18.3341 15.4446 18.9946 13.5685 18.9946Z" fill="white"/>
<path d="M13.5683 3.53051C17.8606 3.53051 21.3385 6.99227 21.3385 11.2648C21.3385 13.0276 20.7436 14.6492 19.7506 15.9473L20.7802 16.9813C22.0386 15.4144 22.7937 13.4239 22.7937 11.2603C22.7937 6.1906 18.666 2.08203 13.5683 2.08203C11.0514 2.08203 8.7773 3.08413 7.11161 4.71025L8.14105 5.7351C9.54133 4.36862 11.4587 3.53051 13.5683 3.53051Z" fill="white"/>
<path d="M19.1237 16.6671L20.1534 17.6919C20.373 17.4687 20.5835 17.2319 20.7803 16.9859L19.7507 15.9519C19.5585 16.1979 19.348 16.4393 19.1237 16.6671Z" fill="white"/>
<path d="M19.1237 16.6671C18.927 16.8675 18.7255 17.0542 18.5059 17.2318L19.5309 18.2613C19.746 18.0791 19.9519 17.8878 20.1487 17.6873" fill="white"/>
<path d="M28.4544 25.95L31.1726 28.6602C31.6211 28.2138 31.8499 27.608 31.8041 26.9703C31.7675 26.4191 31.5067 25.909 31.1131 25.5218L23.4665 17.9105L22.5787 18.7941L28.4453 24.6837C28.7976 25.0299 28.7976 25.5992 28.4544 25.95Z" fill="white"/>
<path d="M28.4544 25.95C28.1066 26.2961 27.5392 26.2962 27.1959 25.95L21.3205 20.0514L20.3776 20.9897L28.0196 28.5964C28.4132 28.9836 28.9257 29.2478 29.4748 29.2842C30.1155 29.3252 30.7241 29.0975 31.1726 28.6557L28.4544 25.95Z" fill="white"/>
<path d="M28.4544 25.95L21.9244 19.4501L21.3205 20.0514L27.1914 25.95C27.5392 26.2962 28.1066 26.2961 28.4544 25.95Z" fill="white"/>
<path d="M28.4544 25.95C28.7976 25.5992 28.7975 25.0299 28.4543 24.6838L22.5831 18.7942L21.9242 19.4547L28.4544 25.95Z" fill="white"/>
<path d="M13.2488 8.43996H14.0117V14.0348H13.2488V8.43996Z" fill="white"/>
<path d="M10.8328 11.6189V10.8559H16.4277V11.6189H10.8328Z" fill="white"/>
<path d="M21.6732 20.4057L22.2771 19.8045L21.5716 19.0958L20.9677 19.697L21.6732 20.4057ZM21.9244 19.4501L21.2189 20.1588L21.2189 20.1589L21.9244 19.4501ZM22.5833 18.7897L23.2913 19.496L23.9948 18.7908L23.2924 18.0845L22.5833 18.7897ZM20.7804 16.9768L21.4894 16.2716L20.6994 15.4772L19.9995 16.3521L20.7804 16.9768ZM20.1534 17.6828L19.4407 16.9814L18.7441 17.6892L19.4471 18.3906L20.1534 17.6828ZM20.1536 17.6874L20.859 16.9786L20.1454 16.2683L19.44 16.9868L20.1536 17.6874ZM19.5358 18.2613L18.8894 17.4983L18.0619 18.1993L18.8276 18.9673L19.5358 18.2613ZM21.3205 20.0514L22.0289 19.3457L22.0286 19.3453L21.3205 20.0514ZM8.13665 5.73056L8.83411 6.44718L9.56219 5.73857L8.84212 5.02182L8.13665 5.73056ZM7.11161 4.71025L6.41305 3.99469L6.41192 3.9958L7.11161 4.71025ZM19.5357 18.2567L20.1813 19.0203L21.0098 18.3199L20.2443 17.5511L19.5357 18.2567ZM18.5106 17.2273L19.2192 16.5217L18.5776 15.8773L17.8753 16.455L18.5106 17.2273ZM19.7506 15.9473L18.9563 15.3397L18.4254 16.0338L19.042 16.6529L19.7506 15.9473ZM20.7802 16.9813L20.0716 17.6869L20.8601 18.4788L21.5599 17.6075L20.7802 16.9813ZM8.14105 5.7351L7.43553 6.44379L8.13405 7.13919L8.83947 6.45079L8.14105 5.7351ZM19.1237 16.6671L18.4111 15.9655L18.4102 15.9665L19.1237 16.6671ZM20.1534 17.6919L19.4479 18.4007L20.1607 19.1102L20.8661 18.3934L20.1534 17.6919ZM20.7803 16.9859L21.5612 17.6106L22.1191 16.9132L21.4889 16.2803L20.7803 16.9859ZM19.7507 15.9519L20.4593 15.2463L19.6601 14.4437L18.9627 15.3362L19.7507 15.9519ZM18.5059 17.2318L17.877 16.4543L17.0148 17.1516L17.7973 17.9374L18.5059 17.2318ZM19.5309 18.2613L18.8223 18.9669L19.4733 19.6206L20.1773 19.0243L19.5309 18.2613ZM31.1726 28.6602L30.4665 29.3683L31.172 30.0717L31.8781 29.3689L31.1726 28.6602ZM31.8041 26.9703L30.8063 27.0366L30.8067 27.0419L31.8041 26.9703ZM31.1131 25.5218L30.4076 26.2306L30.4118 26.2347L31.1131 25.5218ZM23.4665 17.9105L24.172 17.2017L23.4665 16.4995L22.761 17.2017L23.4665 17.9105ZM22.5787 18.7941L21.8733 18.0854L21.1643 18.7911L21.8702 19.4999L22.5787 18.7941ZM28.4453 24.6837L27.7367 25.3895L27.7444 25.397L28.4453 24.6837ZM27.1959 25.95L27.9061 25.246L27.9044 25.2443L27.1959 25.95ZM20.3776 20.9897L19.6722 20.2808L18.96 20.9896L19.6721 21.6984L20.3776 20.9897ZM28.0196 28.5964L27.3142 29.3052L27.3183 29.3093L28.0196 28.5964ZM29.4748 29.2842L29.4086 30.2821L29.411 30.2822L29.4748 29.2842ZM31.1726 28.6557L31.8744 29.368L32.5937 28.6593L31.878 27.9469L31.1726 28.6557ZM27.1914 25.95L26.4827 26.6554L26.486 26.6587L27.1914 25.95ZM28.4543 24.6838L29.1644 23.9797L29.1625 23.9778L28.4543 24.6838ZM22.5831 18.7942L23.2914 18.0882L22.5834 17.3781L21.8752 18.0879L22.5831 18.7942ZM21.9242 19.4547L21.2163 18.7484L20.5089 19.4574L21.219 20.1637L21.9242 19.4547ZM13.2488 8.43996V7.43996H12.2488V8.43996H13.2488ZM14.0117 8.43996H15.0117V7.43996H14.0117V8.43996ZM14.0117 14.0348V15.0348H15.0117V14.0348H14.0117ZM13.2488 14.0348H12.2488V15.0348H13.2488V14.0348ZM10.8328 11.6189H9.83281V12.6189H10.8328V11.6189ZM10.8328 10.8559V9.85592H9.83281V10.8559H10.8328ZM16.4277 10.8559H17.4277V9.85592H16.4277V10.8559ZM16.4277 11.6189V12.6189H17.4277V11.6189H16.4277ZM22.6323 20.1564L23.2913 19.496L21.8754 18.0834L21.2165 18.7438L22.6323 20.1564ZM23.2924 18.0845L21.4894 16.2716L20.0713 17.682L21.8743 19.4948L23.2924 18.0845ZM19.9995 16.3521C19.8242 16.5712 19.6365 16.7824 19.4407 16.9814L20.8662 18.3842C21.1097 18.1368 21.3429 17.8743 21.5612 17.6015L19.9995 16.3521ZM19.4471 18.3906L21.218 20.158L22.6308 18.7423L20.8598 16.975L19.4471 18.3906ZM19.44 16.9868C19.2647 17.1653 19.0812 17.3358 18.8894 17.4983L20.1822 19.0243C20.4205 18.8224 20.6488 18.6103 20.8671 18.3879L19.44 16.9868ZM18.8276 18.9673L20.6123 20.7574L22.0286 19.3453L20.244 17.5552L18.8276 18.9673ZM22.6299 18.7414L20.859 16.9786L19.4481 18.3961L21.2189 20.1588L22.6299 18.7414ZM13.5685 17.9946C9.82401 17.9946 6.79827 14.9762 6.79827 11.2603H4.79827C4.79827 16.0895 8.72817 19.9946 13.5685 19.9946V17.9946ZM6.79827 11.2603C6.79827 9.37399 7.57733 7.67036 8.83411 6.44718L7.43919 5.01394C5.81304 6.59661 4.79827 8.81024 4.79827 11.2603H6.79827ZM8.84212 5.02182L7.81708 4.00151L6.40614 5.41899L7.43118 6.4393L8.84212 5.02182ZM6.41192 3.9958C4.5273 5.84146 3.34766 8.41365 3.34766 11.2603H5.34766C5.34766 8.97802 6.29131 6.91326 7.81129 5.4247L6.41192 3.9958ZM3.34766 11.2603C3.34766 16.8866 7.92736 21.4385 13.5685 21.4385V19.4385C9.0232 19.4385 5.34766 15.7733 5.34766 11.2603H3.34766ZM13.5685 21.4385C16.0876 21.4385 18.3966 20.5293 20.1813 19.0203L18.89 17.4931C17.4532 18.7079 15.5979 19.4385 13.5685 19.4385V21.4385ZM20.2443 17.5511L19.2192 16.5217L17.802 17.9329L18.827 18.9623L20.2443 17.5511ZM17.8753 16.455C16.7032 17.4193 15.2055 17.9946 13.5685 17.9946V19.9946C15.6837 19.9946 17.6273 19.2489 19.1459 17.9995L17.8753 16.455ZM13.5683 4.53051C17.3127 4.53051 20.3385 7.54891 20.3385 11.2648H22.3385C22.3385 6.43563 18.4086 2.53051 13.5683 2.53051V4.53051ZM20.3385 11.2648C20.3385 12.7984 19.8218 14.2083 18.9563 15.3397L20.5448 16.5549C21.6654 15.09 22.3385 13.2567 22.3385 11.2648H20.3385ZM19.042 16.6529L20.0716 17.6869L21.4888 16.2757L20.4592 15.2417L19.042 16.6529ZM21.5599 17.6075C22.9552 15.8701 23.7937 13.6605 23.7937 11.2603H21.7937C21.7937 13.1872 21.122 14.9587 20.0005 16.3551L21.5599 17.6075ZM23.7937 11.2603C23.7937 5.63364 19.2136 1.08203 13.5683 1.08203V3.08203C18.1184 3.08203 21.7937 6.74756 21.7937 11.2603H23.7937ZM13.5683 1.08203C10.7799 1.08203 8.25788 2.19369 6.41305 3.99469L7.81016 5.42581C9.29672 3.97457 11.323 3.08203 13.5683 3.08203V1.08203ZM6.40608 5.41894L7.43553 6.44379L8.84658 5.02642L7.81713 4.00156L6.40608 5.41894ZM8.83947 6.45079C10.0594 5.26034 11.7285 4.53051 13.5683 4.53051V2.53051C11.1889 2.53051 9.02331 3.47689 7.44264 5.01941L8.83947 6.45079ZM18.4183 17.3758L19.4479 18.4007L20.8588 16.9832L19.8292 15.9583L18.4183 17.3758ZM20.8661 18.3934C21.1096 18.1459 21.3429 17.8835 21.5612 17.6106L19.9994 16.3612C19.8242 16.5803 19.6364 16.7915 19.4406 16.9905L20.8661 18.3934ZM21.4889 16.2803L20.4593 15.2463L19.0421 16.6575L20.0717 17.6915L21.4889 16.2803ZM18.9627 15.3362C18.7928 15.5536 18.6074 15.7662 18.4111 15.9655L19.8363 17.3686C20.0886 17.1125 20.3241 16.8422 20.5386 16.5676L18.9627 15.3362ZM18.4102 15.9665C18.2353 16.1446 18.0621 16.3047 17.877 16.4543L19.1347 18.0094C19.389 17.8037 19.6186 17.5904 19.8373 17.3676L18.4102 15.9665ZM17.7973 17.9374L18.8223 18.9669L20.2395 17.5557L19.2145 16.5262L17.7973 17.9374ZM20.1773 19.0243C20.4156 18.8224 20.644 18.6102 20.8623 18.3879L19.4351 16.9868C19.2599 17.1653 19.0764 17.3357 18.8845 17.4982L20.1773 19.0243ZM27.7483 26.6581L30.4665 29.3683L31.8787 27.952L29.1605 25.2418L27.7483 26.6581ZM31.8781 29.3689C32.5322 28.7178 32.8682 27.8273 32.8015 26.8987L30.8067 27.0419C30.8315 27.3886 30.7099 27.7098 30.4671 27.9514L31.8781 29.3689ZM32.8019 26.904C32.747 26.0773 32.3592 25.3449 31.8144 24.809L30.4118 26.2347C30.6541 26.473 30.788 26.7609 30.8063 27.0366L32.8019 26.904ZM22.761 17.2017L21.8733 18.0854L23.2842 19.5029L24.172 18.6192L22.761 17.2017ZM21.8702 19.4999L27.7368 25.3894L29.1537 23.978L23.2872 18.0884L21.8702 19.4999ZM27.7444 25.397C27.7205 25.3736 27.7108 25.343 27.7107 25.3201C27.7106 25.2983 27.7191 25.2716 27.7397 25.2506L29.1691 26.6494C29.8916 25.911 29.8984 24.7094 29.1461 23.9704L27.7444 25.397ZM27.7489 25.2412C27.7713 25.219 27.8 25.2096 27.8234 25.2096C27.8469 25.2096 27.8796 25.2193 27.9061 25.246L26.4858 26.6541C27.2228 27.3975 28.4246 27.3906 29.1599 26.6587L27.7489 25.2412ZM27.9044 25.2443L22.0289 19.3457L20.612 20.7571L26.4874 26.6557L27.9044 25.2443ZM20.6151 19.3425L19.6722 20.2808L21.083 21.6985L22.0258 20.7602L20.6151 19.3425ZM19.6721 21.6984L27.3142 29.3052L28.7251 27.8877L21.0831 20.2809L19.6721 21.6984ZM27.3183 29.3093C27.8522 29.8345 28.5811 30.2271 29.4086 30.282L29.541 28.2864C29.2703 28.2685 28.9741 28.1327 28.721 27.8836L27.3183 29.3093ZM29.411 30.2822C30.3337 30.3412 31.2215 30.0113 31.8744 29.368L30.4707 27.9433C30.2267 28.1837 29.8973 28.3092 29.5387 28.2863L29.411 30.2822ZM31.878 27.9469L29.1599 25.2412L27.7489 26.6587L30.4671 29.3644L31.878 27.9469ZM29.1599 25.2412L22.6298 18.7414L21.2189 20.1589L27.7489 26.6587L29.1599 25.2412ZM20.6117 20.7568L26.4827 26.6554L27.9002 25.2445L22.0292 19.3459L20.6117 20.7568ZM26.486 26.6587C27.2239 27.3933 28.422 27.3932 29.1599 26.6587L27.7489 25.2412C27.7715 25.2188 27.8004 25.2096 27.8229 25.2096C27.8455 25.2096 27.8743 25.2188 27.8969 25.2412L26.486 26.6587ZM29.1691 26.6494C29.8904 25.9123 29.8964 24.718 29.1644 23.9797L27.7441 25.3878C27.7191 25.3626 27.7117 25.3336 27.7117 25.3153C27.7117 25.2971 27.7189 25.2718 27.7397 25.2506L29.1691 26.6494ZM29.1625 23.9778L23.2914 18.0882L21.8749 19.5002L27.746 25.3898L29.1625 23.9778ZM21.8752 18.0879L21.2163 18.7484L22.6321 20.161L23.2911 19.5005L21.8752 18.0879ZM21.219 20.1637L27.7492 26.659L29.1596 25.241L22.6294 18.7457L21.219 20.1637ZM13.2488 9.43996H14.0117V7.43996H13.2488V9.43996ZM13.0117 8.43996V14.0348H15.0117V8.43996H13.0117ZM14.0117 13.0348H13.2488V15.0348H14.0117V13.0348ZM14.2488 14.0348V8.43996H12.2488V14.0348H14.2488ZM11.8328 11.6189V10.8559H9.83281V11.6189H11.8328ZM10.8328 11.8559H16.4277V9.85592H10.8328V11.8559ZM15.4277 10.8559V11.6189H17.4277V10.8559H15.4277ZM16.4277 10.6189H10.8328V12.6189H16.4277V10.6189ZM31.8186 24.8131L24.172 17.2017L22.761 18.6192L30.4076 26.2305L31.8186 24.8131Z" fill="white" mask="url(#path-2-outside-1_309_2493)"/>
<path d="M21.7963 19.5144L22.4553 18.8539L20.6523 17.041C20.4555 17.287 20.245 17.5238 20.0254 17.747L21.7963 19.5144Z" fill="#DBDBDB"/>
<path d="M20.025 17.752C19.8282 17.9524 19.6223 18.1437 19.4072 18.3259L21.1919 20.116L21.7959 19.5147L20.025 17.752Z" fill="#C1CACB"/>
<path d="M13.4405 19.0597C9.14816 19.0597 5.67034 15.598 5.67034 11.3254C5.67034 9.15726 6.56725 7.19863 8.00872 5.7957L6.98368 4.77539C5.28138 6.4425 4.21973 8.76098 4.21973 11.3254C4.21973 16.3951 8.34735 20.5036 13.4405 20.5036C15.7148 20.5036 17.7969 19.6838 19.4077 18.3218L18.3827 17.2924C17.0373 18.3993 15.3167 19.0597 13.4405 19.0597Z" fill="#363C3C"/>
<path d="M13.4402 3.59496C17.7326 3.59496 21.2104 7.05673 21.2104 11.3293C21.2104 13.092 20.6155 14.7136 19.6225 16.0118L20.6521 17.0457C21.9106 15.4788 22.6656 13.4883 22.6656 11.3247C22.6656 6.25505 18.538 2.14648 13.4402 2.14648C10.9234 2.14648 8.64909 3.14857 6.9834 4.77469L8.01302 5.79956C9.4133 4.43307 11.3307 3.59496 13.4402 3.59496Z" fill="#363C3C"/>
<path d="M18.9951 16.7308L20.0247 17.7556C20.2444 17.5324 20.4549 17.2956 20.6517 17.0496L19.622 16.0156C19.4298 16.2616 19.2193 16.503 18.9951 16.7308Z" fill="#363C3C"/>
<path d="M18.9957 16.7305C18.7989 16.9309 18.5976 17.1176 18.3779 17.2953L19.403 18.3247C19.618 18.1425 19.824 17.9512 20.0207 17.7508" fill="#363C3C"/>
<path d="M19.5681 8.91992C17.4402 3.53141 11.5508 4.96622 11.5508 4.96622C16.2596 5.01177 19.5681 8.91992 19.5681 8.91992Z" fill="white"/>
<path d="M28.3269 26.0141L31.045 28.7243C31.4935 28.2779 31.7223 27.6721 31.6765 27.0344C31.6399 26.4833 31.3791 25.9731 30.9856 25.5859L23.3435 17.9792L23.3389 17.9746L22.4512 18.8583L28.3177 24.7478C28.6701 25.094 28.6701 25.6634 28.3269 26.0141Z" fill="#686D6D"/>
<path d="M28.3268 26.0139C27.979 26.3601 27.4116 26.3601 27.0684 26.0139L21.1927 20.1152L20.25 21.0536L27.8921 28.6603C28.2856 29.0475 28.7981 29.3117 29.3472 29.3481C29.9879 29.3891 30.5965 29.1614 31.045 28.7195L28.3268 26.0139Z" fill="#363C3C"/>
<path d="M28.3265 26.0155L21.7964 19.5156L21.1924 20.1169L27.0635 26.0155C27.4113 26.3617 27.9787 26.3617 28.3265 26.0155Z" fill="#686D6D"/>
<path d="M28.326 26.0152C28.6692 25.6645 28.6692 25.0951 28.326 24.7489L22.4549 18.8594L21.7959 19.5198L28.326 26.0152Z" fill="#363C3C"/>
<path d="M13.121 8.50391H13.884V14.0988H13.121V8.50391Z" fill="#363C3C"/>
<path d="M10.7051 11.6828V10.9199H16.2999V11.6828H10.7051Z" fill="#363C3C"/>
</g>
</g>
<defs>
<filter id="filter0_d_309_2493" x="-0.652344" y="1.08203" width="37.4619" height="37.207" filterUnits="userSpaceOnUse" color-interpolation-filters="sRGB">
<feFlood flood-opacity="0" result="BackgroundImageFix"/>
<feColorMatrix in="SourceAlpha" type="matrix" values="0 0 0 0 0 0 0 0 0 0 0 0 0 0 0 0 0 0 127 0" result="hardAlpha"/>
<feOffset dy="4"/>
<feGaussianBlur stdDeviation="2"/>
<feColorMatrix type="matrix" values="0 0 0 0 0 0 0 0 0 0 0 0 0 0 0 0 0 0 0.25 0"/>
<feBlend mode="normal" in2="BackgroundImageFix" result="effect1_dropShadow_309_2493"/>
<feBlend mode="normal" in="SourceGraphic" in2="effect1_dropShadow_309_2493" result="shape"/>
</filter>
</defs>
</svg>
