<svg width="51" height="46" viewBox="0 0 51 46" fill="none" xmlns="http://www.w3.org/2000/svg">
<mask id="mask0_203_292" style="mask-type:alpha" maskUnits="userSpaceOnUse" x="0" y="0" width="51" height="46">
<rect x="0.186523" width="50.661" height="45.2879" fill="#C4C4C4"/>
</mask>
<g mask="url(#mask0_203_292)">
<g filter="url(#filter0_d_203_292)">
<mask id="path-2-outside-1_203_292" maskUnits="userSpaceOnUse" x="6.09375" y="1.07031" width="54" height="54" fill="black">
<rect fill="white" x="6.09375" y="1.07031" width="54" height="54"/>
<path d="M40.0698 34.6668L41.2686 33.4653L37.9886 30.1673C37.6306 30.6147 37.2477 31.0456 36.8481 31.4517L40.0698 34.6668Z"/>
<path d="M36.8483 31.4599C36.4903 31.8246 36.1157 32.1726 35.7244 32.504L38.9711 35.7606L40.0698 34.6668L36.8483 31.4599Z"/>
<path d="M24.8685 33.8381C17.0597 33.8381 10.7328 27.5404 10.7328 19.7676C10.7328 15.8233 12.3644 12.2601 14.9868 9.70782L13.122 7.85164C10.0251 10.8845 8.09375 15.1023 8.09375 19.7676C8.09375 28.9905 15.6028 36.4649 24.8685 36.4649C29.006 36.4649 32.7938 34.9734 35.7242 32.4957L33.8594 30.6229C31.4119 32.6366 28.2817 33.8381 24.8685 33.8381Z"/>
<path d="M24.8682 5.70542C32.6769 5.70542 39.0039 12.0032 39.0039 19.7759C39.0039 22.9828 37.9217 25.9328 36.1151 28.2944L37.9883 30.1755C40.2776 27.3249 41.6512 23.7037 41.6512 19.7676C41.6512 10.5447 34.1421 3.07031 24.8682 3.07031C20.2895 3.07031 16.1523 4.89336 13.122 7.85164L14.9948 9.71609C17.5422 7.23014 21.0304 5.70542 24.8682 5.70542Z"/>
<path d="M34.9748 29.6038L36.8479 31.4683C37.2475 31.0622 37.6305 30.6313 37.9884 30.1839L36.1153 28.3028C35.7657 28.7503 35.3827 29.1895 34.9748 29.6038Z"/>
<path d="M34.9748 29.6038C34.6168 29.9684 34.2504 30.3081 33.8508 30.6313L35.7156 32.504C36.1068 32.1726 36.4815 31.8245 36.8394 31.4599"/>
<path d="M51.9494 46.4915L56.8944 51.422C57.7103 50.6099 58.1265 49.5078 58.0433 48.3477C57.9767 47.345 57.5021 46.417 56.7862 45.7126L42.8752 31.8659L41.2602 33.4734L51.9328 44.1879C52.5738 44.8177 52.5738 45.8535 51.9494 46.4915Z"/>
<path d="M51.9494 46.4915C51.3167 47.1213 50.2844 47.1214 49.66 46.4916L38.9711 35.7606L37.2558 37.4676L51.1585 51.3061C51.8744 52.0104 52.8068 52.491 53.8058 52.5573C54.9713 52.6319 56.0785 52.2176 56.8944 51.4138L51.9494 46.4915Z"/>
<path d="M51.9494 46.4915L40.0698 34.6668L38.9711 35.7606L49.6518 46.4916C50.2845 47.1213 51.3167 47.1213 51.9494 46.4915Z"/>
<path d="M51.9494 46.4915C52.5738 45.8535 52.5735 44.8178 51.9491 44.188L41.2683 33.4736L40.0695 34.6751L51.9494 46.4915Z"/>
<path d="M24.2869 14.6368H25.6748V24.8151H24.2869V14.6368Z"/>
<path d="M19.8917 20.42V19.032H30.07V20.42H19.8917Z"/>
</mask>
<path d="M40.0698 34.6668L41.2686 33.4653L37.9886 30.1673C37.6306 30.6147 37.2477 31.0456 36.8481 31.4517L40.0698 34.6668Z" fill="white"/>
<path d="M36.8483 31.4599C36.4903 31.8246 36.1157 32.1726 35.7244 32.504L38.9711 35.7606L40.0698 34.6668L36.8483 31.4599Z" fill="white"/>
<path d="M24.8685 33.8381C17.0597 33.8381 10.7328 27.5404 10.7328 19.7676C10.7328 15.8233 12.3644 12.2601 14.9868 9.70782L13.122 7.85164C10.0251 10.8845 8.09375 15.1023 8.09375 19.7676C8.09375 28.9905 15.6028 36.4649 24.8685 36.4649C29.006 36.4649 32.7938 34.9734 35.7242 32.4957L33.8594 30.6229C31.4119 32.6366 28.2817 33.8381 24.8685 33.8381Z" fill="white"/>
<path d="M24.8682 5.70542C32.6769 5.70542 39.0039 12.0032 39.0039 19.7759C39.0039 22.9828 37.9217 25.9328 36.1151 28.2944L37.9883 30.1755C40.2776 27.3249 41.6512 23.7037 41.6512 19.7676C41.6512 10.5447 34.1421 3.07031 24.8682 3.07031C20.2895 3.07031 16.1523 4.89336 13.122 7.85164L14.9948 9.71609C17.5422 7.23014 21.0304 5.70542 24.8682 5.70542Z" fill="white"/>
<path d="M34.9748 29.6038L36.8479 31.4683C37.2475 31.0622 37.6305 30.6313 37.9884 30.1839L36.1153 28.3028C35.7657 28.7503 35.3827 29.1895 34.9748 29.6038Z" fill="white"/>
<path d="M34.9748 29.6038C34.6168 29.9684 34.2504 30.3081 33.8508 30.6313L35.7156 32.504C36.1068 32.1726 36.4815 31.8245 36.8394 31.4599" fill="white"/>
<path d="M51.9494 46.4915L56.8944 51.422C57.7103 50.6099 58.1265 49.5078 58.0433 48.3477C57.9767 47.345 57.5021 46.417 56.7862 45.7126L42.8752 31.8659L41.2602 33.4734L51.9328 44.1879C52.5738 44.8177 52.5738 45.8535 51.9494 46.4915Z" fill="white"/>
<path d="M51.9494 46.4915C51.3167 47.1213 50.2844 47.1214 49.66 46.4916L38.9711 35.7606L37.2558 37.4676L51.1585 51.3061C51.8744 52.0104 52.8068 52.491 53.8058 52.5573C54.9713 52.6319 56.0785 52.2176 56.8944 51.4138L51.9494 46.4915Z" fill="white"/>
<path d="M51.9494 46.4915L40.0698 34.6668L38.9711 35.7606L49.6518 46.4916C50.2845 47.1213 51.3167 47.1213 51.9494 46.4915Z" fill="white"/>
<path d="M51.9494 46.4915C52.5738 45.8535 52.5735 44.8178 51.9491 44.188L41.2683 33.4736L40.0695 34.6751L51.9494 46.4915Z" fill="white"/>
<path d="M24.2869 14.6368H25.6748V24.8151H24.2869V14.6368Z" fill="white"/>
<path d="M19.8917 20.42V19.032H30.07V20.42H19.8917Z" fill="white"/>
<path d="M39.6767 36.4693L40.7753 35.3755L39.3643 33.9582L38.2656 35.052L39.6767 36.4693ZM40.0698 34.6668L38.6588 36.0843L38.6589 36.0843L40.0698 34.6668ZM41.2686 33.4653L42.6844 34.8779L44.0915 33.4675L42.6867 32.055L41.2686 33.4653ZM37.9886 30.1673L39.4067 28.7569L37.8266 27.1682L36.4268 28.9179L37.9886 30.1673ZM36.8481 31.4517L35.4226 30.0488L34.0295 31.4644L35.4353 32.8673L36.8481 31.4517ZM36.8483 31.4599L38.2593 30.0425L36.832 28.6218L35.4211 30.0588L36.8483 31.4599ZM35.7244 32.504L34.4317 30.978L32.7766 32.38L34.3081 33.9161L35.7244 32.504ZM38.9711 35.7606L40.3881 34.3492L40.3875 34.3486L38.9711 35.7606ZM14.9868 9.70782L16.3817 11.1411L17.8379 9.72383L16.3977 8.29034L14.9868 9.70782ZM13.122 7.85164L11.7249 6.42053L11.7226 6.42274L13.122 7.85164ZM35.7242 32.4957L37.0155 34.0229L38.6724 32.622L37.1414 31.0845L35.7242 32.4957ZM33.8594 30.6229L35.2766 29.2117L33.9933 27.9229L32.5887 29.0785L33.8594 30.6229ZM36.1151 28.2944L34.5266 27.0793L33.4648 28.4673L34.6979 29.7056L36.1151 28.2944ZM37.9883 30.1755L36.5711 31.5867L38.1481 33.1704L39.5476 31.4278L37.9883 30.1755ZM14.9948 9.71609L13.5838 11.1335L14.9808 12.5243L16.3916 11.1475L14.9948 9.71609ZM34.9748 29.6038L33.5496 28.2006L33.5477 28.2026L34.9748 29.6038ZM36.8479 31.4683L35.437 32.8857L36.8625 34.3047L38.2734 32.8711L36.8479 31.4683ZM37.9884 30.1839L39.5502 31.4332L40.666 30.0384L39.4056 28.7726L37.9884 30.1839ZM36.1153 28.3028L37.5325 26.8916L35.9341 25.2864L34.5394 27.0714L36.1153 28.3028ZM33.8508 30.6313L32.5931 29.0762L30.8686 30.4709L32.4336 32.0425L33.8508 30.6313ZM35.7156 32.504L34.2983 33.9152L35.6004 35.2228L37.0083 34.03L35.7156 32.504ZM56.8944 51.422L55.4823 52.8383L56.8932 54.2451L58.3054 52.8395L56.8944 51.422ZM58.0433 48.3477L56.0476 48.4803L56.0484 48.4909L58.0433 48.3477ZM56.7862 45.7126L55.3752 47.1301L55.3836 47.1383L56.7862 45.7126ZM42.8752 31.8659L44.2862 30.4484L42.8752 29.0439L41.4643 30.4484L42.8752 31.8659ZM41.2602 33.4734L39.8493 32.056L38.4313 33.4674L39.8432 34.8849L41.2602 33.4734ZM51.9328 44.1879L50.5158 45.5993L50.5234 45.607L50.5311 45.6146L51.9328 44.1879ZM49.66 46.4916L51.0803 45.0835L51.077 45.0802L49.66 46.4916ZM37.2558 37.4676L35.8451 36.05L34.4207 37.4674L35.8449 38.8851L37.2558 37.4676ZM51.1585 51.3061L49.7475 52.7236L49.7558 52.7318L51.1585 51.3061ZM53.8058 52.5573L53.6734 54.5529L53.6781 54.5532L53.8058 52.5573ZM56.8944 51.4138L58.298 52.8385L59.7366 51.4211L58.3053 49.9963L56.8944 51.4138ZM49.6518 46.4916L48.2343 47.9025L48.2409 47.909L49.6518 46.4916ZM51.9491 44.188L53.3694 42.7799L53.3656 42.776L51.9491 44.188ZM41.2683 33.4736L42.6847 32.0616L41.2689 30.6413L39.8524 32.061L41.2683 33.4736ZM40.0695 34.6751L38.6536 33.2625L37.2389 34.6805L38.6591 36.0931L40.0695 34.6751ZM24.2869 14.6368V12.6368H22.2869V14.6368H24.2869ZM25.6748 14.6368H27.6748V12.6368H25.6748V14.6368ZM25.6748 24.8151V26.8151H27.6748V24.8151H25.6748ZM24.2869 24.8151H22.2869V26.8151H24.2869V24.8151ZM19.8917 20.42H17.8917V22.42H19.8917V20.42ZM19.8917 19.032V17.032H17.8917V19.032H19.8917ZM30.07 19.032H32.07V17.032H30.07V19.032ZM30.07 20.42V22.42H32.07V20.42H30.07ZM41.4856 36.0794L42.6844 34.8779L39.8528 32.0527L38.654 33.2542L41.4856 36.0794ZM42.6867 32.055L39.4067 28.7569L36.5705 31.5776L39.8505 34.8756L42.6867 32.055ZM36.4268 28.9179C36.1119 29.3115 35.7745 29.6912 35.4226 30.0488L38.2735 32.8545C38.7208 32.4 39.1493 31.9179 39.5503 31.4166L36.4268 28.9179ZM35.4353 32.8673L38.657 36.0825L41.4826 33.2512L38.2608 30.036L35.4353 32.8673ZM35.4211 30.0588C35.1062 30.3796 34.7764 30.6859 34.4317 30.978L37.0172 34.0301C37.4549 33.6592 37.8744 33.2695 38.2754 32.8611L35.4211 30.0588ZM34.3081 33.9161L37.5548 37.1727L40.3875 34.3486L37.1408 31.092L34.3081 33.9161ZM41.4808 33.2494L38.2593 30.0425L35.4373 32.8774L38.6588 36.0843L41.4808 33.2494ZM24.8685 31.8381C18.1555 31.8381 12.7328 26.4271 12.7328 19.7676H8.73275C8.73275 28.6536 15.9639 35.8381 24.8685 35.8381V31.8381ZM12.7328 19.7676C12.7328 16.387 14.1287 13.3338 16.3817 11.1411L13.5919 8.27457C10.6001 11.1863 8.73275 15.2595 8.73275 19.7676H12.7328ZM16.3977 8.29034L14.5329 6.43416L11.7111 9.26912L13.5759 11.1253L16.3977 8.29034ZM11.7226 6.42274C8.26112 9.8127 6.09375 14.538 6.09375 19.7676H10.0938C10.0938 15.6667 11.7891 11.9563 14.5214 9.28055L11.7226 6.42274ZM6.09375 19.7676C6.09375 30.1038 14.507 38.4649 24.8685 38.4649V34.4649C16.6987 34.4649 10.0938 27.8772 10.0938 19.7676H6.09375ZM24.8685 38.4649C29.4956 38.4649 33.7372 36.7948 37.0155 34.0229L34.4329 30.9684C31.8504 33.1519 28.5163 34.4649 24.8685 34.4649V38.4649ZM37.1414 31.0845L35.2766 29.2117L32.4422 32.0341L34.307 33.9069L37.1414 31.0845ZM32.5887 29.0785C30.4877 30.807 27.8035 31.8381 24.8685 31.8381V35.8381C28.7599 35.8381 32.336 34.4661 35.1301 32.1674L32.5887 29.0785ZM24.8682 7.70542C31.5811 7.70542 37.0039 13.1164 37.0039 19.7759H41.0039C41.0039 10.8899 33.7728 3.70542 24.8682 3.70542V7.70542ZM37.0039 19.7759C37.0039 22.5245 36.0781 25.0511 34.5266 27.0793L37.7037 29.5095C39.7652 26.8145 41.0039 23.4411 41.0039 19.7759H37.0039ZM34.6979 29.7056L36.5711 31.5867L39.4054 28.7642L37.5323 26.8832L34.6979 29.7056ZM39.5476 31.4278C42.1108 28.2363 43.6512 24.177 43.6512 19.7676H39.6512C39.6512 23.2304 38.4444 26.4135 36.4289 28.9231L39.5476 31.4278ZM43.6512 19.7676C43.6512 9.43081 35.2373 1.07031 24.8682 1.07031V5.07031C33.0469 5.07031 39.6512 11.6587 39.6512 19.7676H43.6512ZM24.8682 1.07031C19.7463 1.07031 15.1134 3.11248 11.7249 6.42053L14.5191 9.28275C17.1911 6.67424 20.8326 5.07031 24.8682 5.07031V1.07031ZM11.711 9.26901L13.5838 11.1335L16.4059 8.29871L14.5331 6.43427L11.711 9.26901ZM16.3916 11.1475C18.5783 9.01359 21.57 7.70542 24.8682 7.70542V3.70542C20.4908 3.70542 16.5062 5.44668 13.598 8.28471L16.3916 11.1475ZM33.5639 31.0213L35.437 32.8857L38.2589 30.0508L36.3857 28.1863L33.5639 31.0213ZM38.2734 32.8711C38.7207 32.4166 39.1492 31.9345 39.5502 31.4332L36.4267 28.9345C36.1118 29.3281 35.7743 29.7078 35.4224 30.0654L38.2734 32.8711ZM39.4056 28.7726L37.5325 26.8916L34.6981 29.714L36.5712 31.5951L39.4056 28.7726ZM34.5394 27.0714C34.2344 27.4617 33.9016 27.8432 33.5496 28.2006L36.4 31.007C36.8639 30.5358 37.2969 30.0389 37.6913 29.5342L34.5394 27.0714ZM33.5477 28.2026C33.2335 28.5226 32.9235 28.809 32.5931 29.0762L35.1084 32.1863C35.5773 31.8072 36.0001 31.4142 36.4019 31.005L33.5477 28.2026ZM32.4336 32.0425L34.2983 33.9152L37.1328 31.0928L35.268 29.2201L32.4336 32.0425ZM37.0083 34.03C37.4461 33.6592 37.8656 33.2695 38.2666 32.8611L35.4123 30.0587C35.0973 30.3795 34.7676 30.6859 34.4228 30.978L37.0083 34.03ZM50.5373 47.9078L55.4823 52.8383L58.3066 50.0057L53.3615 45.0752L50.5373 47.9078ZM58.3054 52.8395C59.5325 51.618 60.1631 49.9465 60.0381 48.2046L56.0484 48.4909C56.0899 49.0691 55.888 49.6019 55.4835 50.0045L58.3054 52.8395ZM60.0389 48.2152C59.9357 46.6614 59.2073 45.2889 58.1888 44.2869L55.3836 47.1383C55.797 47.545 56.0177 48.0287 56.0477 48.4803L60.0389 48.2152ZM41.4643 30.4484L39.8493 32.056L42.6712 34.8909L44.2862 33.2833L41.4643 30.4484ZM39.8432 34.8849L50.5158 45.5993L53.3497 42.7764L42.6772 32.062L39.8432 34.8849ZM50.5311 45.6146C50.3723 45.4585 50.3857 45.2299 50.5199 45.0927L53.3789 47.8903C54.7619 46.477 54.7753 44.1768 53.3344 42.7612L50.5311 45.6146ZM50.5385 45.074C50.6807 44.9324 50.917 44.9188 51.0803 45.0835L48.2397 47.8997C49.6518 49.324 51.9527 49.3102 53.3604 47.909L50.5385 45.074ZM51.077 45.0802L40.3881 34.3492L37.5541 37.1721L48.243 47.903L51.077 45.0802ZM37.5604 34.343L35.8451 36.05L38.6666 38.8853L40.3819 37.1783L37.5604 34.343ZM35.8449 38.8851L49.7475 52.7235L52.5694 49.8886L38.6668 36.0501L35.8449 38.8851ZM49.7558 52.7318C50.7525 53.7123 52.1177 54.4497 53.6734 54.5529L53.9382 50.5617C53.4959 50.5324 52.9963 50.3086 52.5611 49.8804L49.7558 52.7318ZM53.6781 54.5532C55.4077 54.6639 57.0732 54.0452 58.298 52.8385L55.4907 49.9891C55.0838 50.39 54.5349 50.5999 53.9335 50.5614L53.6781 54.5532ZM58.3053 49.9963L53.3604 45.0741L50.5385 47.909L55.4834 52.8313L58.3053 49.9963ZM53.3603 45.074L41.4807 33.2493L38.6589 36.0843L50.5385 47.909L53.3603 45.074ZM37.5536 37.1715L48.2343 47.9025L51.0693 45.0807L40.3887 34.3497L37.5536 37.1715ZM48.2409 47.909C49.6539 49.3156 51.9474 49.3154 53.3604 47.909L50.5385 45.074C50.686 44.9272 50.9151 44.9271 51.0627 45.0741L48.2409 47.909ZM53.3789 47.8903C54.7594 46.4796 54.7713 44.1939 53.3694 42.7799L50.5289 45.5961C50.4479 45.5145 50.4176 45.415 50.4176 45.337C50.4175 45.2591 50.4474 45.1669 50.5199 45.0927L53.3789 47.8903ZM53.3656 42.776L42.6847 32.0616L39.8518 34.8856L50.5327 45.6L53.3656 42.776ZM39.8524 32.061L38.6536 33.2625L41.4853 36.0877L42.6841 34.8862L39.8524 32.061ZM38.6591 36.0931L50.539 47.9095L53.3598 45.0735L41.4799 33.2571L38.6591 36.0931ZM24.2869 16.6368H25.6748V12.6368H24.2869V16.6368ZM23.6748 14.6368V24.8151H27.6748V14.6368H23.6748ZM25.6748 22.8151H24.2869V26.8151H25.6748V22.8151ZM26.2869 24.8151V14.6368H22.2869V24.8151H26.2869ZM21.8917 20.42V19.032H17.8917V20.42H21.8917ZM19.8917 21.032H30.07V17.032H19.8917V21.032ZM28.07 19.032V20.42H32.07V19.032H28.07ZM30.07 18.42H19.8917V22.42H30.07V18.42ZM58.1971 44.2951L44.2862 30.4484L41.4643 33.2833L55.3753 47.1301L58.1971 44.2951Z" fill="white" mask="url(#path-2-outside-1_203_292)"/>
<path d="M39.8389 34.7828L41.0377 33.5812L37.7577 30.2832C37.3997 30.7307 37.0168 31.1616 36.6172 31.5676L39.8389 34.7828Z" fill="#DBDBDB"/>
<path d="M36.6165 31.5762C36.2586 31.9408 35.8839 32.2888 35.4927 32.6203L38.7394 35.8769L39.8383 34.783L36.6165 31.5762Z" fill="#C1CACB"/>
<path d="M24.637 33.9542C16.8282 33.9542 10.5013 27.6565 10.5013 19.8838C10.5013 15.9394 12.133 12.3762 14.7553 9.82395L12.8906 7.96777C9.79369 11.0006 7.8623 15.2185 7.8623 19.8838C7.8623 29.1066 15.3714 36.5811 24.637 36.5811C28.7745 36.5811 32.5624 35.0895 35.4927 32.6118L33.6279 30.7391C31.1804 32.7527 28.0502 33.9542 24.637 33.9542Z" fill="#363C3C"/>
<path d="M24.6371 5.82163C32.4459 5.82163 38.7728 12.1194 38.7728 19.8921C38.7728 23.099 37.6906 26.049 35.8841 28.4106L37.7572 30.2917C40.0465 27.4411 41.4201 23.8199 41.4201 19.8838C41.4201 10.6609 33.9111 3.18652 24.6371 3.18652C20.0584 3.18652 15.9209 5.00955 12.8906 7.96783L14.7637 9.8323C17.3112 7.34635 20.7993 5.82163 24.6371 5.82163Z" fill="#363C3C"/>
<path d="M34.7427 29.7199L36.6158 31.5844C37.0154 31.1784 37.3983 30.7475 37.7563 30.3L35.8832 28.4189C35.5335 28.8664 35.1506 29.3056 34.7427 29.7199Z" fill="#363C3C"/>
<path d="M34.743 29.7197C34.385 30.0843 34.0187 30.4241 33.6191 30.7472L35.4839 32.62C35.8752 32.2885 36.2498 31.9405 36.6078 31.5759" fill="#363C3C"/>
<path d="M35.7835 15.5088C31.9124 5.70592 21.1982 8.31616 21.1982 8.31616C29.7646 8.39903 35.7835 15.5088 35.7835 15.5088Z" fill="white"/>
<path d="M51.7185 46.6081L56.6635 51.5386C57.4794 50.7265 57.8956 49.6244 57.8123 48.4643C57.7458 47.4616 57.2712 46.5335 56.5553 45.8292L42.6527 31.9907L42.6443 31.9824L41.0293 33.59L51.7019 44.3045C52.3429 44.9342 52.3429 45.97 51.7185 46.6081Z" fill="#686D6D"/>
<path d="M51.7184 46.608C51.0857 47.2377 50.0534 47.2377 49.429 46.608L38.7398 35.877L37.0249 37.584L50.9275 51.4224C51.6435 52.1268 52.5759 52.6074 53.5749 52.6737C54.7404 52.7483 55.8476 52.3339 56.6634 51.5302L51.7184 46.608Z" fill="#363C3C"/>
<path d="M51.7173 46.608L39.8377 34.7832L38.7388 35.877L49.4196 46.608C50.0523 47.2378 51.0846 47.2378 51.7173 46.608Z" fill="#686D6D"/>
<path d="M51.7176 46.6079C52.3419 45.9699 52.3419 44.9341 51.7176 44.3043L41.0367 33.5898L39.8379 34.7914L51.7176 46.6079Z" fill="#363C3C"/>
<path d="M24.0553 14.752H25.4433V24.9303H24.0553V14.752Z" fill="#363C3C"/>
<path d="M19.6602 20.5351V19.1471H29.8385V20.5351H19.6602Z" fill="#363C3C"/>
</g>
</g>
<defs>
<filter id="filter0_d_203_292" x="2.09375" y="1.07031" width="61.96" height="61.4951" filterUnits="userSpaceOnUse" color-interpolation-filters="sRGB">
<feFlood flood-opacity="0" result="BackgroundImageFix"/>
<feColorMatrix in="SourceAlpha" type="matrix" values="0 0 0 0 0 0 0 0 0 0 0 0 0 0 0 0 0 0 127 0" result="hardAlpha"/>
<feOffset dy="4"/>
<feGaussianBlur stdDeviation="2"/>
<feColorMatrix type="matrix" values="0 0 0 0 0 0 0 0 0 0 0 0 0 0 0 0 0 0 0.25 0"/>
<feBlend mode="normal" in2="BackgroundImageFix" result="effect1_dropShadow_203_292"/>
<feBlend mode="normal" in="SourceGraphic" in2="effect1_dropShadow_203_292" result="shape"/>
</filter>
</defs>
</svg>
