<svg width="20" height="25" viewBox="0 0 20 25" fill="none" xmlns="http://www.w3.org/2000/svg">
<path fill-rule="evenodd" clip-rule="evenodd" d="M5.70913 25C5.87506 24.9998 6.04001 24.9735 6.1984 24.9219C10.7826 23.3833 14.6763 20.1621 17.1571 15.8563C19.6379 11.5505 20.5372 6.45261 19.6885 1.50757C19.6317 1.09059 19.433 0.708874 19.1287 0.432129C18.8243 0.155384 18.4348 0.00181111 18.0311 0H18.0211L14.3264 0.0134277C13.9273 0.0176235 13.5423 0.168557 13.2392 0.439453C12.936 0.710349 12.7341 1.08395 12.6688 1.49475L12.0199 5.50842C11.9602 5.85927 12.0025 6.22044 12.1413 6.54602C12.2801 6.8716 12.509 7.14642 12.7987 7.33521L14.9555 8.71887C15.057 8.78259 15.1374 8.87696 15.1856 8.98987C15.2339 9.10277 15.2476 9.22862 15.2251 9.34998C14.3965 12.3612 12.8187 15.0903 10.6519 17.2595C10.5583 17.3561 10.4355 17.4159 10.3044 17.4286C10.1733 17.4413 10.042 17.406 9.93289 17.3291L8.0058 15.9625C7.71112 15.7548 7.36072 15.6504 7.00532 15.6641C6.64991 15.6777 6.30794 15.809 6.02873 16.0388L2.84336 18.6572C2.51522 18.9306 2.29376 19.319 2.22026 19.7504C2.14675 20.1817 2.22621 20.6264 2.44392 21.001L4.27131 24.1492C4.41991 24.4087 4.63043 24.6232 4.88247 24.7723C5.1345 24.9215 5.41936 25.0001 5.70913 25ZM18.0311 1.1792C18.1679 1.17971 18.2999 1.23208 18.4027 1.32629C18.5055 1.42051 18.5721 1.5504 18.5902 1.69189C19.3938 6.35835 18.5474 11.1702 16.2079 15.235C13.8685 19.2998 10.1949 22.341 5.86893 23.7946C5.74826 23.8322 5.61904 23.8272 5.50155 23.7799C5.38407 23.7326 5.28498 23.6458 5.21987 23.5333L3.3926 20.3851C3.32024 20.2571 3.29452 20.1065 3.32019 19.9603C3.34587 19.8142 3.42124 19.6828 3.53241 19.5898L6.71765 16.9708C6.81209 16.893 6.92783 16.8486 7.0481 16.8439C7.16837 16.8392 7.28697 16.8743 7.38671 16.9446L9.3138 18.3112C9.63259 18.5381 10.0172 18.6429 10.4016 18.6066C10.7859 18.5703 11.1461 18.3958 11.4207 18.1128C13.7409 15.7802 15.4288 12.849 16.3135 9.6167C16.3918 9.25404 16.3587 8.87466 16.2189 8.53271C16.0791 8.19077 15.8398 7.90328 15.5347 7.71118L13.3779 6.32812C13.2803 6.26406 13.2034 6.17091 13.1571 6.06079C13.1109 5.95067 13.0973 5.82869 13.1183 5.71045L13.7673 1.69678C13.7907 1.55656 13.8604 1.4294 13.9644 1.33728C14.0684 1.24516 14.2 1.19394 14.3364 1.19263L18.0311 1.1792ZM4.03167 14.9841C4.15841 14.9819 4.28066 14.9351 4.37857 14.8511C4.47648 14.7671 4.5442 14.6514 4.5708 14.5221C5.25752 11.2565 6.99905 8.33593 9.50359 6.25C9.61915 6.15146 9.69316 6.00981 9.70995 5.8551C9.72674 5.70039 9.68493 5.54475 9.59342 5.42175C9.54905 5.36113 9.49354 5.31072 9.43009 5.27283C9.36664 5.23493 9.29655 5.21064 9.22397 5.20142C9.1514 5.1922 9.0778 5.19822 9.00749 5.21912C8.93718 5.24001 8.87156 5.27514 8.81454 5.32288C6.10865 7.5817 4.22672 10.7397 3.48243 14.2706C3.45243 14.4231 3.48043 14.5819 3.56057 14.7131C3.64071 14.8444 3.76676 14.9377 3.91185 14.9738C3.95129 14.9819 3.99148 14.9854 4.03167 14.9841ZM0.556818 15.3894C0.690515 15.3888 0.81947 15.3382 0.920292 15.2466C1.02111 15.155 1.08701 15.0288 1.10593 14.8907C1.48305 12.2698 2.40972 9.76803 3.81982 7.56348C5.22993 5.35892 7.08879 3.50554 9.26395 2.13623C9.39062 2.05414 9.48141 1.92357 9.51688 1.77246C9.55234 1.62136 9.5296 1.46198 9.45361 1.32812C9.41774 1.26156 9.36941 1.20332 9.31149 1.15662C9.25358 1.10991 9.18726 1.07595 9.11647 1.05652C9.04567 1.03708 8.97194 1.03218 8.8995 1.04309C8.82705 1.054 8.75735 1.08047 8.69472 1.12C6.37757 2.57824 4.39755 4.5521 2.8959 6.90063C1.39424 9.24917 0.408021 11.9144 0.00757801 14.7064C-0.0167131 14.8591 0.0179126 15.0155 0.103994 15.1416C0.190076 15.2677 0.320562 15.353 0.466858 15.379C0.496548 15.3845 0.52668 15.3886 0.556818 15.3894Z" fill="white"/>
</svg>
