<svg width="40" height="40" viewBox="0 0 40 40" fill="none" xmlns="http://www.w3.org/2000/svg">
<path fill-rule="evenodd" clip-rule="evenodd" d="M20.0556 1.5C9.801 1.5 1.5 9.801 1.5 20.0556C1.5 30.3101 9.801 38.6111 20.0556 38.6111C30.3101 38.6111 38.6111 30.3101 38.6111 20.0556C38.6111 9.801 30.3101 1.5 20.0556 1.5ZM0.5 20.0556C0.5 9.24871 9.24871 0.5 20.0556 0.5C30.8624 0.5 39.6111 9.24871 39.6111 20.0556C39.6111 30.8624 30.8624 39.6111 20.0556 39.6111C9.24871 39.6111 0.5 30.8624 0.5 20.0556Z" fill="#005BAF"/>
<path d="M17.1471 31.5887H21.7605V19.9548H24.9699L25.2708 16.0434H21.6602C21.6602 16.0434 21.6602 14.539 21.6602 13.837C21.6602 12.9343 21.8608 12.5332 22.7635 12.5332C23.4655 12.5332 25.2708 12.5332 25.2708 12.5332V8.52148C25.2708 8.52148 22.6632 8.52148 22.0614 8.52148C18.6515 8.52148 17.0468 10.0259 17.0468 12.9343C17.0468 15.4417 17.0468 16.0434 17.0468 16.0434H14.6398V19.9548H17.0468V31.5887H17.1471Z" fill="#005BAF"/>
</svg>
