<svg width="40" height="40" viewBox="0 0 40 40" fill="none" xmlns="http://www.w3.org/2000/svg">
<path d="M19.9452 39.1111C9.4145 39.1111 0.889648 30.5863 0.889648 20.0556C0.889648 9.52485 9.4145 1 19.9452 1C30.4759 1 39.0008 9.52485 39.0008 20.0556C39.0008 30.5863 30.4759 39.1111 19.9452 39.1111Z" stroke="white" stroke-miterlimit="10"/>
<path d="M17.0367 31.5887H21.6502V19.9548H24.8595L25.1604 16.0434H21.5499C21.5499 16.0434 21.5499 14.539 21.5499 13.837C21.5499 12.9343 21.7505 12.5332 22.6531 12.5332C23.3552 12.5332 25.1604 12.5332 25.1604 12.5332V8.52148C25.1604 8.52148 22.5528 8.52148 21.9511 8.52148C18.5411 8.52148 16.9364 10.0259 16.9364 12.9343C16.9364 15.4417 16.9364 16.0434 16.9364 16.0434H14.5294V19.9548H16.9364V31.5887H17.0367Z" fill="white"/>
</svg>
