<svg width="40" height="40" viewBox="0 0 40 40" fill="none" xmlns="http://www.w3.org/2000/svg">
<path d="M20.0556 39.1111C9.52485 39.1111 1 30.5863 1 20.0556C1 9.52485 9.52485 1 20.0556 1C30.5863 1 39.1111 9.52485 39.1111 20.0556C39.1111 30.5863 30.5863 39.1111 20.0556 39.1111Z" stroke="white" stroke-miterlimit="10"/>
<path d="M20.0557 11.4305C22.8638 11.4305 23.1647 11.4305 24.2679 11.5308C25.2709 11.5308 25.8726 11.7313 26.1735 11.9319C26.675 12.1325 26.9758 12.3331 27.377 12.7343C27.7782 13.1354 27.9788 13.4363 28.1793 13.9378C28.2796 14.3389 28.4802 14.8404 28.5805 15.8433C28.5805 16.9465 28.6808 17.2474 28.6808 20.0556C28.6808 22.8638 28.6808 23.1647 28.5805 24.2679C28.5805 25.2708 28.3799 25.8726 28.1793 26.1734C27.9788 26.6749 27.7782 26.9758 27.377 27.3769C26.9758 27.7781 26.675 27.9787 26.1735 28.1793C25.7723 28.2796 25.2709 28.4802 24.2679 28.5805C23.1647 28.5805 22.8638 28.6807 20.0557 28.6807C17.2475 28.6807 16.9466 28.6807 15.8434 28.5805C14.8404 28.5805 14.2387 28.3799 13.9378 28.1793C13.4364 27.9787 13.1355 27.7781 12.7343 27.3769C12.3331 26.9758 12.1326 26.6749 11.932 26.1734C11.8317 25.7723 11.6311 25.2708 11.5308 24.2679C11.4305 23.1647 11.4305 22.8638 11.4305 20.0556C11.4305 17.2474 11.4305 16.9465 11.5308 15.8433C11.5308 14.8404 11.7314 14.2386 11.932 13.9378C12.1326 13.4363 12.3331 13.1354 12.7343 12.7343C13.1355 12.3331 13.4364 12.1325 13.9378 11.9319C14.339 11.8316 14.8404 11.631 15.8434 11.5308C16.9466 11.4305 17.2475 11.4305 20.0557 11.4305ZM20.0557 9.5249C17.2475 9.5249 16.8463 9.5249 15.7431 9.62519C14.6399 9.72549 13.8375 9.82578 13.2358 10.1267C12.5337 10.4275 11.932 10.7284 11.4305 11.3302C10.8288 11.9319 10.5279 12.5337 10.227 13.1354C9.92612 13.8375 9.82583 14.5395 9.72554 15.6427C9.62524 16.746 9.62524 17.1471 9.62524 19.9553C9.62524 22.7635 9.62524 23.1647 9.72554 24.2679C9.82583 25.3711 9.92612 26.1734 10.227 26.7752C10.5279 27.4772 10.8288 28.079 11.4305 28.5805C12.0323 29.1822 12.634 29.4831 13.2358 29.784C13.9378 30.0848 14.6399 30.1851 15.7431 30.2854C16.8463 30.3857 17.2475 30.3857 20.0557 30.3857C22.8638 30.3857 23.265 30.3857 24.3682 30.2854C25.4714 30.1851 26.2738 30.0848 26.8755 29.784C27.5776 29.4831 28.1793 29.1822 28.6808 28.5805C29.2826 27.9787 29.5834 27.3769 29.8843 26.7752C30.1852 26.0731 30.2855 25.3711 30.3858 24.2679C30.4861 23.1647 30.4861 22.7635 30.4861 19.9553C30.4861 17.1471 30.4861 16.746 30.3858 15.6427C30.2855 14.5395 30.1852 13.7372 29.8843 13.1354C29.5834 12.4334 29.2826 11.8316 28.6808 11.3302C28.079 10.7284 27.4773 10.4275 26.8755 10.1267C26.1735 9.82578 25.4714 9.72549 24.3682 9.62519C23.265 9.62519 22.8638 9.5249 20.0557 9.5249Z" fill="white"/>
<path d="M20.0558 14.6401C17.047 14.6401 14.64 17.0472 14.64 20.0559C14.64 23.0647 17.047 25.4717 20.0558 25.4717C23.0646 25.4717 25.4716 23.0647 25.4716 20.0559C25.3713 17.0472 22.9643 14.6401 20.0558 14.6401ZM20.0558 23.5662C18.1502 23.5662 16.5456 21.9615 16.5456 20.0559C16.5456 18.1504 18.1502 16.5457 20.0558 16.5457C21.9614 16.5457 23.566 18.1504 23.566 20.0559C23.566 21.9615 21.9614 23.5662 20.0558 23.5662Z" fill="white"/>
<path d="M26.8755 14.4391C26.8755 15.1411 26.2738 15.7429 25.5717 15.7429C24.8697 15.7429 24.2679 15.1411 24.2679 14.4391C24.2679 13.737 24.8697 13.1353 25.5717 13.1353C26.2738 13.2355 26.8755 13.737 26.8755 14.4391Z" fill="white"/>
</svg>
