<svg width="26" height="32" viewBox="0 0 26 32" fill="none" xmlns="http://www.w3.org/2000/svg">
<path d="M12.9576 31.6003C12.8936 31.6003 12.8296 31.6003 12.7016 31.5363L5.7895 27.5042C2.46147 25.5842 0.477448 21.8722 0.605449 17.9042L1.05345 3.88804C1.05345 3.63203 1.24546 3.44003 1.50146 3.44003H7.13351L12.7016 0.0480004C12.8296 -0.0160001 13.0216 -0.0160001 13.1496 0.0480004L18.7176 3.44003H24.3497C24.6057 3.44003 24.7977 3.63203 24.7977 3.88804L25.2457 17.9042C25.3737 21.9362 23.3897 25.5842 20.0616 27.5042L13.1496 31.5363C13.0856 31.6003 13.0216 31.6003 12.9576 31.6003ZM1.94946 4.40004L1.50146 17.9042C1.37346 21.5522 3.16547 24.9442 6.2375 26.7362L12.9576 30.6403L19.6776 26.7362C22.6856 24.9442 24.5417 21.6162 24.4137 17.9042L23.9017 4.40004H18.5896C18.5256 4.40004 18.3976 4.40004 18.3336 4.33604L12.8936 1.00801L7.45351 4.33604C7.38951 4.40004 7.32551 4.40004 7.19751 4.40004H1.94946Z" fill="#D4FFB3"/>
<path d="M12.9577 28.1439C12.8937 28.1439 12.8297 28.1439 12.7016 28.0799L7.2616 24.9438C5.78959 24.0478 4.63758 22.7038 4.06157 21.0398C3.99757 20.7838 4.12557 20.5278 4.31757 20.4638C4.57358 20.3998 4.82958 20.5278 4.89358 20.7198C5.40558 22.1918 6.42959 23.4078 7.7096 24.1758L12.8937 27.1839L18.0777 24.1758C19.3577 23.4078 20.3817 22.1918 20.8937 20.7198C20.9577 20.4638 21.2137 20.3358 21.4697 20.4638C21.7257 20.5278 21.8537 20.7838 21.7257 21.0398C21.1497 22.7038 19.9977 24.1118 18.5257 24.9438L13.0857 28.0799C13.0857 28.1439 13.0217 28.1439 12.9577 28.1439Z" fill="#D4FFB3"/>
<path d="M21.5978 12.1455C21.3418 12.1455 21.1498 11.9535 21.1498 11.6975L21.0218 7.34541H17.6298C17.5658 7.34541 17.5018 7.34541 17.3738 7.28141L12.8937 4.65739L8.41367 7.28141C8.34967 7.34541 8.28567 7.34541 8.15767 7.34541H4.82964L4.76564 9.77743C4.76564 10.0334 4.57364 10.2254 4.31763 10.2254C4.06163 10.2254 3.86963 10.0334 3.86963 9.77743L3.93363 6.89741C3.93363 6.64141 4.12563 6.4494 4.38163 6.4494H8.09367L12.7017 3.76138C12.8297 3.69738 13.0217 3.69738 13.1497 3.76138L17.7578 6.4494H21.4698C21.7258 6.4494 21.9178 6.64141 21.9178 6.89741L22.0458 11.6975C22.0458 11.9535 21.8538 12.1455 21.5978 12.1455Z" fill="#D4FFB3"/>
<path d="M7.13276 19.1177H5.53274C4.31673 19.1177 3.35673 18.1577 3.35673 16.9417C3.35673 16.6857 3.54873 16.4937 3.80473 16.4937C4.06073 16.4937 4.25273 16.6857 4.25273 16.9417C4.25273 17.6457 4.82874 18.2217 5.53274 18.2217H7.13276C7.45276 18.2217 7.83677 18.0937 8.02877 17.8377C8.28477 17.5817 8.41277 17.2617 8.41277 16.8777C8.41277 16.1736 7.83677 15.5976 7.06876 15.5976H5.46874C4.89274 15.5976 4.31673 15.3416 3.93273 14.9576C3.48473 14.5096 3.29272 13.9976 3.29272 13.4216C3.29272 12.8456 3.54873 12.2696 3.93273 11.8856C4.38073 11.5016 4.89274 11.2456 5.46874 11.2456H6.68476C7.70877 11.2456 8.60477 11.9496 8.86077 12.9736C8.92478 13.2296 8.73277 13.4856 8.54077 13.4856C8.28477 13.5496 8.02877 13.3576 8.02877 13.1656C7.90077 12.5896 7.38876 12.1416 6.74876 12.1416H5.53274C5.21274 12.1416 4.82874 12.2696 4.63674 12.5256C4.38073 12.7816 4.25273 13.1016 4.25273 13.4856C4.25273 13.8056 4.38073 14.1896 4.63674 14.4456C4.89274 14.5736 5.21274 14.7016 5.53274 14.7016H7.13276C8.34877 14.7016 9.37278 15.6616 9.37278 16.8777C9.37278 17.4537 9.11678 18.0297 8.73277 18.4137C8.28477 18.8617 7.70877 19.1177 7.13276 19.1177Z" fill="#D4FFB3"/>
<path d="M14.4281 19.1181H12.8281C11.6121 19.1181 10.6521 18.1581 10.6521 16.9421C10.6521 16.6861 10.8441 16.4941 11.1001 16.4941C11.3561 16.4941 11.5481 16.6861 11.5481 16.9421C11.5481 17.6461 12.1241 18.2221 12.8281 18.2221H14.4281C14.7481 18.2221 15.1321 18.0941 15.3881 17.8381C15.6441 17.5821 15.7721 17.2621 15.7721 16.9421C15.7721 16.2381 15.1961 15.6621 14.4281 15.6621H12.8281C12.2521 15.6621 11.6761 15.4061 11.2921 15.0221C10.8441 14.5741 10.6521 14.0621 10.6521 13.4861C10.6521 13.2941 10.6521 13.1661 10.7161 13.0381C10.9081 12.0141 11.8681 11.3101 12.8921 11.3101H14.0441C15.0681 11.3101 15.9641 12.0141 16.2201 13.0381C16.2842 13.2941 16.0921 13.5501 15.9001 13.5501C15.6441 13.6141 15.3881 13.4221 15.3881 13.2301C15.2601 12.6541 14.7481 12.2061 14.1081 12.2061H12.8921C12.2521 12.2061 11.7401 12.6541 11.6121 13.2301C11.6121 13.2941 11.6121 13.4221 11.6121 13.4861C11.6121 13.8061 11.7401 14.1901 11.9961 14.4461C12.2521 14.7021 12.5721 14.8301 12.8921 14.8301H14.4921C15.7081 14.8301 16.7322 15.7901 16.7322 17.0061C16.7322 17.5821 16.4762 18.1581 16.0921 18.5421C15.5801 18.8621 15.0041 19.1181 14.4281 19.1181Z" fill="#D4FFB3"/>
<path d="M22.4288 19.1187H18.7168C18.4608 19.1187 18.2688 18.9267 18.2688 18.6707V11.6306C18.2688 11.3746 18.4608 11.1826 18.7168 11.1826C18.9728 11.1826 19.1648 11.3746 19.1648 11.6306V18.2227H22.4288C22.6848 18.2227 22.8768 18.4147 22.8768 18.6707C22.8768 18.9267 22.6848 19.1187 22.4288 19.1187Z" fill="#D4FFB3"/>
</svg>
