<svg width="13" height="15" viewBox="0 0 13 15" fill="none" xmlns="http://www.w3.org/2000/svg">
<path fill-rule="evenodd" clip-rule="evenodd" d="M11.205 0C11.7693 0 12.2647 0.413033 12.3444 0.987879C13.3275 7.29825 9.534 12.4136 4.41206 13.9904C3.91274 14.1445 3.38592 13.9451 3.09625 13.5094C3.0927 13.5041 3.08926 13.4987 3.08593 13.4932L2.03333 11.7701C1.72691 11.2704 1.84898 10.6317 2.28956 10.2636L2.30236 10.2532L4.14809 8.81147C4.51307 8.52079 5.08324 8.45518 5.50417 8.77753L6.58259 9.50532C6.68647 9.55487 6.7675 9.53471 6.82597 9.48298C7.93786 8.42854 9.06914 6.76951 9.40596 5.2399L9.40702 5.23528C9.42215 5.16955 9.38986 5.11655 9.35354 5.09669C9.34716 5.0932 9.34085 5.08957 9.33463 5.0858L8.09631 4.33656C7.64961 4.0856 7.48225 3.58052 7.55313 3.15411L7.9406 0.951911L7.94282 0.940794C8.05238 0.391529 8.50924 0 9.07777 0H11.205ZM11.205 1C11.2833 1 11.3449 1.05789 11.354 1.12606L11.3555 1.13732C12.2605 6.93237 8.79226 11.5957 4.11755 13.0348C4.05967 13.0526 3.98676 13.0379 3.93299 12.9616L2.88643 11.2484L2.88588 11.2475C2.84959 11.1884 2.85551 11.0973 2.92634 11.0348L4.77092 9.59389C4.79268 9.57643 4.82365 9.56461 4.8541 9.56339C4.88317 9.56222 4.89522 9.57069 4.89724 9.57231C4.90795 9.5809 4.91901 9.58905 4.93039 9.59673L6.04772 10.3508C6.06135 10.36 6.07542 10.3685 6.08988 10.3763C6.53455 10.6164 7.09142 10.5941 7.50224 10.2197L7.50927 10.2133C8.71613 9.07043 9.9883 7.24254 10.3821 5.457C10.4936 4.96755 10.2728 4.46612 9.84435 4.22542L8.60604 3.47618C8.59982 3.47241 8.59351 3.46878 8.58712 3.46529C8.57719 3.45986 8.56302 3.44802 8.55127 3.42073C8.53891 3.39204 8.53377 3.35528 8.53937 3.31967L8.92436 1.13222C8.94457 1.03822 9.00279 1 9.07777 1H11.205Z" fill="#FFD600"/>
<path fill-rule="evenodd" clip-rule="evenodd" d="M6.46291 3.01363C6.29245 2.79638 5.97814 2.75846 5.7609 2.92893C4.18684 4.16407 3.07154 5.92334 2.61671 7.92992C2.55567 8.19923 2.7245 8.46703 2.99381 8.52808C3.26312 8.58912 3.53093 8.42029 3.59197 8.15098C3.99662 6.36579 4.98706 4.80727 6.37822 3.71564C6.59546 3.54517 6.63338 3.23087 6.46291 3.01363Z" fill="#FFD600"/>
<path fill-rule="evenodd" clip-rule="evenodd" d="M6.39129 0.781964C6.24952 0.544988 5.94249 0.467804 5.70552 0.609568C3.02281 2.21442 1.10758 4.97117 0.611902 8.20164C0.570021 8.47459 0.757338 8.72981 1.03029 8.77169C1.30323 8.81357 1.55845 8.62625 1.60033 8.35331C2.05009 5.42216 3.78767 2.92214 6.21889 1.46773C6.45587 1.32597 6.53305 1.01894 6.39129 0.781964Z" fill="#FFD600"/>
</svg>
