<svg width="40" height="40" viewBox="0 0 40 40" fill="none" xmlns="http://www.w3.org/2000/svg">
<path fill-rule="evenodd" clip-rule="evenodd" d="M20.0556 1.5C9.801 1.5 1.5 9.801 1.5 20.0556C1.5 30.3101 9.801 38.6111 20.0556 38.6111C30.3101 38.6111 38.6111 30.3101 38.6111 20.0556C38.6111 9.801 30.3101 1.5 20.0556 1.5ZM0.5 20.0556C0.5 9.24871 9.24871 0.5 20.0556 0.5C30.8624 0.5 39.6111 9.24871 39.6111 20.0556C39.6111 30.8624 30.8624 39.6111 20.0556 39.6111C9.24871 39.6111 0.5 30.8624 0.5 20.0556Z" fill="#48BE00"/>
<path fill-rule="evenodd" clip-rule="evenodd" d="M9 31C9 30.8459 9.07775 30.7689 9.07775 30.6919C9.69975 28.7659 10.3995 26.84 11.0215 24.9141C11.0992 24.76 11.0215 24.6059 10.9437 24.4518C9.85525 22.5259 9.311 20.3689 9.38875 18.1348C9.69975 12.7422 13.665 8.11996 19.1075 7.19551C23.2282 6.50218 26.727 7.65773 29.6815 10.5851C31.6252 12.5111 32.636 14.8222 32.947 17.5185C33.1802 19.9837 32.636 22.4489 31.4697 24.5289C30.3812 26.3778 28.8262 27.9185 26.8047 28.997C25.2497 29.8444 23.617 30.3067 21.8287 30.3837C19.6517 30.4607 17.6302 30.0756 15.7642 29.0741C15.6087 28.997 15.4532 28.997 15.2977 28.997C13.2762 29.6133 11.2547 30.2296 9.311 30.923C9.23325 30.923 9.1555 31 9 31ZM12.0322 27.9955C12.1877 27.9185 12.2655 27.9185 12.421 27.9185C13.4317 27.6104 14.5202 27.2252 15.531 26.917C15.6865 26.84 15.842 26.84 15.9975 26.9941C17.9412 28.2267 20.1182 28.6889 22.4507 28.3807C24.55 28.1496 26.416 27.3022 27.8932 25.9155C30.459 23.5274 31.5475 20.5229 30.9255 16.9792C30.459 14.2829 28.8262 11.8948 26.4937 10.4311C25.0942 9.50663 23.4615 8.96737 21.6732 8.89033C19.574 8.81329 17.6302 9.27552 15.842 10.5081C12.8875 12.434 11.4102 15.2074 11.3325 18.6741C11.3325 20.677 11.8767 22.5259 13.043 24.2207C13.1985 24.3748 13.1985 24.6059 13.1207 24.76C12.8875 25.4533 12.6542 26.2237 12.421 26.917C12.3432 27.2252 12.1877 27.6104 12.0322 27.9955Z" fill="#48BE00"/>
<path fill-rule="evenodd" clip-rule="evenodd" d="M15.531 16.1314C15.531 15.1299 15.9197 14.3595 16.6195 13.7432C16.8527 13.5121 17.1637 13.4351 17.4747 13.4351C18.33 13.4351 18.33 13.4351 18.641 14.2054C18.8742 14.8217 19.1852 15.438 19.4185 16.0543C19.4962 16.2854 19.4962 16.4395 19.4185 16.5936C19.1852 16.9017 18.952 17.2099 18.7187 17.518C18.5632 17.7492 18.4855 17.9032 18.641 18.2114C19.574 19.7521 20.818 20.8306 22.5285 21.524C22.7617 21.601 22.9172 21.601 23.0727 21.3699C23.3837 20.9847 23.6169 20.6766 23.9279 20.3684C24.1612 20.0603 24.2389 19.9832 24.5499 20.1373C25.3274 20.5225 26.1827 20.9077 26.9602 21.2929C27.1934 21.3699 27.1934 21.601 27.1934 21.8321C27.1157 23.0647 26.5714 23.681 25.0942 24.1432C24.3944 24.3743 23.6947 24.1432 22.9949 23.9892C20.3515 23.2188 18.4077 21.678 16.8527 19.444C16.3085 18.6736 15.842 17.9803 15.6087 17.0558C15.6087 16.6706 15.6087 16.3625 15.531 16.1314Z" fill="#48BE00"/>
</svg>
