<svg width="40" height="40" viewBox="0 0 40 40" fill="none" xmlns="http://www.w3.org/2000/svg">
<path d="M20.0187 39.1111C9.48799 39.1111 0.963135 30.5863 0.963135 20.0556C0.963135 9.52485 9.48799 1 20.0187 1C30.5494 1 39.0742 9.52485 39.0742 20.0556C39.0742 30.5863 30.5494 39.1111 20.0187 39.1111Z" stroke="white" stroke-miterlimit="10"/>
<path fill-rule="evenodd" clip-rule="evenodd" d="M31.9534 9.92617C33.2572 10.227 34.2601 11.3303 34.6613 12.6341C35.2631 15.0411 35.2631 20.0557 35.2631 20.0557C35.2631 20.0557 35.2631 25.0703 34.6613 27.4773C34.2601 28.7811 33.2572 29.7841 31.9534 30.1852C29.5464 30.787 20.0186 30.787 20.0186 30.787C20.0186 30.787 10.4908 30.787 8.08382 30.1852C6.78002 29.8844 5.77709 28.7811 5.37592 27.4773C4.77417 25.0703 4.77417 20.0557 4.77417 20.0557C4.77417 20.0557 4.77417 15.0411 5.37592 12.6341C5.77709 11.3303 6.78002 10.3273 8.08382 9.92617C10.4908 9.22412 20.0186 9.22412 20.0186 9.22412C20.0186 9.22412 29.5464 9.22412 31.9534 9.92617ZM24.8328 20.0556L16.9097 15.5425V24.5688L24.8328 20.0556Z" fill="white"/>
</svg>
