<svg width="22" height="17" viewBox="0 0 22 17" fill="none" xmlns="http://www.w3.org/2000/svg">
<path fill-rule="evenodd" clip-rule="evenodd" d="M1.4 0H19.6C19.9713 0 20.3273 0.149254 20.5898 0.414931C20.8524 0.680607 21 1.04094 21 1.41667C21 1.79239 20.8524 2.15273 20.5898 2.4184C20.3273 2.68408 19.9713 2.83333 19.6 2.83333H1.4C1.0287 2.83333 0.672707 2.68408 0.410156 2.4184C0.147605 2.15273 0 1.79239 0 1.41667C0 1.04094 0.147605 0.680607 0.410156 0.414931C0.672707 0.149254 1.0287 0 1.4 0ZM1.4 7.08333H19.6C19.9713 7.08333 20.3273 7.23259 20.5898 7.49826C20.8524 7.76394 21 8.12428 21 8.5C21 8.87572 20.8524 9.23606 20.5898 9.50174C20.3273 9.76741 19.9713 9.91667 19.6 9.91667H1.4C1.0287 9.91667 0.672707 9.76741 0.410156 9.50174C0.147605 9.23606 0 8.87572 0 8.5C0 8.12428 0.147605 7.76394 0.410156 7.49826C0.672707 7.23259 1.0287 7.08333 1.4 7.08333ZM1.4 14.1667H19.6C19.9713 14.1667 20.3273 14.3159 20.5898 14.5816C20.8524 14.8473 21 15.2076 21 15.5833C21 15.9591 20.8524 16.3194 20.5898 16.5851C20.3273 16.8507 19.9713 17 19.6 17H1.4C1.0287 17 0.672707 16.8507 0.410156 16.5851C0.147605 16.3194 0 15.9591 0 15.5833C0 15.2076 0.147605 14.8473 0.410156 14.5816C0.672707 14.3159 1.0287 14.1667 1.4 14.1667Z" fill="#707070"/>
<path fill-rule="evenodd" clip-rule="evenodd" d="M2.4 0H20.6C20.9713 0 21.3273 0.149254 21.5898 0.414931C21.8524 0.680607 22 1.04094 22 1.41667C22 1.79239 21.8524 2.15273 21.5898 2.4184C21.3273 2.68408 20.9713 2.83333 20.6 2.83333H2.4C2.0287 2.83333 1.67271 2.68408 1.41016 2.4184C1.14761 2.15273 1 1.79239 1 1.41667C1 1.04094 1.14761 0.680607 1.41016 0.414931C1.67271 0.149254 2.0287 0 2.4 0ZM2.4 7.08333H20.6C20.9713 7.08333 21.3273 7.23259 21.5898 7.49826C21.8524 7.76394 22 8.12428 22 8.5C22 8.87572 21.8524 9.23606 21.5898 9.50174C21.3273 9.76741 20.9713 9.91667 20.6 9.91667H2.4C2.0287 9.91667 1.67271 9.76741 1.41016 9.50174C1.14761 9.23606 1 8.87572 1 8.5C1 8.12428 1.14761 7.76394 1.41016 7.49826C1.67271 7.23259 2.0287 7.08333 2.4 7.08333ZM2.4 14.1667H20.6C20.9713 14.1667 21.3273 14.3159 21.5898 14.5816C21.8524 14.8473 22 15.2076 22 15.5833C22 15.9591 21.8524 16.3194 21.5898 16.5851C21.3273 16.8507 20.9713 17 20.6 17H2.4C2.0287 17 1.67271 16.8507 1.41016 16.5851C1.14761 16.3194 1 15.9591 1 15.5833C1 15.2076 1.14761 14.8473 1.41016 14.5816C1.67271 14.3159 2.0287 14.1667 2.4 14.1667Z" fill="#336300"/>
</svg>
