<svg width="15" height="15" fill="none" xmlns="http://www.w3.org/2000/svg"><path fill-rule="evenodd" clip-rule="evenodd" d="M1.892 4.921a.395.395 0 00-.392.392v8.095c0 .214.178.392.392.392h.669a.395.395 0 00.392-.392V5.313a.395.395 0 00-.392-.392h-.67zM.5 5.313c0-.766.625-1.392 1.392-1.392h.669c.767 0 1.392.626 1.392 1.392v8.095c0 .766-.625 1.392-1.392 1.392h-.67A1.395 1.395 0 01.5 13.408V5.313zm4.014 1.071a.5.5 0 01.5-.5h8.317c.655 0 1.169.514 1.169 1.169v6.51c0 .656-.514 1.17-1.169 1.17H5.594a1.157 1.157 0 01-1.17-1.17v-6.51c0-.154.07-.292.18-.383a.498.498 0 01-.09-.286zm.881.5c.02.053.03.11.03.169v6.51c0 .06.02.1.045.124a.168.168 0 00.124.046h7.737a.168.168 0 00.123-.046.168.168 0 00.046-.123V7.053a.168.168 0 00-.046-.123.168.168 0 00-.123-.046H5.395z" fill="#FFD600"/><path fill-rule="evenodd" clip-rule="evenodd" d="M11.547 1.981a.5.5 0 01.5.5v3.724a.5.5 0 11-1 0V2.481a.5.5 0 01.5-.5z" fill="#FFD600"/><path fill-rule="evenodd" clip-rule="evenodd" d="M9.808.242a.5.5 0 01.5.5v1.07c0 .06.02.099.046.124a.168.168 0 00.123.045h1.07a.5.5 0 110 1h-1.07a1.157 1.157 0 01-1.17-1.168V.743a.5.5 0 01.5-.5z" fill="#FFD600"/><path fill-rule="evenodd" clip-rule="evenodd" d="M5.47 1.288a.168.168 0 00-.045.123v6.511a.5.5 0 11-1 0v-6.51c0-.656.513-1.17 1.169-1.17h4.214a.5.5 0 110 1H5.594a.168.168 0 00-.124.046z" fill="#FFD600"/><path d="M7.913 9.884a.892.892 0 100-1.783.892.892 0 000 1.783zm3.233 0a.892.892 0 100-1.784.892.892 0 000 1.784zM7.913 12.56a.892.892 0 100-1.784.892.892 0 000 1.784zm3.233 0a.892.892 0 100-1.784.892.892 0 000 1.784z" fill="#FFD600"/><path fill-rule="evenodd" clip-rule="evenodd" d="M9.454.389a.5.5 0 01.707 0l1.74 1.739a.5.5 0 11-.707.707l-1.74-1.74a.5.5 0 010-.706z" fill="#FFD600"/></svg>