<svg width="40" height="40" fill="none" xmlns="http://www.w3.org/2000/svg"><path fill-rule="evenodd" clip-rule="evenodd" d="M20.056 1.5C9.8 1.5 1.5 9.801 1.5 20.056 1.5 30.31 9.801 38.61 20.056 38.61c10.254 0 18.555-8.3 18.555-18.555C38.611 9.8 30.311 1.5 20.056 1.5zM.5 20.056C.5 9.249 9.249.5 20.056.5 30.862.5 39.61 9.249 39.61 20.056c0 10.806-8.749 19.555-19.555 19.555S.5 30.862.5 20.056z" fill="#005BAF"/><path d="M17.147 31.589h4.614V19.955h3.209l.3-3.912h-3.61v-2.206c0-.903.2-1.304 1.104-1.304h2.507V8.521h-3.21c-3.41 0-5.014 1.505-5.014 4.413v3.11H14.64v3.91h2.407V31.59h.1z" fill="#005BAF"/></svg>