<svg width="40" height="40" fill="none" xmlns="http://www.w3.org/2000/svg"><path d="M20.056 39.111C9.525 39.111 1 30.586 1 20.056 1 9.525 9.525 1 20.056 1 30.586 1 39.11 9.525 39.11 20.056c0 10.53-8.525 19.055-19.055 19.055z" stroke="#fff" stroke-miterlimit="10"/><path d="M20.056 11.43c2.808 0 3.109 0 4.212.1 1.003 0 1.605.201 1.905.402.502.2.803.401 1.204.802.401.401.602.702.802 1.204.1.4.301.902.402 1.905 0 1.104.1 1.404.1 4.213 0 2.808 0 3.109-.1 4.212 0 1.003-.201 1.605-.402 1.905-.2.502-.4.803-.802 1.204-.401.401-.702.602-1.203.802-.402.1-.903.301-1.906.402-1.103 0-1.404.1-4.212.1-2.809 0-3.11 0-4.213-.1-1.003 0-1.604-.201-1.905-.402-.502-.2-.803-.4-1.204-.802-.4-.401-.601-.702-.802-1.204-.1-.4-.3-.902-.401-1.905-.1-1.103-.1-1.404-.1-4.212 0-2.809 0-3.11.1-4.213 0-1.003.2-1.604.401-1.905.2-.502.401-.803.802-1.204.402-.4.702-.601 1.204-.802.401-.1.902-.301 1.905-.401 1.104-.1 1.404-.1 4.213-.1zm0-1.905c-2.809 0-3.21 0-4.313.1-1.103.1-1.905.2-2.507.502-.702.3-1.304.601-1.806 1.203-.601.602-.902 1.204-1.203 1.805-.3.703-.401 1.405-.501 2.508-.1 1.103-.1 1.504-.1 4.312 0 2.809 0 3.21.1 4.313.1 1.103.2 1.905.501 2.507.3.702.602 1.304 1.204 1.806.601.601 1.203.902 1.805 1.203.702.3 1.404.401 2.507.501 1.103.1 1.504.1 4.313.1 2.808 0 3.209 0 4.312-.1 1.103-.1 1.906-.2 2.508-.501.702-.3 1.303-.602 1.805-1.203.602-.602.902-1.204 1.203-1.806.301-.702.401-1.404.502-2.507.1-1.103.1-1.505.1-4.313s0-3.209-.1-4.312c-.1-1.104-.2-1.906-.502-2.508-.3-.702-.601-1.303-1.203-1.805-.602-.602-1.204-.902-1.806-1.203-.701-.301-1.404-.402-2.507-.502-1.103 0-1.504-.1-4.312-.1z" fill="#fff"/><path d="M20.056 14.64a5.393 5.393 0 00-5.416 5.416 5.393 5.393 0 005.416 5.416 5.393 5.393 0 005.416-5.416c-.1-3.009-2.508-5.416-5.416-5.416zm0 8.926c-1.906 0-3.51-1.604-3.51-3.51 0-1.906 1.604-3.51 3.51-3.51 1.905 0 3.51 1.604 3.51 3.51 0 1.905-1.605 3.51-3.51 3.51zm6.819-9.126c0 .701-.601 1.303-1.303 1.303a1.328 1.328 0 01-1.304-1.304c0-.702.602-1.304 1.304-1.304.702.1 1.303.602 1.303 1.304z" fill="#fff"/></svg>