<svg width="15" height="12" fill="none" xmlns="http://www.w3.org/2000/svg"><path fill-rule="evenodd" clip-rule="evenodd" d="M1.568 1.54a.358.358 0 00-.068.23v8.46c0 .115.036.19.068.23.03.035.054.04.071.04h11.722c.017 0 .041-.005.07-.04a.359.359 0 00.069-.23V1.77a.359.359 0 00-.068-.23c-.03-.035-.054-.04-.071-.04H1.639c-.017 0-.041.005-.07.04zM.5 1.77C.5 1.147.918.5 1.64.5h11.72c.722 0 1.14.648 1.14 1.27v8.46c0 .622-.418 1.27-1.14 1.27H1.64C.917 11.5.5 10.852.5 10.23V1.77z" fill="#FFD600"/><path fill-rule="evenodd" clip-rule="evenodd" d="M7.489 6.111a.146.146 0 00.04.027.036.036 0 00.014.003c.001 0 .005 0 .013-.003a.146.146 0 00.04-.027 5398.235 5398.235 0 015.227-4.583l.741-.648.659.753-.74.647-1.732 1.516a1422.948 1422.948 0 00-3.494 3.066l-.001.001a1.08 1.08 0 01-.713.278 1.08 1.08 0 01-.713-.278l-.002-.001c-.68-.602-2.172-1.909-3.493-3.066L1.603 2.28l-.74-.647L1.52.88l.74.648c.454.396 1.072.937 1.732 1.516C5.313 4.2 6.806 5.507 7.49 6.11z" fill="#FFD600"/></svg>