<svg width="406" height="48" fill="none" xmlns="http://www.w3.org/2000/svg"><g clip-path="url(#clip0_188_2323)"><path d="M159.071 45.255a2.576 2.576 0 01-2.561 2.562H85.175a2.577 2.577 0 01-2.56-2.562V2.562A2.577 2.577 0 0185.175 0h71.396a2.576 2.576 0 012.561 2.562v42.693h-.061z" fill="#F9F9F9"/><path d="M117.794 31.106h-3.719l2.317-14.394h3.78l-2.378 14.394zm-6.889-14.394l-3.537 9.88-.426-2.134-1.281-6.465s-.122-1.281-1.768-1.281h-5.914l-.061.244s1.83.366 3.902 1.647l3.231 12.442h3.903l5.914-14.333h-3.963zm29.387 14.394h3.415l-2.988-14.333h-2.987c-1.403 0-1.708 1.098-1.708 1.098l-5.548 13.235h3.902l.793-2.135h4.755l.366 2.135zm-4.085-5.123l1.951-5.368 1.098 5.368h-3.049zm-5.487-5.795l.549-3.11s-1.647-.61-3.354-.61c-1.829 0-6.28.793-6.28 4.757 0 3.72 5.183 3.781 5.183 5.672 0 1.952-4.634 1.586-6.158.366l-.549 3.233s1.646.793 4.207.793 6.402-1.342 6.402-4.94c0-3.721-5.244-4.087-5.244-5.673.061-1.586 3.659-1.342 5.244-.488z" fill="#0066B2"/><path d="M106.942 24.458l-1.281-6.465s-.122-1.281-1.768-1.281h-5.914l-.061.244s2.805.61 5.548 2.806c2.622 2.073 3.476 4.696 3.476 4.696z" fill="#F9A533"/><path d="M406 45.255a2.577 2.577 0 01-2.561 2.562h-71.396a2.577 2.577 0 01-2.561-2.562V2.562A2.577 2.577 0 01332.043 0h71.396A2.577 2.577 0 01406 2.562v42.693z" fill="#F9F9F9"/><path d="M390.879 19.761c-.67-.366-1.768-.61-3.292-.61-.732 0-1.463.061-2.256.183-.549.061-.61.122-.914.183-.671.183-.793.854-.793.854l-.244.915c-.122.61.183.549.366.549.305-.122.488-.183 1.097-.305.61-.122 1.22-.244 1.708-.244.731 0 1.28.061 1.646.244.366.183.548.427.548.854v.244c-.061.06-.06.122-.243.183-1.037.06-1.83.183-2.744.305-.915.122-1.707.366-2.317.67-.671.306-1.219.733-1.585 1.281-.366.55-.549 1.16-.549 1.952 0 .732.244 1.281.732 1.769.488.427 1.158.67 1.951.67.488 0 .853-.06 1.158-.121.244-.061.549-.183.915-.305.244-.122.488-.244.731-.427.244-.183.427-.305.671-.488l-.061.305c-.061.366.122.67.488.67h1.646c.366-.06.732-.365.793-.67l1.341-5.794c0-.122.061-.305.061-.488s.061-.305.061-.427c.122-.976-.183-1.586-.915-1.952zm-3.231 6.892l-.732.366c-.365.122-.67.183-.975.183-.488 0-.793-.06-1.037-.183-.244-.122-.365-.366-.365-.67 0-.367.06-.672.243-.916s.427-.427.793-.549c.305-.122.732-.182 1.219-.243a20.996 20.996 0 011.342-.122c.122 0 .183-.061.122.244 0 .121-.244 1.097-.366 1.524 0 .122-.183.305-.244.366z" fill="#369"/><path d="M367.772 19.273c-.366 0-.915.305-1.159.732 0 0-2.621 4.513-2.926 5.001-.122.244-.305.061-.305 0 0-.122-.793-4.94-.793-4.94-.061-.366-.488-.732-1.036-.732h-1.646c-.427 0-.671.305-.549.732 0 0 1.28 7.136 1.524 8.783.122.914 0 1.097 0 1.097l-1.646 2.867c-.244.366-.122.67.305.67h1.89c.366 0 .914-.304 1.158-.67l7.317-12.442s.731-1.037.061-1.037c-.427-.061-2.195-.061-2.195-.061zm-23.169 2.562c-.549.427-1.341.61-2.317.61h-.427c-.427 0-.67-.305-.548-.732l.548-2.379c.061-.366.488-.732.854-.67h.61c.731 0 1.219.121 1.585.365.366.244.548.61.548 1.098 0 .671-.304 1.28-.853 1.708zm3.963-3.72a2.956 2.956 0 00-1.037-1.098c-.426-.305-.975-.488-1.585-.61-.609-.122-1.341-.183-2.195-.183h-3.841c-.427 0-.792.305-.853.67l-2.622 11.284c-.061.366.183.732.549.732h1.829a.854.854 0 00.853-.732l.61-2.745c.061-.366.488-.67.854-.67h.548c2.256 0 4.024-.489 5.244-1.403 1.28-.915 1.89-2.135 1.89-3.66.122-.549 0-1.098-.244-1.586z" fill="#036"/><path d="M378.014 21.835c-.548.427-1.341.61-2.316.61h-.488c-.427 0-.671-.305-.549-.671l.549-2.379c.061-.366.488-.67.853-.67h.61c.732 0 1.22.121 1.585.365.366.244.549.61.549 1.098a1.762 1.762 0 01-.793 1.647zm3.964-3.66a2.956 2.956 0 00-1.037-1.097c-.427-.305-.975-.488-1.585-.61s-1.342-.183-2.195-.183h-3.841a.855.855 0 00-.854.732L369.905 28.3c-.121.366.183.732.549.67h1.829c.366 0 .793-.304.915-.67l.61-2.745c.061-.366.487-.732.914-.67h.549c2.256 0 4.024-.489 5.243-1.403 1.22-.915 1.89-2.135 1.89-3.66-.061-.67-.183-1.22-.426-1.647z" fill="#369"/><path d="M357.468 19.761c-.671-.366-1.769-.61-3.293-.61-.731 0-1.463.061-2.256.183-.548.061-.609.122-.914.183-.671.183-.793.854-.793.854l-.244.915c-.122.61.183.549.366.549.305-.122.488-.183 1.098-.305.609-.122 1.219-.244 1.707-.244.731 0 1.28.061 1.646.244.366.183.549.427.549.854v.244c-.061.06-.061.122-.244.183-1.037.06-1.829.183-2.744.305-.914.122-1.707.366-2.317.67-.67.306-1.219.733-1.585 1.281-.366.55-.549 1.16-.549 1.952 0 .732.244 1.281.732 1.769.488.427 1.158.67 1.951.67.488 0 .854-.06 1.158-.121.244-.061.549-.183.915-.305.244-.122.488-.244.732-.427.243-.183.426-.305.67-.488l-.061.305c-.061.366.122.67.488.67h1.707c.366-.06.732-.365.793-.67l1.341-5.794c0-.122.061-.305.061-.488s.061-.305.061-.427c.061-.976-.305-1.586-.975-1.952zm-3.293 6.892l-.731.366c-.366.122-.671.183-.976.183-.427 0-.793-.06-1.036-.183-.244-.122-.366-.366-.366-.67 0-.367.061-.672.244-.916s.426-.427.792-.549c.305-.122.732-.182 1.22-.243.426-.061 1.28-.122 1.341-.122.122 0 .183-.061.122.244 0 .121-.244 1.097-.366 1.585 0 .061-.183.244-.244.305z" fill="#036"/><path d="M397.22 16.407h-1.646c-.366 0-.732.305-.854.61v.06s-.061.184-.122.428l-2.256 10.307c-.06.244-.06.427-.121.427-.061.366.121.67.487.67h1.707c.366 0 .732-.304.854-.67v-.061l2.5-11.161c.122-.305-.122-.61-.549-.61zm2.5 2.256c-.061 0-.122 0-.183.061h-.183a.882.882 0 01-.427-.122c-.122-.122-.122-.244-.122-.488v-.975h-.182v-.244h.182v-.488h.305v.488h.61v.244h-.61v1.037c0 .06 0 .122.061.122 0 .06.061.06.122.121h.366c.061 0 .122 0 .122-.06v.304h-.061zm2.987.061h-.304v-1.281c0-.06 0-.122-.061-.183 0-.06-.061-.06-.122-.122-.061 0-.122-.06-.183-.06s-.183 0-.244.06c-.061.061-.183.122-.244.183v1.343h-.305v-1.221c0-.06 0-.122-.061-.183 0-.06-.061-.06-.122-.122-.061 0-.122-.06-.183-.06s-.183 0-.244.06c-.061.061-.182.061-.243.183v1.342h-.305v-1.768h.305v.183c.121-.061.182-.122.304-.183s.183-.061.305-.061.244 0 .305.06c.061.062.122.123.183.245.122-.122.244-.183.305-.244.122-.061.183-.061.305-.061.183 0 .366.06.426.183.122.122.122.304.122.487v1.22h.061z" fill="#369"/><path d="M76.457 45.255a2.577 2.577 0 01-2.561 2.562H2.56A2.577 2.577 0 010 45.255V2.562A2.577 2.577 0 012.56 0h71.397a2.577 2.577 0 012.56 2.562v42.693h-.06zm164.741.183A2.577 2.577 0 01238.637 48h-71.396a2.577 2.577 0 01-2.561-2.562V2.745a2.577 2.577 0 012.561-2.562h71.396a2.577 2.577 0 012.561 2.562v42.694z" fill="#F9F9F9"/><path fill-rule="evenodd" clip-rule="evenodd" d="M212.115 37.815h.732l.67-.061.671-.061.671-.122.67-.183.671-.183.61-.183.67-.305.61-.244.549-.305.61-.305.548-.366.549-.427.488-.366.548-.427.427-.488.488-.488.427-.488.427-.488.365-.549.366-.548.305-.61.305-.61.305-.61.244-.61.183-.61.182-.67.183-.672.122-.67.061-.672.061-.731V23.36l-.061-.671-.061-.671-.122-.67-.183-.672-.182-.67-.183-.61-.244-.672-.305-.61-.305-.548-.305-.61-.366-.55-.365-.548-.427-.488-.427-.488-.488-.488-.427-.427-.548-.427-.488-.427-.549-.366-.548-.366-.61-.366-.549-.305-.61-.244-.67-.243-.61-.244-.671-.183-.67-.122-.671-.122-.671-.122-.67-.061h-1.464l-.67.06-.671.123-.671.122-.67.122-.671.183-.61.244-.67.243-.61.245-.549.304-.609.366-.549.366-.488.366-.549.427-.487.427-.488.427-.427.488-.427.488-.427.488-.365.549-.366.549-.366.61-.305.549-.244.61-.244.67-.244.61-.182.671-.122.671-.122.671-.122.67v.672l-.061.732.061.67v.732l.122.671.122.671.122.671.182.671.244.61.244.61.244.61.305.61.366.61.366.548.365.55.427.487.427.488.427.488.488.488.487.427.549.366.488.427.549.366.609.305.549.305.61.244.67.305.61.183.671.183.67.183.671.122.671.06.67.062h.732z" fill="#FBB231"/><path fill-rule="evenodd" clip-rule="evenodd" d="M193.763 37.815h.671l.731-.061.671-.061.671-.122.67-.183.671-.183.61-.183.609-.305.61-.244.61-.305.548-.305.61-.366.488-.427.549-.366.487-.427.488-.488.427-.488.427-.488.426-.488.366-.549.366-.548.305-.61.305-.61.305-.61.244-.61.182-.61.183-.67.183-.672.122-.67.061-.672.061-.731V23.36l-.061-.671-.061-.671-.122-.67-.183-.672-.183-.67-.182-.61-.244-.672-.305-.61-.305-.548-.305-.61-.366-.55-.366-.548-.426-.488-.427-.488-.427-.488-.488-.427-.487-.427-.549-.427-.488-.366-.61-.366-.548-.366-.61-.305-.61-.244-.609-.243-.61-.244-.671-.183-.67-.122-.671-.122-.671-.122-.731-.061h-1.403l-.67.06-.671.123-.732.122-.609.122-.671.183-.671.244-.609.243-.61.245-.61.304-.549.366-.548.366-.549.366-.549.427-.488.427-.487.427-.427.488-.427.488-.427.488-.366.549-.365.549-.305.61-.305.549-.305.61-.244.67-.183.61-.183.671-.183.671-.121.671-.061.67-.061.672-.061.732.061.67.061.732.061.671.121.671.183.671.183.671.183.61.244.61.305.61.305.61.305.61.365.548.366.55.427.487.427.488.427.488.487.488.488.427.549.366.549.427.548.366.549.305.61.305.61.244.609.305.671.183.671.183.609.183.732.122.671.06.67.062h.732z" fill="#EC1C2E"/><path fill-rule="evenodd" clip-rule="evenodd" d="M201.323 15.614h7.317v-.732h-6.707l-.61.732zm-1.097 1.708h8.414v-.793h-7.987l-.427.793zm-.793 1.647h9.207v-.793h-8.902l-.305.793zm-.549 1.646h9.756v-.732h-9.573l-.183.732zm.305 7.99h9.451v-.732h-9.695l.244.732zm.671 1.647h8.779v-.732h-9.084l.305.732zm.975 1.646h7.805v-.732h-8.231l.426.732zm1.403 1.708h6.402v-.793h-7.073l.671.793zm-3.719-11.344h10.121v-.732h-9.939l-.182.732zm6.158 4.697h3.841v-.732h-3.72l-.121.732zm.304-1.648h3.537v-.731h-3.415l-.122.732zm-6.706-.731h.975v.732h-.914l-.061-.732z" fill="#FBB231"/><path fill-rule="evenodd" clip-rule="evenodd" d="M196.385 23.665h-.183l-.061-.061h-.366l-.061-.061h-.305l-.122.06h-.305l-.061.062h-.122l-.061.06h-.061v.062l-.061.06-.061.062v.244l.061.06.061.062.061.122.122.06.122.062.183.06h.122l.183.061.122.061.122.061.183.061.122.122.122.122.061.122.122.183v.183l.061.305-.061.244v.244l-.061.183-.061.183-.122.122-.122.183-.122.122-.122.061-.122.122-.122.061-.183.061-.183.061h-.122l-.183.061h-1.402l-.122-.06h-.366l-.061-.062h-.122l-.061-.06h-.122l.183-1.038h.183l.061.061h.183l.122.061h.183l.122.061h.915l.121-.06.122-.062.061-.06v-.062l.061-.06v-.062l.061-.06v-.184l-.061-.122-.061-.06-.122-.062-.122-.06-.182-.123-.183-.06-.183-.062-.183-.06-.183-.123-.183-.122-.122-.122-.122-.183-.061-.182-.061-.305v-.244l.061-.183v-.183l.061-.183.061-.122.061-.122.061-.122.122-.122.122-.122.122-.061.122-.122.183-.061.183-.061h.244l.182-.061h1.464l.061.06h.305l.06.062h.061l-.243 1.037z" fill="#fff"/><path d="M196.385 23.665h-.183l-.061-.061h-.366l-.061-.061h-.305l-.122.06h-.305l-.061.062h-.122l-.061.06h-.061v.062l-.061.06-.061.062v.244l.061.06.061.062.061.122.122.06.122.062.183.06h.122l.183.061.122.061.122.061.183.061.122.122.122.122.061.122.122.183v.183l.061.305-.061.244v.244l-.061.183-.061.183-.122.122-.122.183-.122.122-.122.061-.122.122-.122.061-.183.061-.183.061h-.122l-.183.061h-1.402l-.122-.06h-.366l-.061-.062h-.122l-.061-.06h-.122l.183-1.038h.183l.061.061h.183l.122.061h.183l.122.061h.915l.121-.06.122-.062.061-.06v-.062l.061-.06v-.062l.061-.06v-.184l-.061-.122-.061-.06-.122-.062-.122-.06-.182-.123-.183-.06-.183-.062-.183-.06-.183-.123-.183-.122-.122-.122-.122-.183-.061-.182-.061-.305v-.244l.061-.183v-.183l.061-.183.061-.122.061-.122.061-.122.122-.122.122-.122.122-.061.122-.122.183-.061.183-.061h.244l.182-.061h1.464l.061.06h.305l.06.062h.061l-.243 1.037z" stroke="#fff" stroke-width=".216" stroke-miterlimit="2.613"/><path fill-rule="evenodd" clip-rule="evenodd" d="M197.482 21.469h1.281l-.183 1.098h.792l-.183 1.097-.792-.06-.427 2.561v.183l.061.061.061.061.061.061h.183l.122.061.122-.061h.244l.061-.061h.06l-.182.854v.06h-.122v.062h-.122l-.061.06h-.366l-.061.062h-.366l-.183-.061h-.305l-.122-.061-.122-.061h-.061l-.121-.061-.061-.061v-.061l-.061-.122v-.122l-.061-.122v-.122l.061-.061v-.122l.853-5.062z" fill="#fff"/><path d="M197.482 21.469h1.281l-.183 1.098h.792l-.183 1.097-.792-.06-.427 2.561v.183l.061.061.061.061.061.061h.183l.122.061.122-.061h.244l.061-.061h.06l-.182.854v.06h-.122v.062h-.122l-.061.06h-.366l-.061.062h-.366l-.183-.061h-.305l-.122-.061-.122-.061h-.061l-.121-.061-.061-.061v-.061l-.061-.122v-.122l-.061-.122v-.122l.061-.061v-.122l.853-5.062z" stroke="#fff" stroke-width=".216" stroke-miterlimit="2.613"/><path d="M200.409 25.372v.427l.061.061.061.122.061.061.061.122.061.061.061.061.121.061.061.061h.122l.061.061h.244l.061.061h.732l.122-.06h.305l.122-.062.122-.06.121-.062.122-.06.122-.062-.183 1.098-.061.061-.061.061h-.06l-.061.061h-.183l-.061.061h-.488l-.122.061h-.61l-.244-.06h-.243l-.244-.062-.183-.06-.244-.123-.183-.122-.183-.122-.183-.183-.183-.183-.122-.183-.122-.244-.061-.305-.061-.305v-.854l.061-.182v-.183l.061-.183.061-.183.122-.183.061-.244.183-.183.122-.183.183-.183.183-.122.244-.183.305-.122.243-.061.366-.061h.732l.183.06h.183l.183.123.183.06.182.123.183.122.122.122.122.244.061.183.061.244.061.305v.61l-.122.426v.305h-3.353l.183-.914h2.012l.061-.122-.061-.122v-.183l-.061-.122v-.061l-.061-.061-.061-.061v-.061l-.061-.061-.122-.061h-.061l-.061-.061h-.488l-.061.06h-.122l-.061.062-.061.06-.061.062-.06.06-.061.062v.06l-.061.062-.061.122v.06l-.061.123v.06l-.183.976z" stroke="#fff" stroke-width=".216" stroke-miterlimit="2.613"/><path fill-rule="evenodd" clip-rule="evenodd" d="M211.444 22.872l-.061-.061h-.061l-.061-.061h-.061l-.061-.061h-.122l-.061-.061h-.183l-.06-.061h-1.159l-.122.06-.122.062-.122.06-.122.062-.122.122-.122.122-.122.122-.121.183-.122.183-.061.244-.122.244-.061.305v.183l-.061.183v.427l.061.182.061.122.061.122.061.183.061.061.122.123.061.121.182.061.122.061.122.061.183.061h.122l.122.061h.671l.061-.06h.122l.122-.062.122-.06.122-.062.121-.06.061-.062-.182 1.22h-.061v.061h-.061l-.061.061-.061.061h-.122l-.061.061h-.122l-.122.061h-.488l-.183.061-.244-.06h-.487l-.183-.062-.244-.06-.183-.123-.244-.06-.183-.184-.183-.122-.183-.183-.122-.244-.122-.244-.122-.244-.061-.244-.061-.305-.061-.365.061-.366v-.366l.061-.183.061-.183v-.183l.061-.183.061-.183.061-.122.061-.183.061-.122.061-.183.061-.122.122-.122.061-.122.061-.122.122-.122.061-.061.122-.122.122-.061.122-.122.061-.06.122-.062.122-.06.122-.062.122-.06.182-.062.122-.06.122-.062h.183l.122-.06h1.281l.121.06h.244l.122.061h.061l.122.061h.061l.122.061h.122v.061h.061l-.244 1.28z" fill="#fff"/><path d="M211.444 22.872l-.061-.061h-.061l-.061-.061h-.061l-.061-.061h-.122l-.061-.061h-.183l-.06-.061h-1.159l-.122.06-.122.062-.122.06-.122.062-.122.122-.122.122-.122.122-.121.183-.122.183-.061.244-.122.244-.061.305v.183l-.061.183v.427l.061.182.061.122.061.122.061.183.061.061.122.123.061.121.182.061.122.061.122.061.183.061h.122l.122.061h.671l.061-.06h.122l.122-.062.122-.06.122-.062.121-.06.061-.062-.182 1.22h-.061v.061h-.061l-.061.061-.061.061h-.122l-.061.061h-.122l-.122.061h-.488l-.183.061-.244-.06h-.487l-.183-.062-.244-.06-.183-.123-.244-.06-.183-.184-.183-.122-.183-.183-.122-.244-.122-.244-.122-.244-.061-.244-.061-.305-.061-.365.061-.366v-.366l.061-.183.061-.183v-.183l.061-.183.061-.183.061-.122.061-.183.061-.122.061-.183.061-.122.122-.122.061-.122.061-.122.122-.122.061-.061.122-.122.122-.061.122-.122.061-.06.122-.062.122-.06.122-.062.122-.06.182-.062.122-.06.122-.062h.183l.122-.06h1.281l.121.06h.244l.122.061h.061l.122.061h.061l.122.061h.122v.061h.061l-.244 1.28z" stroke="#fff" stroke-width=".216" stroke-miterlimit="2.613"/><path fill-rule="evenodd" clip-rule="evenodd" d="M222.846 27.568h-1.281l.061-.55v-.06l-.061.122-.061.06-.122.123-.061.06-.061.062h-.122l-.061.06-.061.062h-.122l-.06.06h-.183l-.122.062h-.244l-.244-.061h-.244l-.183-.122-.183-.061-.183-.183-.122-.122-.183-.183-.061-.183-.121-.244-.061-.183-.061-.244-.061-.244v-.488l.061-.183v-.244l.061-.305.122-.244.06-.244.122-.244.122-.183.183-.183.122-.183.122-.121.183-.122.183-.122.183-.122.183-.061.183-.061.183-.061h.183l.182-.061h.122l.122.06h.122l.122.062h.122l.061.06.122.062.061.06h.061l.122.062.061.06v.062l.061.06.061.062v.06l.061.062.305-1.83h1.28l-1.036 6.099z" fill="#fff"/><path d="M222.846 27.568h-1.281l.061-.55v-.06l-.061.122-.061.06-.122.123-.061.06-.061.062h-.122l-.061.06-.061.062h-.122l-.06.06h-.183l-.122.062h-.244l-.244-.061h-.244l-.183-.122-.183-.061-.183-.183-.122-.122-.183-.183-.061-.183-.121-.244-.061-.183-.061-.244-.061-.244v-.488l.061-.183v-.244l.061-.305.122-.244.06-.244.122-.244.122-.183.183-.183.122-.183.122-.121.183-.122.183-.122.183-.122.183-.061.183-.061.183-.061h.183l.182-.061h.122l.122.06h.122l.122.062h.122l.061.06.122.062.061.06h.061l.122.062.061.06v.062l.061.06.061.062v.06l.061.062.305-1.83h1.28l-1.036 6.099z" stroke="#fff" stroke-width=".216" stroke-miterlimit="2.613"/><path fill-rule="evenodd" clip-rule="evenodd" d="M220.712 26.41h.244l.122-.062.122-.06.121-.062.061-.06.122-.062.061-.06.061-.123.061-.122.061-.06.061-.123.061-.122v-.122l.061-.122v-.122l.061-.122v-.427l-.061-.122v-.182l-.061-.122-.061-.122-.061-.061-.061-.061-.061-.061-.061-.061-.061-.061h-.426l-.122.06h-.122l-.061.062-.122.122-.061.06-.122.061-.061.122-.061.122-.061.122-.061.122v.122l-.061.122-.061.122v.793l.061.183.122.244.122.122.122.122h.183z" fill="#FBB231"/><path fill-rule="evenodd" clip-rule="evenodd" d="M192.299 26.531l-.182 1.037h-1.159l.061-.183v-.305l.061-.122-.122.122-.061.061-.061.061-.122.061-.122.061-.061.061-.122.061-.183.061h-.121l-.122.061h-.122l-.122.061h-.427l-.122-.06h-.183l-.122-.062-.122-.06-.122-.062-.122-.06-.061-.123-.061-.06-.122-.123v-.06l-.061-.123-.06-.122v-.06l-.061-.123v-.488l.061-.183v-.183l.06-.122.122-.183.061-.122.122-.122.061-.122.122-.122.122-.06.183-.123.122-.06.122-.061.183-.061h.122l.183-.061h.305l.061-.061h1.219v-.061l.061-.061v-.305l-.061-.061-.061-.061-.061-.122-.061-.061h-.122l-.122-.061h-.975l-.122.06h-.305l-.122.062h-.244l-.061.06h-.122l-.061.062h-.061l.366-1.098.061-.061h.122l.122-.061h.122l.061-.061h.548l.122-.061h.732l.183.06h.244l.122.062h.183l.122.06.122.062.182.122.122.06.122.123.061.06.122.184.061.122.061.122v.549l-.488 2.44z" fill="#fff"/><path d="M192.299 26.531l-.182 1.037h-1.159l.061-.183v-.305l.061-.122-.122.122-.061.061-.061.061-.122.061-.122.061-.061.061-.122.061-.183.061h-.121l-.122.061h-.122l-.122.061h-.427l-.122-.06h-.183l-.122-.062-.122-.06-.122-.062-.122-.06-.061-.123-.061-.06-.122-.123v-.06l-.061-.123-.06-.122v-.06l-.061-.123v-.488l.061-.183v-.183l.06-.122.122-.183.061-.122.122-.122.061-.122.122-.122.122-.06.183-.123.122-.06.122-.061.183-.061h.122l.183-.061h.305l.061-.061h1.219v-.061l.061-.061v-.305l-.061-.061-.061-.061-.061-.122-.061-.061h-.122l-.122-.061h-.975l-.122.06h-.305l-.122.062h-.244l-.061.06h-.122l-.061.062h-.061l.366-1.098.061-.061h.122l.122-.061h.122l.061-.061h.548l.122-.061h.732l.183.06h.244l.122.062h.183l.122.06.122.062.182.122.122.06.122.123.061.06.122.184.061.122.061.122v.549l-.488 2.44z" stroke="#fff" stroke-width=".216" stroke-miterlimit="2.613"/><path fill-rule="evenodd" clip-rule="evenodd" d="M191.202 25.311v-.06h-.732l-.061.06h-.182l-.061.061-.061.061h-.061l-.122.061-.122.061-.061.061v.061l-.061.061h-.061l-.061.122v.427l.061.061.061.061.061.061h.061l.061.061h.244l.122-.06h.243l.061-.062h.122l.061-.06.061-.062.061-.06.061-.062h.061v-.06l.061-.062v-.06l.061-.062v-.06l.061-.123v-.183l.061-.122v-.122z" fill="#EC1C2E"/><path fill-rule="evenodd" clip-rule="evenodd" d="M182.544 27.568h-1.219l1.036-6.1h2.195l.183 3.6 1.525-3.6h2.316l-1.097 6.1h-1.28l.853-4.575h-.061l-1.89 4.575h-1.463v-.732l-.061-.67-.061-.855v-.854l-.061-.732-.061-.488v-.243h-.061l-.793 4.574z" fill="#fff"/><path d="M182.544 27.568h-1.219l1.036-6.1h2.195l.183 3.6 1.525-3.6h2.316l-1.097 6.1h-1.28l.853-4.575h-.061l-1.89 4.575h-1.463v-.732l-.061-.67-.061-.855v-.854l-.061-.732-.061-.488v-.243h-.061l-.793 4.574z" stroke="#fff" stroke-width=".216" stroke-miterlimit="2.613"/><path fill-rule="evenodd" clip-rule="evenodd" d="M215.285 26.531l-.183 1.037h-1.158v-.548l-.061.06-.061.061-.061.061-.122.061-.061.061-.122.061-.122.061-.122.061h-.122l-.122.061h-.122l-.121.061h-.427l-.122-.06h-.183l-.122-.062-.122-.06-.122-.062-.122-.06-.061-.123-.122-.06-.061-.123v-.06l-.061-.123-.061-.122v-.183l-.061-.122v-.366l.061-.183v-.183l.061-.122.122-.183.061-.122.122-.122.061-.122.122-.122.122-.06.183-.123.122-.06.122-.061.183-.061h.122l.183-.061h.304l.061-.061h1.22v-.061l.061-.061v-.305l-.061-.061-.061-.061-.061-.122-.061-.061h-.122l-.122-.061h-.976l-.121.06h-.305l-.122.062h-.244l-.061.06h-.122l-.061.062h-.061l.366-1.098.061-.061h.122l.122-.061h.122l.122-.061h.487l.122-.061h.732l.122.06h.305l.122.062h.183l.121.06.122.062.122.122.183.06.122.123.061.06.122.184.061.122.061.122v.549l-.488 2.44z" fill="#fff"/><path fill-rule="evenodd" clip-rule="evenodd" d="M215.102 27.568l.183-1.037h-.061l-.182 1.037.06-.06v.06z" fill="#fff"/><path fill-rule="evenodd" clip-rule="evenodd" d="M213.883 27.568h1.219v-.06h-1.158v.06h-.061.061-.061z" fill="#fff"/><path fill-rule="evenodd" clip-rule="evenodd" d="M214.005 27.02h-.061v.06l-.061.123v.366h.061v-.183l.061-.183-.061-.122v-.061h.061z" fill="#fff"/><path fill-rule="evenodd" clip-rule="evenodd" d="M212.176 27.63h.67l.122-.061h.122l.122-.061h.122l.122-.061.122-.061.061-.061.122-.061.061-.061.122-.122.061-.061h-.061l-.061.06-.061.062-.122.06-.061.061-.122.061-.122.061-.061.061h-.122l-.122.061-.122.061h-.792v.061z" fill="#fff"/><path fill-rule="evenodd" clip-rule="evenodd" d="M211.078 26.227v.427l.061.06v.123l.061.122.061.121.061.061.061.122.122.061.122.061.122.061.122.061.122.061.183.061v-.06l-.183-.062h-.122l-.122-.06-.122-.123-.122-.06-.061-.062-.061-.06-.061-.123-.061-.121-.061-.061v-.122l-.061-.061v-.427h-.061zm1.647-1.77h-.183l-.122.061-.183.061-.122.061-.183.061-.122.061-.122.122-.122.122-.122.122-.061.122-.122.122-.061.183-.061.122-.061.183v.366h.061v-.366l.061-.122.061-.183.061-.122.061-.122.122-.183.122-.06.122-.123.122-.122.122-.06.122-.062.122-.06.183-.061.122-.061h.183v-.061z" fill="#fff"/><path fill-rule="evenodd" clip-rule="evenodd" d="M213.7 24.335h-.305l-.061.061h-.487l-.061.061h-.061v.061l.061-.06h.487l.061-.062h.366v-.06zm.61.061l-.061-.06h-.549v.06h.671-.061l.061.061v-.06h-.061z" fill="#fff"/><path fill-rule="evenodd" clip-rule="evenodd" d="M214.371 24.092h-.061v.304h.061v-.182l.061-.122h-.061zm-.61-.427h.244l.061.06.122.061.061.061.061.061v.122l.061.061v-.182l-.122-.122-.061-.061-.061-.061-.122-.061h-.244v.06z" fill="#fff"/><path fill-rule="evenodd" clip-rule="evenodd" d="M211.81 23.847l.061.061v-.06h.061l.122-.062h.061l.122-.06h.244l.183-.061h1.097v-.061h-.122l-.122-.061h-.122l-.183.06h-.426l-.122.061h-.305l-.122.061h-.183l-.122.061h-.061l-.061.061h.061-.061z" fill="#fff"/><path fill-rule="evenodd" clip-rule="evenodd" d="M212.176 22.75h-.061l-.305 1.098h.061l.305-1.098h-.061.061zm2.012-.244h-1.281l-.122.06h-.182l-.122.062h-.122l-.122.06-.061.062h.122l.061-.061h.122l.122-.061h.243l.061-.061h1.281v-.061z" fill="#fff"/><path fill-rule="evenodd" clip-rule="evenodd" d="M215.773 24.092l.061-.183v-.183l-.061-.183-.061-.122-.061-.183-.061-.122-.122-.122-.122-.061-.122-.122-.183-.061-.122-.061-.122-.061-.182-.061h-.122l-.183-.061h-.122v.06h.122l.183.062h.122l.121.06.183.062.122.06.122.062.122.06.122.123.122.122.061.122.061.122.061.122.061.183v.183l-.061.183h.061z" fill="#fff"/><path fill-rule="evenodd" clip-rule="evenodd" d="M215.285 26.531l.488-2.44h-.061l-.488 2.44h.061z" fill="#fff"/><path fill-rule="evenodd" clip-rule="evenodd" d="M214.188 25.311h-.061v-.06h-.671l-.061.06h-.183l-.061.061h-.122l-.06.061h-.061l-.061.061-.061.061h-.061v.061l-.061.061-.061.061v.061l-.061.122v.366l.061.061.061.061.061.061h.061l.061.061h.243l.122-.06h.244l.061-.062.122-.06h.061l.061-.062.122-.06v-.062l.061-.06.061-.062.061-.06v-.184l.061-.122v-.244l.061-.122z" fill="#FBB231"/><path fill-rule="evenodd" clip-rule="evenodd" d="M223.699 26.897v-.061l.061-.183.061-.06.061-.123.122-.06.061-.062.122-.06h.305l.122.06.061.061.122.061.061.122.061.061.061.183v.061h-.122v-.061l-.061-.122v-.06l-.061-.123-.122-.06h-.061l-.122-.062h-.183l-.122.061h-.061l-.122.061-.061.122v.061l-.061.122v.061h-.122z" fill="#fff"/><path fill-rule="evenodd" clip-rule="evenodd" d="M224.126 26.897v-.244h.427v.061h.061v.183h-.244.122v-.182h-.244v.182h-.122zm-.427 0v.183l.061.122.061.122.061.06.122.123.061.06h.549l.061-.06.122-.122.061-.061.061-.122.061-.122v-.183h-.122v.183l-.061.06v.123l-.061.06-.122.062-.061.06h-.122l-.061.062-.122-.061h-.122l-.061-.061-.122-.061-.061-.061v-.122l-.061-.061v-.183h-.122z" fill="#fff"/><path fill-rule="evenodd" clip-rule="evenodd" d="M224.126 26.897v.305h.122v-.244h.122l.122.244h.061l-.122-.244h.122v-.061h-.427z" fill="#fff"/><path d="M223.699 26.958v-.122l.061-.122.061-.122.061-.122.122-.06.122-.062.122-.06h.244l.122.06.122.061.122.061.061.122.061.122v.366l-.061.122-.061.122-.061.122-.122.06-.122.062-.122.06h-.244l-.122-.06-.122-.061-.122-.061-.061-.122-.061-.122-.061-.122.061-.122zm.549.244h-.122v-.549h.488v.244h-.122l.122.244h-.122l-.122-.244h-.122v.305zm.122-.305h.061v-.061h-.122v.183h.061v-.122zm0 .61h.122l.122-.061.061-.061.061-.061.061-.061.061-.061v-.488l-.061-.122-.061-.06-.061-.062-.061-.06-.122-.062h-.244l-.122.061-.061.061-.061.061-.061.061-.061.122v.488l.061.061.061.061.061.06.061.062.122.06h.122z" stroke="#fff" stroke-width=".216" stroke-miterlimit="2.613"/><path fill-rule="evenodd" clip-rule="evenodd" d="M215.651 27.568h1.28l.488-2.683v-.183l.061-.122.061-.061v-.122l.061-.061.061-.122.061-.061.122-.122.061-.061.122-.061.122-.061.122-.061h.183l.122-.061h.305l.243-1.16h-.426l-.061.062h-.122l-.122.06-.061.062-.122.06-.061.062-.061.06-.061.062-.122.06-.061.123-.061.06-.061.123-.061.06.122-.853h-1.28l-.854 5.001z" fill="#fff"/><path d="M215.651 27.568h1.28l.488-2.683v-.183l.061-.122.061-.061v-.122l.061-.061.061-.122.061-.061.122-.122.061-.061.122-.061.122-.061.122-.061h.183l.122-.061h.305l.243-1.16h-.426l-.061.062h-.122l-.122.06-.061.062-.122.06-.061.062-.061.06-.061.062-.122.06-.061.123-.061.06-.061.123-.061.06.122-.853h-1.28l-.854 5.001z" stroke="#fff" stroke-width=".216" stroke-miterlimit="2.613"/><path fill-rule="evenodd" clip-rule="evenodd" d="M203.396 27.568h1.281l.487-2.683v-.183l.061-.061v-.122l.061-.061.061-.122.061-.061.061-.122.061-.061.061-.061.122-.061.122-.061h.122l.122-.061h.488v-.061l.061-.122v-.061l.061-.122v-.122l.061-.183v-.122l.061-.061.061-.122.06-.061v-.061l.061-.061.061-.061v-.061h-.609l-.122.06h-.061l-.122.062-.122.06-.061.062-.061.06-.061.062-.122.06-.061.062-.061.122-.061.06-.061.123-.061.06.183-.853h-1.341l-.854 5.001z" fill="#fff"/><path d="M203.396 27.568h1.281l.487-2.683v-.183l.061-.061v-.122l.061-.061.061-.122.061-.061.061-.122.061-.061.061-.061.122-.061.122-.061h.122l.122-.061h.488v-.061l.061-.122v-.061l.061-.122v-.122l.061-.183v-.122l.061-.061.061-.122.06-.061v-.061l.061-.061.061-.061v-.061h-.609l-.122.06h-.061l-.122.062-.122.06-.061.062-.061.06-.061.062-.122.06-.061.062-.061.122-.061.06-.061.123-.061.06.183-.853h-1.341l-.854 5.001z" stroke="#fff" stroke-width=".216" stroke-miterlimit="2.613"/><path fill-rule="evenodd" clip-rule="evenodd" d="M223.699 32.447v-.06l.061-.123.061-.122.061-.06.122-.062.061-.06.122-.062h.305l.122.061.061.061.122.061.061.061.061.122.061.122v.061h-.122l-.061-.122v-.122l-.061-.06-.122-.062-.061-.06h-.427l-.061.06-.122.061-.061.061v.122l-.061.122h-.122z" fill="#FBB231"/><path fill-rule="evenodd" clip-rule="evenodd" d="M224.126 32.448v-.183h.427v.06h.061v.122h-.122v-.121h-.244v.122h-.122zm-.427.06v-.06h.122v.06h-.122zm.427 0v-.06h.122v.06h.183l.061-.06h.122l-.061.06h-.427zm.732 0v-.06h.122v.06h-.122zm-1.159 0v.183l.061.122.061.061.061.122.122.061.061.061.122.061h.305l.122-.06.061-.062.122-.06.061-.123.061-.06.061-.123v-.183h-.122v.122l-.061.122v.061l-.061.122-.122.061-.061.061h-.427l-.061-.06-.122-.062-.061-.122v-.06l-.061-.123v-.122h-.122z" fill="#FBB231"/><path fill-rule="evenodd" clip-rule="evenodd" d="M224.126 32.508v.305h.122v-.244h.122l.122.244h.061l-.122-.244h.061l.061-.06h-.427z" fill="#FBB231"/><path fill-rule="evenodd" clip-rule="evenodd" d="M203.518 24.092l-.061-.305-.061-.244-.122-.183-.122-.183-.122-.183-.182-.122-.183-.122-.183-.061-.183-.061-.183-.061-.183-.061h-.732l-.304.06-.305.062-.244.122-.244.122-.183.183-.183.183-.122.183-.122.183-.122.183-.061.183-.061.183-.061.183-.061.183v1.036l.061.305.061.244.122.244.122.183.183.183.183.183.183.122.183.122.244.061.122.244.244.061.243.061h1.83l.061-.06.06-.062.183-1.159-.122.061-.121.061-.122.061-.122.061-.122.061h-1.525l-.121-.06-.122-.062-.061-.06-.061-.062-.061-.06-.061-.062-.061-.06-.061-.062-.061-.06-.061-.062-.061-.06v-.244h2.987v-.306l.061-.366.061-.366.122-.548zm-1.28.427h-1.646v-.305l.061-.122.061-.061.061-.061.061-.061.061-.061.061-.061.06-.061.061-.061.061-.061.061-.061h.488l.061.06.061.062.061.06.061.062.061.06.061.062.061.06.061.062v.366l.061.122z" fill="#fff"/><path d="M323.264 45.316a2.577 2.577 0 01-2.561 2.562h-71.396a2.577 2.577 0 01-2.561-2.562V2.623A2.577 2.577 0 01249.307.06h71.396a2.577 2.577 0 012.561 2.562v42.693z" fill="#F9F9F9"/><path d="M270.525 22.872v-.793l-.366.793h-3.171l-.427-.793v.793h-5.914l-.67-1.647h-1.159l-.731 1.647h-3.049V17.87l2.256-5.062h4.329l.61 1.464v-1.403h5.243l1.158 2.44 1.159-2.44h16.645s.853 0 1.463.366v-.366h4.207v.549s.732-.549 1.89-.549h7.377l.671 1.464v-1.464h4.756l.853 1.464v-1.464h4.512v10.125h-4.634l-1.097-1.77v1.77h-5.792l-.793-1.83h-1.158l-.793 1.83h-3.475s-1.281 0-2.256-.732v.732h-6.951v-2.379c0-.366-.244-.305-.244-.305h-.243v2.684h-14.206v-.122zm-3.476 2.134h9.146l1.341 1.525 1.341-1.525h7.012s.671 0 1.28.366v-.366h6.28c.793 0 1.463.427 1.463.427v-.427h8.048v.366s.549-.366 1.342-.366h5.243v.366s.671-.366 1.342-.366h4.146v9.515s-.549.61-1.647.61h-5.426v-.305s-.488.305-1.28.305h-14.45v-2.44c0-.244-.122-.305-.305-.305h-.183v2.745h-4.573v-2.745s-.488.244-1.341.244h-1.646v2.44h-5.549l-1.28-1.525-1.341 1.525h-8.963V25.006z" fill="#fff"/><path d="M295.888 26.531h5.731v1.586h-3.963v1.342h3.841V30.8h-3.841v1.402h3.963v1.525h-5.731V26.53zm16.828 2.806c2.134.122 2.317 1.22 2.317 2.317 0 1.342-1.098 2.074-2.256 2.074h-3.659v-1.525h2.866c.488 0 1.219 0 1.219-.67 0-.305-.122-.55-.67-.61-.244-.061-1.098-.061-1.22-.061-1.951-.061-2.377-1.037-2.377-2.196 0-1.342.914-2.074 2.073-2.074h3.719v1.525h-2.683c-.61 0-1.28-.06-1.28.61 0 .427.304.549.731.549.122 0 1.098.06 1.22.06zm-6.585 0c2.134.122 2.317 1.22 2.317 2.317 0 1.342-1.097 2.074-2.256 2.074h-3.719v-1.525h2.866c.487 0 1.219 0 1.219-.67 0-.305-.122-.55-.671-.61-.244-.061-1.097-.061-1.219-.061-1.951-.061-2.378-1.037-2.378-2.196 0-1.342.915-2.074 2.073-2.074h3.719v1.525H305.4c-.61 0-1.281-.06-1.281.61 0 .427.305.549.732.549.183 0 1.158.06 1.28.06zm-20.852-2.745h-6.158l-2.012 2.196-1.951-2.257h-6.95v7.136h6.706l2.134-2.378 2.073 2.378h3.354v-2.44h2.377c.915 0 2.561-.06 2.561-2.561 0-1.708-1.28-2.074-2.134-2.074zM274 32.203h-4.024v-1.402h3.902v-1.342h-3.902v-1.342h4.268l1.707 1.952L274 32.203zm6.706.854l-2.499-2.988 2.499-2.806v5.794zm3.963-3.232h-2.194v-1.708h2.194c.732 0 .976.488.976.793 0 .488-.244.915-.976.915zm9.085.671c.976-.488 1.22-1.098 1.22-2.013 0-1.525-1.22-1.89-2.134-1.89h-4.573v7.135h1.768v-2.5h2.317c.61 0 .853.61.853 1.22l.061 1.341h1.708l-.061-1.464c0-1.22-.305-1.768-1.159-1.83zm-1.524-.793h-2.195v-1.647h2.195c.732 0 .975.488.975.793 0 .549-.243.854-.975.854zm-1.464-15.493h-1.768v7.198h1.768V14.21zm-16.157 0h5.732v1.526h-3.963v1.341h3.902v1.342h-3.902v1.464h3.963v1.464h-5.732V14.21zm12.255 3.904c.976-.488 1.22-1.098 1.22-2.012 0-1.525-1.22-1.891-2.134-1.891h-4.573v7.136h1.768v-2.5h2.317c.61 0 .854.61.854 1.22l.061 1.34h1.707l-.061-1.463c0-1.22-.305-1.769-1.159-1.83zm-1.524-.732h-2.195v-1.646h2.195c.732 0 .976.488.976.793 0 .488-.244.854-.976.854zm-14.755-3.172l-2.134 4.82-2.134-4.82h-2.743v6.893l-3.049-6.892h-2.317l-3.231 7.136h1.829l.671-1.586h3.536l.671 1.586h3.536V16.04l2.378 5.306h1.585l2.378-5.245v5.245h1.768V14.21h-2.744zm-12.377 4.026l1.037-2.5 1.097 2.5h-2.134zm50.667-4.026v4.941l-2.988-4.94h-2.622v6.709l-2.987-6.71h-2.317l-2.439 5.551h-1.097c-.427-.06-1.098-.366-1.098-1.647v-.549c0-1.707.915-1.83 2.073-1.83h1.098V14.15h-2.317c-.793 0-2.561.61-2.622 3.537-.061 2.013.793 3.599 2.744 3.599h2.317l.67-1.586h3.537l.67 1.586h3.476V16.04l3.17 5.245h2.378V14.21h-1.646zm-10.792 4.026l1.036-2.5 1.098 2.5h-2.134z" fill="#0078A9"/><path d="M47.069 10.673l14.816 14.882c.183.183.183.427 0 .61L47.008 40.986c-.183.183-.427.183-.549 0l-14.877-14.82c-.182-.184-.182-.428 0-.55L46.46 10.734a.469.469 0 01.61-.06z" fill="#002B59"/><path d="M47.069 10.673l14.816 14.882c.183.183.183.427 0 .61L47.008 40.986c-.183.183-.427.183-.549 0l-14.877-14.82c-.182-.184-.182-.428 0-.55L46.46 10.734a.469.469 0 01.61-.06z" stroke="#002B59" stroke-width=".456" stroke-miterlimit="3.864"/><path d="M32.68 24.701l7.621-7.623-6.95-6.954c-.183-.182-.427-.182-.55 0L17.865 25.006c-.183.183-.183.427 0 .61L32.68 40.437c.183.183.427.183.61 0l14.876-14.943c.183-.183.183-.427 0-.61l-.61-.61-8.17 8.295-.609-.61 8.17-8.233-1.037-1.037-8.17 8.172-.61-.61 8.17-8.172-1.036-1.037-8.23 8.112-.61-.61 8.17-8.173-1.037-1.037-8.23 8.173-.61-.61 8.17-8.173-.915-1.037-8.231 8.234-.366-.366c-.183-.183-.183-.427 0-.549l.305-.305z" fill="#C51015"/><path d="M31.826 22.75h-2.743 2.744zm20.364.182v-.06h.122v-.061c1.28.06 1.586.06 1.89.06h.062c0 .061.06.183.06.366 0 .061-.06.305-.121.61-.062.61-.244 1.586-.61 2.074v.061c0 .122-.061.122-.122.122l-.122.122h-1.707v-.244c.244-1.159.61-2.135.548-3.05zm7.195 2.135c-.061.122-.061.305-.183.488-.122.366-.244.61-.366.61H57.13c.182-1.037.67-2.318.548-3.354h2.072c.062.121.062.243.062.365v.122c0 .061 0 .244-.061.488-.061.366-.183.793-.305 1.22l-.061.061zm-10.182-.854c-.061 0 0-.06 0-.122.06-.427.183-.854.183-1.098 0-.06-.061-.121-.061-.182h2.072c.062.121.062.304.062.487 0 .061-.183.915-.366 1.647l-.244 1.281v.366c.061.06.183.122.366.183h2.317a.88.88 0 00.427-.122c.243-.244.487-.915.67-1.586.061-.549.122-1.22.305-2.135 0-.06-.06-.06-.06-.121h2.072a.88.88 0 01.122.426c0 .793-.122 1.891-.549 2.806a3.13 3.13 0 01-.914 1.403c-.305.305-.67.488-1.037.488-.183.06-.365.06-.61.06h-4.45c-.061 0-.183 0-.305-.06h-.061c-.305 0-.427-.183-.488-.427-.06-.061-.06-.122-.122-.183l.122-.488c.122-.671.366-1.769.549-2.623zm-.854-1.28c.061 0 .061.06 0 0 .183.121.305.243.366.426l-.975 4.575h-2.073l.792-3.782v-.06c0-.062-.06-.123-.122-.184H44.51c.06-.366.182-.793.182-1.159h3.293c.06.062.243.122.365.183zm-7.62.365l.365.55.488.731c.122-.06.244-.305.304-.549 0-.183.061-.366.122-.549v-.244c0-.183-.06-.305-.122-.487h2.256v.304c0 .122-.122 2.257-.731 2.623h-.183c0 .061-.061.061-.061.061l-.793.061c.427.67.854 1.342 1.342 2.013-.061.06-2.44 0-2.44 0h-.06l-.793-1.22-.549-.793c-.67.488-.243 1.403-.914 2.074h-2.012v-.061c.06-.061.06-.122.122-.183.427-1.281.122-3.233 2.012-3.172l-1.159-1.768h2.378l.427.61zm-7.256-.427l.06-.06h2.378c1.098 0 1.647.914 1.647 1.707 0 1.342-1.037 3.782-3.049 3.477l-1.95-.061h-.183c.06-.305.121-.61.182-1.037h1.585c.305-.122.488-.244.732-.427.366-.549.549-1.342.61-1.586v-.183c-.061-.305-.305-.67-.671-.67H33.29c.06-.306.122-.672.244-.977-.061-.122-.061-.183-.061-.183zm-.671.427v.488l-.915 4.209h-2.073v-.061l.305-1.342.488-2.379a.462.462 0 00-.122-.244h-1.829c.061-.366.122-.793.244-1.098h3.17c.183 0 .427.122.671.305v.122h.061zm-8.109.55v-.123c.06-.488.122-.732.183-.976h2.073c1.097 0 1.524 1.098 1.524 1.708 0 .976-.427 2.196-1.22 2.867a1.677 1.677 0 01-.914.488c-.244.06-.488.122-.731.122h-3.415c-.122 0-.244 0-.366-.061-.183 0-.244-.122-.305-.183-.121-.061-.182-.244-.182-.427l.122-.55c.183-1.036.61-2.927.67-3.659 0-.06 0-.182-.06-.243h2.072c.061.121.061.304.061.426v.061l-.67 3.294c.06.122.122.183.182.244h1.403c.305-.061.549-.183.731-.305.427-.488.55-1.403.55-1.586 0-.122 0-.549-.184-.732-.122-.122-.244-.183-.488-.183h-1.036v-.183zm2.073-1.037h-1.768 1.829-.061z" fill="#fff"/></g><defs><clipPath id="clip0_188_2323"><path fill="#fff" d="M0 0h406v48H0z"/></clipPath></defs></svg>