<svg width="26" height="32" fill="none" xmlns="http://www.w3.org/2000/svg"><path d="M12.958 31.6c-.064 0-.128 0-.256-.064L5.79 27.504c-3.329-1.92-5.313-5.632-5.185-9.6l.448-14.016c0-.256.192-.448.448-.448h5.633L12.702.048a.547.547 0 01.448 0l5.568 3.392h5.632c.256 0 .448.192.448.448l.448 14.016c.128 4.032-1.856 7.68-5.184 9.6l-6.912 4.032c-.064.064-.128.064-.192.064zM1.949 4.4l-.448 13.504c-.128 3.648 1.664 7.04 4.737 8.832l6.72 3.904 6.72-3.904c3.008-1.792 4.864-5.12 4.736-8.832L23.902 4.4H18.59c-.064 0-.192 0-.256-.064l-5.44-3.328-5.44 3.328c-.064.064-.128.064-.256.064H1.949z" fill="#D4FFB3"/><path d="M12.958 28.144c-.064 0-.128 0-.256-.064l-5.44-3.136c-1.472-.896-2.624-2.24-3.2-3.904-.064-.256.064-.512.256-.576.256-.064.512.064.576.256a6.564 6.564 0 002.816 3.456l5.184 3.008 5.184-3.008a6.564 6.564 0 002.816-3.456c.064-.256.32-.384.576-.256.256.064.384.32.256.576-.576 1.664-1.728 3.072-3.2 3.904l-5.44 3.136c0 .064-.064.064-.128.064zm8.64-15.998a.437.437 0 01-.448-.449l-.128-4.352H17.63c-.064 0-.128 0-.256-.064l-4.48-2.624-4.48 2.624c-.064.064-.128.064-.256.064H4.83l-.064 2.432a.437.437 0 01-.448.448.437.437 0 01-.448-.448l.064-2.88c0-.256.192-.448.448-.448h3.712l4.608-2.688a.547.547 0 01.448 0l4.608 2.688h3.712c.256 0 .448.192.448.448l.128 4.8a.437.437 0 01-.448.449zM7.133 19.118h-1.6a2.158 2.158 0 01-2.176-2.176c0-.256.192-.448.448-.448s.448.192.448.448c0 .704.576 1.28 1.28 1.28h1.6c.32 0 .704-.128.896-.384.256-.256.384-.576.384-.96 0-.704-.576-1.28-1.344-1.28h-1.6a2.235 2.235 0 01-1.536-.64 2.08 2.08 0 01-.64-1.536c0-.576.256-1.152.64-1.536.448-.384.96-.64 1.536-.64h1.216c1.024 0 1.92.704 2.176 1.728.064.256-.128.512-.32.512-.256.064-.512-.128-.512-.32a1.308 1.308 0 00-1.28-1.024H5.533c-.32 0-.704.128-.896.384a1.302 1.302 0 00-.384.96c0 .32.128.704.384.96.256.128.576.256.896.256h1.6c1.216 0 2.24.96 2.24 2.176 0 .576-.256 1.152-.64 1.536-.448.448-1.024.704-1.6.704z" fill="#D4FFB3"/><path d="M14.428 19.118h-1.6a2.158 2.158 0 01-2.176-2.176c0-.256.192-.448.448-.448s.448.192.448.448c0 .704.576 1.28 1.28 1.28h1.6c.32 0 .704-.128.96-.384s.384-.576.384-.896c0-.704-.576-1.28-1.344-1.28h-1.6a2.235 2.235 0 01-1.536-.64 2.08 2.08 0 01-.64-1.536c0-.192 0-.32.064-.448.192-1.024 1.152-1.728 2.176-1.728h1.152c1.024 0 1.92.704 2.176 1.728.064.256-.128.512-.32.512-.256.064-.512-.128-.512-.32a1.308 1.308 0 00-1.28-1.024h-1.216c-.64 0-1.152.448-1.28 1.024v.256c0 .32.128.704.384.96s.576.384.896.384h1.6c1.216 0 2.24.96 2.24 2.176 0 .576-.256 1.152-.64 1.536-.512.32-1.088.576-1.664.576zm8.001.001h-3.712a.437.437 0 01-.448-.448v-7.04c0-.256.192-.448.448-.448s.448.192.448.448v6.592h3.264c.256 0 .448.192.448.448a.437.437 0 01-.448.448z" fill="#D4FFB3"/></svg>