<svg width="13" height="15" fill="none" xmlns="http://www.w3.org/2000/svg"><path fill-rule="evenodd" clip-rule="evenodd" d="M11.205 0c.564 0 1.06.413 1.14.988.982 6.31-2.811 11.426-7.933 13.002a1.163 1.163 0 01-1.326-.497L2.033 11.77a1.168 1.168 0 01.257-1.506l.012-.01L4.148 8.81c.365-.29.935-.356 1.356-.033l1.079.727c.103.05.184.03.243-.022C7.938 8.429 9.069 6.77 9.406 5.24l.001-.005c.015-.065-.017-.118-.053-.138a.492.492 0 01-.02-.011l-1.238-.75c-.446-.25-.614-.755-.543-1.182L7.941.952 7.943.94C8.053.39 8.509 0 9.078 0h2.127zm0 1a.15.15 0 01.149.126l.002.011c.905 5.795-2.564 10.459-7.238 11.898-.058.018-.131.003-.185-.073l-1.047-1.714a.168.168 0 01.04-.213l1.845-1.441a.147.147 0 01.083-.03c.03-.002.041.007.043.008a.5.5 0 00.033.025l1.118.754a.423.423 0 00.042.025c.445.24 1.001.218 1.412-.156l.007-.007c1.207-1.143 2.48-2.97 2.873-4.756.112-.49-.11-.99-.538-1.232l-1.238-.749a.485.485 0 00-.019-.01.093.093 0 01-.036-.045.188.188 0 01-.012-.101l.385-2.188c.02-.094.079-.132.154-.132h2.127z" fill="#FFD600"/><path fill-rule="evenodd" clip-rule="evenodd" d="M6.463 3.014a.5.5 0 00-.702-.085 8.819 8.819 0 00-3.144 5 .5.5 0 00.975.222 7.819 7.819 0 012.786-4.435.5.5 0 00.085-.702z" fill="#FFD600"/><path fill-rule="evenodd" clip-rule="evenodd" d="M6.391.782A.5.5 0 005.706.61 10.746 10.746 0 00.612 8.202a.5.5 0 00.988.151 9.746 9.746 0 014.62-6.885.5.5 0 00.17-.686z" fill="#FFD600"/></svg>