<svg width="40" height="40" fill="none" xmlns="http://www.w3.org/2000/svg"><path d="M19.982 39.111C9.452 39.111.926 30.586.926 20.056.926 9.525 9.451 1 19.982 1c10.53 0 19.055 8.525 19.055 19.056 0 10.53-8.524 19.055-19.055 19.055z" stroke="#fff" stroke-miterlimit="10"/><path d="M9.752 26.474c1.805 1.204 4.012 1.906 6.419 1.906 7.722 0 12.135-6.52 11.834-12.436a8.852 8.852 0 002.106-2.207c-.702.301-1.504.602-2.407.702.903-.501 1.505-1.304 1.806-2.307-.803.502-1.705.803-2.608 1.003-.802-.802-1.805-1.303-3.009-1.303-2.708 0-4.713 2.507-4.112 5.114-3.51-.2-6.519-1.805-8.625-4.312-1.103 1.905-.602 4.313 1.304 5.616-.702 0-1.304-.2-1.906-.501 0 1.905 1.304 3.71 3.31 4.112-.602.2-1.203.2-1.905.1.501 1.705 2.106 2.909 3.91 2.909-1.604 1.203-3.91 1.805-6.117 1.604z" fill="#fff"/></svg>