<svg width="40" height="40" fill="none" xmlns="http://www.w3.org/2000/svg"><path fill-rule="evenodd" clip-rule="evenodd" d="M20.056 1.5C9.8 1.5 1.5 9.801 1.5 20.056 1.5 30.31 9.801 38.61 20.056 38.61c10.254 0 18.555-8.3 18.555-18.555C38.611 9.8 30.311 1.5 20.056 1.5zM.5 20.056C.5 9.249 9.249.5 20.056.5 30.862.5 39.61 9.249 39.61 20.056c0 10.806-8.749 19.555-19.555 19.555S.5 30.862.5 20.056z" fill="#48BE00"/><path fill-rule="evenodd" clip-rule="evenodd" d="M9 31c0-.154.078-.231.078-.308.622-1.926 1.322-3.852 1.944-5.778.077-.154 0-.308-.078-.462a11.923 11.923 0 01-1.555-6.317c.31-5.393 4.276-10.015 9.719-10.94 4.12-.693 7.619.463 10.573 3.39 1.944 1.926 2.955 4.237 3.266 6.933a12.08 12.08 0 01-1.477 7.01 11.796 11.796 0 01-4.665 4.469 11.203 11.203 0 01-4.976 1.387c-2.177.077-4.199-.308-6.065-1.31-.155-.077-.31-.077-.466-.077-2.022.616-4.043 1.233-5.987 1.926-.078 0-.155.077-.311.077zm3.032-3.005c.156-.076.233-.076.389-.076 1.01-.309 2.1-.694 3.11-1.002.155-.077.311-.077.466.077 1.944 1.233 4.121 1.695 6.454 1.387 2.099-.231 3.965-1.079 5.442-2.465 2.566-2.389 3.654-5.393 3.032-8.937-.466-2.696-2.099-5.084-4.431-6.548a9.39 9.39 0 00-4.82-1.54c-2.1-.078-4.044.385-5.832 1.617-2.955 1.926-4.432 4.7-4.51 8.166 0 2.003.545 3.852 1.711 5.547a.471.471 0 01.078.539c-.234.693-.467 1.464-.7 2.157-.078.308-.233.693-.389 1.078z" fill="#48BE00"/><path fill-rule="evenodd" clip-rule="evenodd" d="M15.531 16.131c0-1.001.389-1.771 1.088-2.388.234-.23.545-.308.856-.308.855 0 .855 0 1.166.77.233.617.544 1.233.778 1.85.077.23.077.384 0 .539l-.7.924c-.156.231-.234.385-.078.693.933 1.541 2.177 2.62 3.888 3.313.233.077.388.077.544-.154.31-.385.544-.693.855-1.002.233-.308.31-.385.622-.23.777.384 1.633.77 2.41 1.155.233.077.233.308.233.54-.077 1.232-.622 1.848-2.099 2.31-.7.231-1.4 0-2.1-.154-2.642-.77-4.586-2.311-6.141-4.545-.545-.77-1.011-1.464-1.244-2.388 0-.385 0-.694-.078-.925z" fill="#48BE00"/></svg>