<svg width="15" height="15" fill="none" xmlns="http://www.w3.org/2000/svg"><path fill-rule="evenodd" clip-rule="evenodd" d="M0 15c0-.096.049-.144.049-.193.388-1.203.826-2.407 1.214-3.61.049-.097 0-.193-.048-.29A7.452 7.452 0 01.243 6.96C.437 3.59 2.916.7 6.317.122c2.576-.433 4.762.29 6.609 2.119 1.215 1.203 1.847 2.648 2.04 4.333a7.55 7.55 0 01-.922 4.382 7.372 7.372 0 01-2.916 2.792 7.001 7.001 0 01-3.11.867c-1.36.048-2.624-.193-3.79-.819-.098-.048-.195-.048-.292-.048-1.263.385-2.527.77-3.742 1.204C.146 14.952.097 15 0 15zm1.895-1.878c.097-.048.146-.048.243-.048.632-.192 1.312-.433 1.944-.626.097-.048.194-.048.291.048 1.215.77 2.576 1.06 4.034.867 1.312-.144 2.478-.674 3.401-1.54 1.604-1.493 2.284-3.371 1.895-5.586a6.086 6.086 0 00-2.77-4.093 5.872 5.872 0 00-3.012-.963c-1.312-.048-2.527.241-3.645 1.012C2.43 3.396 1.506 5.13 1.458 7.296c0 1.252.34 2.408 1.069 3.467.097.096.097.24.048.337-.145.433-.291.915-.437 1.348a5.8 5.8 0 01-.243.674z" fill="#FFD600"/><path fill-rule="evenodd" clip-rule="evenodd" d="M4.082 5.707c0-.626.243-1.107.68-1.492.146-.145.34-.193.535-.193.534 0 .534 0 .729.481.145.386.34.77.486 1.156.048.144.048.24 0 .337l-.438.578c-.097.144-.146.24-.048.433a4.863 4.863 0 002.43 2.07c.145.049.242.049.34-.096.194-.24.34-.433.534-.626.146-.192.194-.24.389-.144.486.24 1.02.481 1.506.722.146.048.146.193.146.337-.049.77-.389 1.156-1.312 1.444-.437.145-.875 0-1.312-.096-1.652-.481-2.867-1.444-3.84-2.84-.34-.482-.63-.915-.777-1.493 0-.24 0-.433-.048-.578z" fill="#FFD600"/></svg>