<svg width="40" height="40" fill="none" xmlns="http://www.w3.org/2000/svg"><path d="M20.019 39.111C9.488 39.111.963 30.586.963 20.056.963 9.525 9.488 1 20.02 1c10.53 0 19.055 8.525 19.055 19.056 0 10.53-8.525 19.055-19.055 19.055z" stroke="#fff" stroke-miterlimit="10"/><path fill-rule="evenodd" clip-rule="evenodd" d="M31.953 9.926c1.304.301 2.307 1.404 2.708 2.708.602 2.407.602 7.422.602 7.422s0 5.014-.602 7.421a4.069 4.069 0 01-2.708 2.708c-2.407.602-11.934.602-11.934.602s-9.528 0-11.935-.602c-1.304-.3-2.307-1.404-2.708-2.708-.602-2.407-.602-7.421-.602-7.421s0-5.015.602-7.422a4.069 4.069 0 012.708-2.708c2.407-.702 11.935-.702 11.935-.702s9.527 0 11.934.702zm-7.12 10.13l-7.923-4.514v9.027l7.923-4.513z" fill="#fff"/></svg>