<svg width="35" height="37" viewBox="0 0 35 37" fill="none" xmlns="http://www.w3.org/2000/svg">
<path d="M27.4118 37H7.41907C5.30621 37 3.58462 35.2955 3.58462 33.2036L3.58459 7.3563H0V5.54609H35V7.3563H31.2462L31.2463 33.2036C31.2463 35.2955 29.5247 37 27.4118 37ZM5.37131 7.3563V32.6851C5.37131 34.2444 6.79982 35.2114 8.37468 35.2114H26.6835C28.2583 35.2114 29.4558 34.2444 29.4558 32.6851V7.3563H5.37131Z" fill="#53A200"/>
<path d="M3.87769e-05 5.58233L10.7608 5.5823V4.24581C10.7608 2.15391 12.4824 0 14.5953 0H19.8457C21.9585 0 23.6801 2.15391 23.6801 4.24581V5.5823L34.8268 5.58233V6.55081H3.87769e-05V5.58233ZM21.8501 5.5823V4.24581C21.8501 2.68657 20.797 1.83964 19.2221 1.83964H15.3089C13.734 1.83964 12.609 2.68657 12.609 4.24581V5.5823H21.8501Z" fill="#53A200"/>
<path d="M16.4602 12.9249H18.3156V29.673H16.4602V12.9249Z" fill="#53A200"/>
<path d="M22.1203 12.9249H23.9757V29.673H22.1203V12.9249Z" fill="#53A200"/>
<path d="M10.9733 12.9249H12.8287V29.673H10.9733V12.9249Z" fill="#53A200"/>
</svg>
