<svg width="24" height="24" viewBox="0 0 24 24" fill="none" xmlns="http://www.w3.org/2000/svg">
<path fill-rule="evenodd" clip-rule="evenodd" d="M11.7128 0C5.46943 0 0.412787 5.23539 0.412787 11.6995C0.412787 13.9032 1.00617 15.9733 2.03814 17.7362L0 24L6.25631 21.9299C7.86876 22.8514 9.7392 23.3856 11.7128 23.3856C17.9563 23.3856 23.0129 18.1503 23.0129 11.6861C23 5.23539 17.9563 0 11.7128 0ZM11.7128 21.4224C9.8037 21.4224 8.02355 20.8347 6.5401 19.8063L2.92821 21.0083L4.10207 17.389C2.97981 15.7863 2.30903 13.8097 2.30903 11.6861C2.30903 6.3172 6.5272 1.94992 11.7128 1.94992C16.8985 1.94992 21.1167 6.3172 21.1167 11.6861C21.1167 17.0551 16.8985 21.4224 11.7128 21.4224ZM17.0017 14.3439C16.7179 14.1836 15.3247 13.409 15.0667 13.3022C14.8087 13.1953 14.6153 13.1419 14.4089 13.4224C14.2025 13.7162 13.6349 14.3573 13.4543 14.5576C13.2737 14.7446 13.106 14.7713 12.8222 14.611C12.5384 14.4508 11.6225 14.1035 10.5519 13.0351C9.7392 12.2204 9.19742 11.2187 9.04262 10.9115C8.88783 10.6043 9.04262 10.4441 9.19742 10.3105C9.32642 10.177 9.49411 9.97663 9.64891 9.80301C9.8037 9.62938 9.8553 9.50918 9.9585 9.3222C10.0617 9.12187 10.023 8.94825 9.9585 8.80134C9.894 8.65442 9.36511 7.1586 9.14582 6.5576C8.92653 5.95659 8.68143 6.03673 8.51374 6.03673C8.34605 6.03673 8.15255 5.99666 7.95906 5.99666C7.76556 5.98331 7.45597 6.05008 7.17218 6.34391C6.90129 6.63773 6.12731 7.31887 6.07571 8.78798C6.02412 10.2571 7.00449 11.7129 7.14638 11.9265C7.28828 12.1269 9.01682 15.3189 11.9063 16.6277C14.7958 17.9366 14.8087 17.5359 15.3376 17.5092C15.8665 17.4825 17.0662 16.8548 17.3371 16.1603C17.608 15.4791 17.6209 14.8781 17.5564 14.7446C17.479 14.5977 17.2855 14.5042 17.0017 14.3439Z" fill="#54BE00"/>
</svg>
