<svg width="70" height="70" viewBox="0 0 70 70" fill="none" xmlns="http://www.w3.org/2000/svg">
<path d="M5.94397 0C2.65328 0.0037717 0.00339453 2.65395 0 5.94472V59.56C0.285909 65.2104 4.78988 69.7141 10.4403 70H64.0564C67.3471 69.9962 69.9966 67.3465 70 64.0557V61.822C69.9962 58.5315 67.3468 55.8818 64.0564 55.8781H17.1195C15.4737 55.8781 14.123 54.5274 14.123 52.8816V5.9454C14.1193 2.65499 11.4695 0.00516383 8.17907 0.00136419H5.94472L5.94397 0ZM5.94397 2.94746H8.17907C9.82489 2.94746 11.1755 4.29811 11.1755 5.9439V43.9405C11.1755 44.361 10.8347 44.7018 10.4142 44.7018H3.70887C3.28838 44.7018 2.94751 44.361 2.94751 43.9405V5.9439C2.94751 4.29811 4.29812 2.94742 5.94397 2.94746ZM35.0114 4.44288C34.6227 4.44708 34.246 4.60432 33.9675 4.89266C33.9644 4.89587 33.9613 4.89899 33.9582 4.90221L29.4921 9.36801C29.4921 9.36801 29.492 9.37006 29.4901 9.37006C29.4193 9.44216 29.3574 9.51809 29.3043 9.59815C29.3043 9.6001 29.3023 9.60031 29.3023 9.60128C29.3142 9.58357 29.2976 9.61466 29.2475 9.70796C29.2422 9.7176 29.237 9.72717 29.2313 9.73661C29.2093 9.77363 29.1894 9.81319 29.1698 9.85325C29.1555 9.89435 29.1417 9.93473 29.1316 9.97371C29.1263 9.99381 29.1203 10.0137 29.1135 10.0333C29.1028 10.0644 29.0936 10.0974 29.0852 10.1307C29.0485 10.3166 29.0484 10.5083 29.0852 10.6941C29.0937 10.7273 29.1027 10.76 29.1135 10.7913C29.1204 10.8109 29.1264 10.8308 29.1316 10.8509C29.1418 10.8902 29.1556 10.9308 29.1702 10.9723C29.1906 11.0145 29.2111 11.056 29.2339 11.0949C29.2365 11.0994 29.2392 11.104 29.2415 11.1084C29.2911 11.197 29.306 11.2284 29.3093 11.2346C29.3618 11.3129 29.4218 11.3874 29.49 11.4569C29.49 11.4569 29.4899 11.4589 29.4919 11.4589L33.9485 15.9154H33.9504C34.5347 16.4786 35.4413 16.4705 36.0155 15.8963C36.5901 15.3218 36.5979 14.4149 36.0337 13.8305L35.3889 13.188C34.9085 12.7088 34.2608 11.8875 34.2608 11.8875H46.1762C52.7565 11.8945 58.1054 17.2435 58.1124 23.8238V35.7863C58.1124 35.7863 57.2927 35.0907 56.8131 34.6117L56.1673 33.9663C55.583 33.4021 54.6755 33.4098 54.101 33.9844C53.5269 34.5585 53.519 35.4652 54.0822 36.0495V36.0515L58.5388 40.508C58.5388 40.508 58.5406 40.5081 58.5406 40.5101C58.612 40.5802 58.6884 40.6423 58.7692 40.6959C58.7692 40.6959 58.7711 40.6978 58.7718 40.6978C58.7615 40.6908 58.7895 40.7064 58.8701 40.7481C58.8836 40.755 58.8968 40.7624 58.9098 40.77C58.9505 40.7942 58.9909 40.8152 59.0309 40.8343C59.0402 40.8371 59.0808 40.8483 59.1803 40.8788C59.1891 40.8815 59.1978 40.8843 59.2064 40.8874C59.2405 40.8993 59.274 40.9084 59.3069 40.9167C59.4912 40.9538 59.6797 40.9538 59.864 40.9167C59.8955 40.9086 59.9276 40.8999 59.9611 40.8881C59.9813 40.881 60.0018 40.8747 60.0226 40.8693C60.0632 40.8587 60.1029 40.8453 60.1429 40.8313C60.1837 40.8115 60.2239 40.7914 60.2599 40.77C60.2676 40.7655 60.2756 40.7611 60.2835 40.7567C60.3823 40.7026 60.4196 40.6832 60.3976 40.6979H60.3995C60.4818 40.643 60.5575 40.5813 60.6258 40.5135L60.6278 40.5116L65.088 36.0512C65.6513 35.4669 65.6434 34.5604 65.0692 33.9863C64.4947 33.4118 63.5872 33.4039 63.003 33.9681L62.3609 34.6124C61.8817 35.0929 61.0604 35.7881 61.0604 35.7881V23.8262C61.0512 15.6007 54.4015 8.95107 46.176 8.94184H34.1597C34.1597 8.94184 34.9085 8.12153 35.388 7.64204L36.043 6.9875L36.0522 6.97823C36.4366 6.60677 36.5894 6.062 36.454 5.5446C36.3187 5.02785 35.9181 4.62712 35.4016 4.49186C35.273 4.45821 35.1426 4.44296 35.0123 4.44439L35.0114 4.44288ZM3.70887 47.6493H10.4142C10.8347 47.6493 11.1755 47.9901 11.1755 48.4106V52.8808C11.1793 56.1712 13.8291 58.8211 17.1195 58.8248H21.5897C22.0102 58.8248 22.3511 59.1657 22.3511 59.5862V66.291C22.3511 66.7115 22.0102 67.0525 21.5897 67.0525H10.4142C10.3923 67.0525 10.3705 67.0505 10.3487 67.0494C6.41764 66.7091 3.29077 63.5827 2.95045 59.6515C2.94849 59.6298 2.94738 59.6079 2.94738 59.5861V48.4105C2.94738 47.99 3.28824 47.6491 3.70873 47.6491L3.70887 47.6493ZM26.0599 58.8248H64.0564C65.7022 58.8248 67.0525 60.1756 67.0525 61.8213V64.0564C67.0525 65.702 65.7021 67.0525 64.0564 67.0525H26.0599C25.6395 67.0525 25.2986 66.7115 25.2986 66.291V59.5862C25.2986 59.1657 25.6395 58.8248 26.0599 58.8248Z" fill="#989898"/>
</svg>
