<svg width="69" height="69" viewBox="0 0 69 69" fill="none" xmlns="http://www.w3.org/2000/svg">
<path d="M69 54.1207V9.43359C69 7.2043 67.1863 5.39063 64.957 5.39063H60.3408V4.58203C60.3408 2.05545 58.2853 0 55.7587 0C53.2322 0 51.1767 2.05545 51.1767 4.58203V5.39063H39.0649V4.58203C39.0649 2.05545 37.0095 0 34.4829 0C31.9563 0 29.9009 2.05545 29.9009 4.58203V5.39063H17.7891V4.58203C17.7891 2.05545 15.7336 0 13.207 0C10.6805 0 8.62498 2.05545 8.62498 4.58203V5.39063H4.04298C1.81367 5.39063 0 7.2043 0 9.43359V64.957C0 67.1863 1.81367 69 4.04298 69H54.1207C54.4926 69 54.8294 68.8492 55.0732 68.6055C55.0733 68.6054 55.0735 68.6054 55.0736 68.6053L68.6052 55.0736C68.849 54.8297 69 54.4927 69 54.1207ZM53.872 4.58203C53.872 3.54164 54.7184 2.69532 55.7587 2.69532C56.7991 2.69532 57.6455 3.54164 57.6455 4.58203V11.1855C57.6455 12.2259 56.7991 13.0723 55.7587 13.0723C54.7184 13.0723 53.872 12.2259 53.872 11.1855V4.58203ZM32.5962 4.58203C32.5962 3.54164 33.4425 2.69532 34.4829 2.69532C35.5233 2.69532 36.3696 3.54164 36.3696 4.58203V11.1855C36.3696 12.2259 35.5233 13.0723 34.4829 13.0723C33.4425 13.0723 32.5962 12.2259 32.5962 11.1855V4.58203ZM11.3203 4.58203C11.3203 3.54164 12.1666 2.69532 13.207 2.69532C14.2474 2.69532 15.0938 3.54164 15.0938 4.58203V11.1855C15.0938 12.2259 14.2474 13.0723 13.207 13.0723C12.1666 13.0723 11.3203 12.2259 11.3203 11.1855V4.58203ZM2.69532 64.957V62.4864H53.2337C53.9778 62.4864 54.5813 61.8829 54.5813 61.1387C54.5813 60.3945 53.9778 59.791 53.2337 59.791H2.69532V23.1797H66.514C67.2581 23.1797 67.8616 22.5762 67.8616 21.832C67.8616 21.0879 67.2581 20.4844 66.514 20.4844H2.69532V9.43359C2.69532 8.69049 3.29988 8.08594 4.04298 8.08594H8.62498V11.1855C8.62498 13.7121 10.6805 15.7676 13.207 15.7676C15.7336 15.7676 17.7891 13.7121 17.7891 11.1855V8.08594H29.9009V11.1855C29.9009 13.7121 31.9563 15.7676 34.4829 15.7676C37.0095 15.7676 39.0649 13.7121 39.0649 11.1855V8.08594H51.1767V11.1855C51.1767 13.7121 53.2322 15.7676 55.7587 15.7676C58.2853 15.7676 60.3408 13.7121 60.3408 11.1855V8.08594H64.957C65.7001 8.08594 66.3047 8.69049 66.3047 9.43359V52.773H56.816C54.5867 52.773 52.773 54.5867 52.773 56.816V66.3047H4.04298C3.29988 66.3047 2.69532 65.7001 2.69532 64.957ZM55.4683 64.3987V56.8158C55.4683 56.0727 56.0729 55.4682 56.816 55.4682H64.3988L55.4683 64.3987Z" fill="#989898"/>
<path d="M26.4223 47.2371V42.5859V37.9348C26.4223 36.4867 25.2442 35.3086 23.7961 35.3086H17.959C17.2148 35.3086 16.6113 35.9121 16.6113 36.6563C16.6113 37.4004 17.2148 38.0039 17.959 38.0039H23.7269V41.2383H17.959C17.2148 41.2383 16.6113 41.8418 16.6113 42.5859C16.6113 43.3301 17.2148 43.9336 17.959 43.9336H23.7269V47.168H17.959C17.2148 47.168 16.6113 47.7715 16.6113 48.5156C16.6113 49.2598 17.2148 49.8633 17.959 49.8633H23.7961C25.244 49.8633 26.4223 48.6852 26.4223 47.2371Z" fill="#989898"/>
<path d="M38.1198 38.0039C38.8639 38.0039 39.4674 37.4004 39.4674 36.6563C39.4674 35.9121 38.8639 35.3086 38.1198 35.3086H32.2827C30.8346 35.3086 29.6565 36.4867 29.6565 37.9348V42.5859V47.2371C29.6565 48.6852 30.8346 49.8633 32.2827 49.8633H36.8411C38.2892 49.8633 39.4673 48.6852 39.4673 47.2371V43.8646C39.4673 42.4165 38.2892 41.2384 36.8411 41.2384H34.8584H32.3518V38.004H38.1198V38.0039ZM34.8584 43.9336H36.7721V47.168H32.3518V43.9336H34.8584Z" fill="#989898"/>
<path d="M49.8864 41.2383H47.6072H45.3971V38.0039H51.165C51.9092 38.0039 52.5127 37.4004 52.5127 36.6563C52.5127 35.9121 51.9092 35.3086 51.165 35.3086H45.328C43.8799 35.3086 42.7018 36.4867 42.7018 37.9348V41.3073C42.7018 42.7553 43.8799 43.9335 45.328 43.9335H47.6072H49.8173V47.1678H44.0493C43.3051 47.1678 42.7017 47.7713 42.7017 48.5155C42.7017 49.2597 43.3051 49.8631 44.0493 49.8631H49.8864C51.3344 49.8631 52.5126 48.685 52.5126 47.237V43.8645C52.5126 42.4164 51.3344 41.2383 49.8864 41.2383Z" fill="#989898"/>
</svg>
