<svg width="76" height="75" viewBox="0 0 76 75" fill="none" xmlns="http://www.w3.org/2000/svg">
<path fill-rule="evenodd" clip-rule="evenodd" d="M37.4112 0.000541067C30.0865 0.0966926 22.9537 2.35867 16.9102 6.50187C10.8666 10.6451 6.18206 16.4845 3.4459 23.2857C0.709734 30.0868 0.0442036 37.5459 1.53282 44.7247C3.02144 51.9035 6.59781 58.4814 11.8121 63.631C17.0264 68.7806 23.6457 72.272 30.8374 73.6658C38.0292 75.0597 45.4722 74.2939 52.2301 71.4646C58.9881 68.6354 64.7593 63.8692 68.8177 57.7655C72.8761 51.6618 75.0405 44.4932 75.0387 37.1614C74.9595 27.2435 70.9539 17.7617 63.9002 10.7955C56.8465 3.82929 47.3205 -0.0527282 37.4112 0.000541067ZM37.4112 72.8041C30.3899 72.7115 23.5528 70.5431 17.7595 66.5716C11.9663 62.6 7.47568 57.0026 4.85239 50.4834C2.2291 43.9642 1.59023 36.8142 3.01619 29.9326C4.44216 23.051 7.8694 16.7449 12.8666 11.8076C17.8639 6.87024 24.2082 3.52212 31.1016 2.18407C37.9951 0.846024 45.1298 1.57785 51.6088 4.28761C58.0877 6.99736 63.6215 11.564 67.5142 17.4132C71.407 23.2625 73.4848 30.1333 73.4865 37.1614C73.4153 46.673 69.577 55.7677 62.8137 62.45C56.0504 69.1322 46.9146 72.856 37.4112 72.8041ZM37.4469 31.8042C36.2617 31.8218 35.108 32.1896 34.1311 32.8614C33.1541 33.5333 32.3974 34.4793 31.956 35.5803C31.5146 36.6814 31.4082 37.8883 31.6502 39.0497C31.8922 40.2112 32.4716 41.2751 33.3159 42.1078C34.1602 42.9405 35.2316 43.5048 36.3954 43.7298C37.5593 43.9549 38.7638 43.8308 39.8572 43.3728C40.9507 42.9148 41.8845 42.1435 42.5413 41.1559C43.1981 40.1683 43.5484 39.0085 43.5486 37.8221C43.5446 37.0254 43.3836 36.2373 43.0744 35.5032C42.7653 34.769 42.3142 34.1031 41.7472 33.5439C41.1802 32.9847 40.5085 32.5431 39.7705 32.2445C39.0326 31.946 38.2429 31.7964 37.4469 31.8042ZM51.7022 27.1791C51.3974 26.3939 50.9296 25.6824 50.3299 25.0914C49.7302 24.5005 49.0121 24.0435 48.223 23.7506C47.1385 23.3446 45.9912 23.1329 44.8333 23.1255C42.9064 23.0362 42.3355 23.0184 37.4469 23.0184C32.5584 23.0184 31.9874 23.0362 30.0606 23.1255C28.9027 23.1329 27.7552 23.3446 26.6707 23.7506C25.8816 24.0435 25.1634 24.5005 24.5637 25.0914C23.9641 25.6824 23.4965 26.3939 23.1917 27.1791C22.7952 28.2485 22.5838 29.3778 22.567 30.5183C22.4778 32.4291 22.4601 33.0006 22.4601 37.8221C22.4601 42.6435 22.4778 43.2149 22.567 45.1256C22.5838 46.2661 22.7952 47.3954 23.1917 48.4649C23.4965 49.25 23.9641 49.9615 24.5637 50.5525C25.1634 51.1435 25.8816 51.6006 26.6707 51.8935C27.7552 52.2995 28.9027 52.511 30.0606 52.5185C31.9874 52.6077 32.5584 52.6255 37.4469 52.6255C42.3355 52.6255 42.9064 52.6077 44.8333 52.5185C45.9912 52.511 47.1385 52.2995 48.223 51.8935C49.0121 51.6006 49.7302 51.1435 50.3299 50.5525C50.9296 49.9615 51.3974 49.25 51.7022 48.4649C52.1076 47.3979 52.319 46.267 52.3266 45.1256C52.4158 43.2149 52.4338 42.6435 52.4338 37.8221C52.4338 33.0006 52.4158 32.4291 52.3266 30.5183C52.319 29.3769 52.1076 28.246 51.7022 27.1791ZM37.4469 47.0898C35.6211 47.0652 33.8431 46.5008 32.3369 45.4676C30.8307 44.4344 29.6634 42.9783 28.9816 41.2828C28.2999 39.5873 28.1343 37.728 28.5055 35.9385C28.8768 34.149 29.7685 32.5093 31.0683 31.2257C32.3681 29.942 34.018 29.0717 35.8107 28.7241C37.6034 28.3765 39.4588 28.5671 41.1435 29.2721C42.8282 29.9771 44.2671 31.1649 45.2791 32.6862C46.2912 34.2074 46.8314 35.9944 46.8315 37.8221C46.8146 40.2965 45.8163 42.6628 44.0564 44.4008C42.2966 46.1388 39.9192 47.106 37.4469 47.0898ZM47.2061 30.3577C46.779 30.3524 46.3628 30.2209 46.01 29.9797C45.6573 29.7385 45.3836 29.3984 45.2234 29.0021C45.0631 28.6057 45.0235 28.1708 45.1095 27.7519C45.1954 27.3331 45.4031 26.9489 45.7064 26.6478C46.0097 26.3467 46.3952 26.1421 46.8143 26.0595C47.2335 25.9769 47.6676 26.0201 48.0623 26.1838C48.457 26.3474 48.7947 26.6239 49.0327 26.979C49.2708 27.334 49.3988 27.7516 49.4006 28.1792C49.3973 28.759 49.1644 29.3139 48.7531 29.7223C48.3418 30.1306 47.7855 30.3591 47.2061 30.3577ZM37.4112 5.92902C31.2534 6.01003 25.257 7.91191 20.1764 11.3954C15.0957 14.8788 11.1578 19.7884 8.85799 25.5063C6.55817 31.2241 5.99902 37.4951 7.25113 43.5302C8.50325 49.5652 11.5106 55.0948 15.8948 59.4235C20.279 63.7522 25.8444 66.6866 31.8907 67.8575C37.9369 69.0283 44.1942 68.3833 49.8752 66.0037C55.5561 63.6242 60.4071 59.6163 63.8179 54.4842C67.2287 49.3521 69.047 43.3252 69.044 37.1614C69.0183 33.0311 68.1794 28.9463 66.5753 25.1407C64.9713 21.3351 62.6336 17.8831 59.6958 14.9825C56.7579 12.0818 53.2775 9.78939 49.4537 8.23593C45.63 6.68247 41.5379 5.89843 37.4112 5.92902ZM55.6272 45.2684C55.5932 46.7649 55.3036 48.2447 54.7709 49.6435C54.3121 50.8559 53.5934 51.9529 52.6655 52.8576C51.7456 53.7751 50.6378 54.4819 49.4185 54.9291C48.0008 55.4546 46.5052 55.7382 44.9938 55.7684C43.0313 55.8577 42.4068 55.8756 37.4469 55.8756C32.487 55.8756 31.8624 55.8577 29.9177 55.7684C28.4005 55.738 26.8991 55.4543 25.4752 54.9291C24.258 54.4776 23.1511 53.7714 22.2282 52.8576C21.3003 51.9529 20.5816 50.8559 20.1228 49.6435C19.5971 48.2434 19.3136 46.7638 19.2843 45.2684C19.1951 43.3398 19.1595 42.7328 19.1595 37.8221C19.1595 32.9114 19.1951 32.3041 19.2843 30.3756C19.3136 28.8801 19.5971 27.4007 20.1228 26.0006C20.5816 24.7882 21.3003 23.691 22.2282 22.7863C23.1511 21.8725 24.258 21.1663 25.4752 20.7148C26.8991 20.1896 28.4005 19.906 29.9177 19.8755C31.8624 19.7863 32.487 19.7683 37.4469 19.7683C42.4068 19.7683 43.0313 19.7863 44.9938 19.8755C46.5052 19.9057 48.0008 20.1893 49.4185 20.7148C50.6378 21.162 51.7456 21.8688 52.6655 22.7863C53.5934 23.691 54.3121 24.7882 54.7709 26.0006C55.3036 27.3994 55.5932 28.879 55.6272 30.3756C55.7164 32.3041 55.7344 32.9114 55.7344 37.8221C55.7344 42.7328 55.7164 43.3398 55.6272 45.2684Z" fill="#734B3B"/>
</svg>
