<svg width="76" height="75" viewBox="0 0 76 75" fill="none" xmlns="http://www.w3.org/2000/svg">
<path fill-rule="evenodd" clip-rule="evenodd" d="M37.6783 75C30.2681 75 23.0242 72.8005 16.8628 68.68C10.7014 64.5594 5.89913 58.7029 3.06335 51.8506C0.227561 44.9984 -0.514277 37.4583 0.931394 30.184C2.37706 22.9097 5.94535 16.2279 11.1852 10.9834C16.425 5.73898 23.101 2.16755 30.3688 0.720603C37.6367 -0.726343 45.1702 0.0161495 52.0164 2.85444C58.8626 5.69272 64.714 10.4992 68.8309 16.666C72.9478 22.8329 75.1453 30.0832 75.1453 37.5C75.1344 47.4422 71.1836 56.9742 64.1595 64.0045C57.1354 71.0347 47.6119 74.9891 37.6783 75ZM37.6783 1.55352C30.5751 1.55352 23.6314 3.66185 17.7252 7.61169C11.8191 11.5615 7.2158 17.1756 4.4975 23.7439C1.77919 30.3123 1.06797 37.5398 2.45375 44.5127C3.83953 51.4856 7.26009 57.8906 12.2829 62.9178C17.3056 67.945 23.705 71.3686 30.6718 72.7556C37.6386 74.1426 44.8597 73.4308 51.4222 70.7101C57.9848 67.9894 63.5939 63.382 67.5403 57.4707C71.4866 51.5593 73.5931 44.6095 73.5931 37.5C73.5827 27.9696 69.7956 18.8324 63.0625 12.0934C56.3294 5.3544 47.2003 1.56391 37.6783 1.55352ZM36.6079 50.2857C36.3207 50.6825 35.9042 50.9665 35.4303 51.0892C35.0021 51.0892 34.895 50.7856 34.895 50.357V42.107H32.8967V51.1071C32.8967 53.2857 34.3777 53.3035 35.466 52.6785C35.9009 52.4129 36.2871 52.0746 36.6079 51.6784V52.8749H38.6061V42.107H36.6079V50.2857ZM32.9325 38.2856H26.0278V40.4107H28.3473V52.8749H30.6132V40.4107H32.9325V38.2856ZM44.351 41.9821C43.9987 42.0082 43.6563 42.1113 43.3481 42.284C43.0398 42.4568 42.7732 42.695 42.5669 42.982V38.2856H40.5508V52.8749H42.5669V52.0357C42.7844 52.3379 43.0716 52.5833 43.4038 52.7511C43.7361 52.9189 44.1039 53.0044 44.476 53C44.7602 52.9907 45.0387 52.9186 45.2919 52.789C45.545 52.6594 45.7666 52.4754 45.9404 52.2502C46.1143 52.025 46.2362 51.7643 46.2976 51.4864C46.3591 51.2085 46.3584 50.9204 46.2957 50.6428V44.6786C46.2957 43.2143 45.814 41.9821 44.351 41.9821ZM44.2441 50.357C44.27 50.6143 44.2069 50.8728 44.0655 51.0892C43.9326 51.2188 43.7601 51.2998 43.5757 51.3192C43.3912 51.3386 43.2055 51.2955 43.0486 51.1965C42.8666 51.1018 42.7033 50.9746 42.5669 50.8213V44.1249C42.6843 43.9902 42.8228 43.8757 42.9772 43.7857C43.1472 43.693 43.3436 43.6602 43.5345 43.6926C43.7254 43.725 43.8999 43.8207 44.03 43.9642C44.1891 44.2139 44.2641 44.508 44.2441 44.8035V50.357ZM38.4278 30.2677C38.5587 30.2638 38.6872 30.2318 38.8047 30.1738C38.9223 30.1158 39.0259 30.0332 39.1088 29.9316C39.1917 29.83 39.2519 29.7118 39.2852 29.585C39.3185 29.4582 39.3242 29.3256 39.302 29.1963V23.9464C39.3254 23.8158 39.3199 23.6817 39.2858 23.5534C39.2518 23.4252 39.1901 23.3058 39.1051 23.204C39.02 23.1022 38.9135 23.0204 38.7934 22.9642C38.6733 22.908 38.5425 22.879 38.4099 22.879C38.2773 22.879 38.1463 22.908 38.0261 22.9642C37.906 23.0204 37.7998 23.1022 37.7147 23.204C37.6296 23.3058 37.5677 23.4252 37.5337 23.5534C37.4997 23.6817 37.4944 23.8158 37.5178 23.9464V29.1963C37.5022 29.3274 37.5137 29.4604 37.5518 29.5867C37.5899 29.7131 37.6537 29.8301 37.7391 29.9307C37.8245 30.0313 37.9299 30.1132 38.0484 30.1712C38.1668 30.2291 38.296 30.262 38.4278 30.2677ZM37.6783 5.98205C31.4502 5.98205 25.3619 7.83063 20.1834 11.2939C15.0049 14.7571 10.9686 19.6794 8.58521 25.4385C6.2018 31.1977 5.57818 37.5349 6.79323 43.6488C8.00828 49.7627 11.0075 55.3787 15.4114 59.7865C19.8154 64.1944 25.4264 67.1962 31.5349 68.4123C37.6434 69.6284 43.9751 69.0042 49.7291 66.6187C55.4832 64.2332 60.4012 60.1934 63.8613 55.0103C67.3215 49.8272 69.1685 43.7336 69.1685 37.5C69.1692 33.3608 68.355 29.2619 66.7728 25.4377C65.1905 21.6134 62.871 18.1387 59.9468 15.2119C57.0225 12.285 53.5509 9.96353 49.73 8.37986C45.9091 6.79619 41.8139 5.98135 37.6783 5.98205ZM43.227 20.8214H45.3145V29.4821C45.3145 29.9285 45.4393 30.2322 45.8853 30.2322C46.3828 30.1089 46.8198 29.811 47.1165 29.3927V20.8214H49.2038V32.1071H47.1165V30.8571C46.8416 31.2574 46.4814 31.5915 46.0617 31.8355C45.6421 32.0794 45.1737 32.227 44.6901 32.2677C43.5661 32.2677 43.227 31.3748 43.227 30.2498V20.8214ZM38.4278 20.7321C38.8277 20.7229 39.2253 20.7955 39.5964 20.945C39.9675 21.0946 40.3044 21.3181 40.5865 21.602C40.8686 21.886 41.0898 22.2246 41.237 22.5969C41.3843 22.9692 41.4543 23.3677 41.4428 23.7679V29.2857C41.4665 29.689 41.4048 30.0928 41.2619 30.4707C41.1189 30.8485 40.8981 31.1919 40.6135 31.4784C40.3289 31.7649 39.9872 31.9882 39.6106 32.1334C39.2339 32.2787 38.8308 32.3426 38.4278 32.3213C38.0143 32.3798 37.5928 32.3419 37.1964 32.2106C36.7999 32.0793 36.439 31.8581 36.142 31.5643C35.845 31.2705 35.6199 30.9119 35.4841 30.5167C35.3483 30.1214 35.3053 29.7002 35.3589 29.2857V23.7679C35.3353 23.36 35.3989 22.9517 35.5453 22.5703C35.6917 22.1889 35.9177 21.843 36.208 21.5558C36.4984 21.2686 36.8463 21.0468 37.229 20.9047C37.6118 20.7627 38.0205 20.7037 38.4278 20.7321ZM29.9174 16.8036L31.541 22.9285L33.0575 16.8036H35.466L32.7184 25.8928V32.1071H30.3455V25.8928L27.5443 16.8036H29.9174ZM56.84 51.6608C56.8416 52.2929 56.7188 52.9191 56.4785 53.5036C56.2381 54.0881 55.8849 54.6194 55.4392 55.0672C54.9934 55.515 54.4638 55.8705 53.8806 56.1133C53.2975 56.356 52.6723 56.4814 52.0408 56.4821H27.3124C26.0348 56.4821 24.8095 55.9742 23.9061 55.07C23.0027 54.1658 22.4953 52.9395 22.4953 51.6608V39.4999C22.4953 38.2212 23.0027 36.9949 23.9061 36.0907C24.8095 35.1865 26.0348 34.6786 27.3124 34.6786H52.0408C52.6723 34.6793 53.2975 34.8044 53.8806 35.0472C54.4638 35.29 54.9934 35.6455 55.4392 36.0933C55.8849 36.5411 56.2381 37.0726 56.4785 37.6571C56.7188 38.2417 56.8416 38.8678 56.84 39.4999V51.6608ZM50.8453 41.8393C50.4331 41.8277 50.023 41.9022 49.6414 42.0586C49.2597 42.215 48.9151 42.4496 48.6295 42.7472C48.3439 43.0449 48.1236 43.3993 47.9829 43.7872C47.8421 44.1752 47.7841 44.5881 47.8124 44.9999V49.8393C47.7487 50.2523 47.7755 50.6741 47.891 51.0757C48.0064 51.4773 48.2077 51.849 48.481 52.165C48.7542 52.4809 49.0929 52.7335 49.4734 52.9054C49.854 53.0774 50.2673 53.1646 50.6848 53.1607C51.116 53.1967 51.5497 53.1325 51.9521 52.9732C52.3545 52.814 52.7147 52.564 53.0047 52.2426C53.2947 51.9212 53.5068 51.537 53.6243 51.1202C53.7418 50.7033 53.7615 50.265 53.682 49.8393V49.0356H51.6302V49.7678C51.6302 50.7142 51.5767 51.2856 50.7382 51.2856C49.9353 51.2856 49.8639 50.5892 49.8639 49.7678V47.7499H53.682V44.9999C53.7488 44.5973 53.7243 44.1851 53.6102 43.7933C53.4961 43.4016 53.2954 43.0405 53.023 42.737C52.7505 42.4334 52.4134 42.1951 52.0364 42.0397C51.6594 41.8843 51.2523 41.8159 50.8453 41.8393ZM51.6302 46.0715H49.8639V44.982C49.8639 44.2499 50.0067 43.7321 50.756 43.7321C51.4697 43.7321 51.6302 44.2499 51.6302 44.982V46.0715Z" fill="#BD2200"/>
</svg>
