<svg width="81" height="71" viewBox="0 0 81 71" fill="none" xmlns="http://www.w3.org/2000/svg">
<path d="M27.2197 12.4527C27.081 12.4593 26.9451 12.4944 26.8204 12.5556L0.599201 25.4349C0.428886 25.5187 0.285421 25.6485 0.185046 25.8095C0.0846713 25.9706 0.0313957 26.1566 0.03125 26.3464V56.8632C0.0314706 57.0555 0.0862325 57.2438 0.189178 57.4062C0.292124 57.5686 0.43903 57.6985 0.612841 57.7808L27.025 70.2894C27.1617 70.3542 27.3111 70.3878 27.4623 70.3875C27.6135 70.3873 27.7628 70.3534 27.8993 70.2881L53.9419 57.8366C54.115 57.7538 54.2612 57.6237 54.3634 57.4613C54.4657 57.2989 54.5199 57.1109 54.5198 56.919V26.2335C54.52 26.0427 54.4665 25.8557 54.3654 25.6938C54.2643 25.532 54.1197 25.4018 53.9481 25.3183L27.7133 12.5531C27.5598 12.4788 27.3901 12.4442 27.2197 12.4527ZM27.2693 14.5992L52.4861 26.8684V56.2791L27.4591 68.2458L2.06496 56.2196V26.9801L27.2693 14.5992Z" fill="#989898"/>
<path d="M53.5253 25.2104C53.3653 25.2087 53.2073 25.2448 53.064 25.3158L27.1875 37.7065L1.48586 25.4299C1.36489 25.3678 1.23269 25.3305 1.09708 25.3204C0.961476 25.3103 0.825217 25.3275 0.696373 25.371C0.567529 25.4145 0.448718 25.4834 0.346975 25.5736C0.245233 25.6638 0.162626 25.7735 0.104046 25.8962C0.0454654 26.019 0.0121021 26.1522 0.00593039 26.288C-0.000241296 26.4239 0.0209041 26.5596 0.0681154 26.6871C0.115327 26.8146 0.187645 26.9314 0.280787 27.0305C0.373929 27.1295 0.486002 27.2089 0.610372 27.2639L26.7497 39.7502C26.8866 39.8156 27.0364 39.8495 27.1881 39.8495C27.3398 39.8495 27.4896 39.8156 27.6265 39.7502L53.9419 27.1498C54.1516 27.053 54.322 26.8878 54.4252 26.6812C54.5283 26.4747 54.5581 26.2391 54.5096 26.0134C54.4611 25.7877 54.3372 25.5851 54.1583 25.4392C53.9794 25.2932 53.7561 25.2125 53.5253 25.2104Z" fill="#989898"/>
<path d="M27.1626 37.8021C26.8931 37.8085 26.6372 37.9217 26.4511 38.1168C26.2651 38.3119 26.1642 38.573 26.1706 38.8425L26.4446 69.3804C26.4426 69.5159 26.4676 69.6505 26.5184 69.7763C26.5691 69.902 26.6445 70.0163 26.7401 70.1125C26.8357 70.2086 26.9495 70.2847 27.0749 70.3362C27.2004 70.3877 27.3348 70.4136 27.4704 70.4124C27.606 70.4111 27.7399 70.3828 27.8644 70.329C27.9888 70.2752 28.1013 70.1971 28.1951 70.0992C28.2889 70.0013 28.3622 69.8856 28.4106 69.759C28.459 69.6323 28.4816 69.4973 28.4771 69.3618L28.2043 38.8239C28.205 38.6878 28.1784 38.553 28.1261 38.4274C28.0738 38.3017 27.9967 38.1879 27.8996 38.0926C27.8025 37.9973 27.6872 37.9225 27.5606 37.8726C27.434 37.8227 27.2987 37.7987 27.1626 37.8021Z" fill="#989898"/>
<path d="M27.2917 43.5311C27.1315 43.5285 26.973 43.5638 26.8291 43.6341L0.615334 55.943C0.490031 55.9968 0.376839 56.0753 0.282498 56.1738C0.188157 56.2722 0.114595 56.3887 0.06619 56.5162C0.0177853 56.6437 -0.00447174 56.7796 0.000743729 56.9159C0.0059592 57.0522 0.0385408 57.186 0.0965486 57.3094C0.154556 57.4328 0.236804 57.5433 0.338396 57.6343C0.439988 57.7253 0.558847 57.7949 0.687897 57.839C0.816947 57.8831 0.953549 57.9008 1.08957 57.891C1.22559 57.8812 1.35826 57.8441 1.47966 57.782L27.6934 45.4743C27.9041 45.3793 28.0762 45.2154 28.1812 45.0095C28.2862 44.8036 28.3179 44.5681 28.2711 44.3418C28.2243 44.1154 28.1018 43.9118 27.9237 43.7644C27.7457 43.6171 27.5227 43.5348 27.2917 43.5311Z" fill="#989898"/>
<path d="M27.2012 43.5325C26.9729 43.5429 26.7549 43.6299 26.5822 43.7795C26.4095 43.929 26.2922 44.1323 26.2492 44.3567C26.2063 44.5811 26.2401 44.8134 26.3453 45.0161C26.4505 45.2189 26.6209 45.3803 26.8291 45.4744L53.0429 57.7821C53.1644 57.8452 53.2975 57.8832 53.4341 57.8937C53.5706 57.9042 53.7079 57.8869 53.8377 57.843C53.9674 57.7991 54.087 57.7295 54.1891 57.6382C54.2912 57.5469 54.3739 57.436 54.4321 57.312C54.4903 57.188 54.5228 57.0535 54.5277 56.9166C54.5327 56.7797 54.5099 56.6433 54.4607 56.5154C54.4116 56.3876 54.3371 56.2709 54.2418 56.1726C54.1465 56.0742 54.0323 55.9961 53.906 55.943L27.6935 43.6341C27.5405 43.5596 27.3712 43.5246 27.2012 43.5325Z" fill="#989898"/>
<path d="M53.2623 0.00108281C53.1269 0.00736272 52.9941 0.0406712 52.8717 0.0990481L26.8291 12.5506C26.6569 12.6329 26.5114 12.7621 26.4092 12.9233C26.307 13.0845 26.2522 13.2712 26.2512 13.462L26.0739 44.4054C26.0729 44.5988 26.1271 44.7884 26.2301 44.952C26.3331 45.1157 26.4807 45.2465 26.6555 45.3293L53.0676 57.8378C53.2043 57.9027 53.3537 57.9362 53.5049 57.936C53.6562 57.9357 53.8054 57.9018 53.9419 57.8365L79.9833 45.385C80.1562 45.3023 80.3022 45.1724 80.4045 45.0102C80.5067 44.8481 80.5611 44.6603 80.5612 44.4686V13.782C80.5611 13.5913 80.5075 13.4046 80.4065 13.243C80.3054 13.0814 80.1609 12.9514 79.9895 12.868L53.7546 0.102768C53.6016 0.0281937 53.4324 -0.00677058 53.2623 0.00108281ZM53.3058 2.14516L78.5287 14.4169V43.8275L53.5005 55.7942L28.1101 43.7693L28.2812 14.1106L53.3058 2.14516Z" fill="#989898"/>
<path d="M27.2148 12.4451C26.9866 12.4541 26.768 12.5397 26.5944 12.6881C26.4208 12.8366 26.3022 13.0392 26.2578 13.2632C26.2134 13.4873 26.2457 13.7198 26.3496 13.9232C26.4535 14.1266 26.6229 14.2891 26.8304 14.3845L52.9698 26.8708C53.105 26.9355 53.2528 26.9695 53.4026 26.9703C53.5525 26.9712 53.7007 26.9389 53.8366 26.8759L79.9747 14.7032C80.0984 14.6486 80.2099 14.5699 80.3028 14.4716C80.3957 14.3733 80.468 14.2576 80.5156 14.131C80.5632 14.0044 80.585 13.8697 80.5799 13.7346C80.5747 13.5994 80.5427 13.4667 80.4856 13.3442C80.4285 13.2216 80.3476 13.1116 80.2475 13.0207C80.1474 12.9299 80.0302 12.8598 79.9027 12.8148C79.7752 12.7698 79.64 12.7506 79.505 12.7584C79.3701 12.7663 79.238 12.801 79.1166 12.8605L53.4137 24.8296L27.7059 12.5505C27.5536 12.4748 27.3848 12.4386 27.2148 12.4451Z" fill="#989898"/>
<path d="M53.5115 30.6519C53.3514 30.6493 53.1929 30.6845 53.049 30.7548L26.8365 43.0637C26.7102 43.1168 26.596 43.1949 26.5006 43.2932C26.4053 43.3916 26.3308 43.5082 26.2817 43.6361C26.2325 43.7639 26.2097 43.9004 26.2146 44.0373C26.2196 44.1742 26.2521 44.3087 26.3103 44.4327C26.3685 44.5567 26.4512 44.6676 26.5533 44.7589C26.6555 44.8501 26.775 44.9198 26.9048 44.9637C27.0345 45.0076 27.1718 45.0248 27.3084 45.0144C27.445 45.0039 27.578 44.9659 27.6995 44.9027L53.9133 32.5951C54.124 32.5001 54.296 32.3361 54.401 32.1302C54.5061 31.9243 54.5378 31.6888 54.491 31.4625C54.4442 31.2362 54.3217 31.0325 54.1436 30.8852C53.9656 30.7378 53.7426 30.6555 53.5115 30.6519Z" fill="#989898"/>
<path d="M53.4211 30.6529C53.1929 30.6634 52.9749 30.7504 52.8022 30.8999C52.6295 31.0495 52.5122 31.2528 52.4692 31.4772C52.4262 31.7016 52.4601 31.9339 52.5653 32.1366C52.6705 32.3394 52.8409 32.5008 53.0491 32.5949L79.2629 44.9026C79.3843 44.9647 79.517 45.0018 79.653 45.0116C79.789 45.0214 79.9256 45.0037 80.0547 44.9596C80.1838 44.9155 80.3026 44.8459 80.4042 44.7549C80.5058 44.6639 80.5881 44.5535 80.6461 44.43C80.7041 44.3066 80.7367 44.1728 80.7419 44.0365C80.7471 43.9002 80.7248 43.7642 80.6764 43.6368C80.628 43.5093 80.5544 43.3928 80.4601 43.2943C80.3657 43.1958 80.2525 43.1174 80.1272 43.0635L53.9134 30.7546C53.7604 30.6801 53.5912 30.6451 53.4211 30.6529Z" fill="#989898"/>
</svg>
