<svg width="61" height="71" viewBox="0 0 61 71" fill="none" xmlns="http://www.w3.org/2000/svg">
<path d="M30.3066 0C28.5061 0 27.0521 1.23454 25.708 2.39625C24.9015 3.09427 24.0875 3.8459 23.2722 4.0636C22.4108 4.28935 21.2882 4.04884 20.2044 3.84358C18.4915 3.51828 16.6479 3.19113 15.1491 4.05839C13.6285 4.93856 12.9915 6.71379 12.413 8.37538C12.0561 9.40285 11.7149 10.4834 11.1001 11.1001C11.0998 11.1004 11.1001 11.1005 11.1001 11.101C10.4833 11.7169 9.40271 12.057 8.37539 12.4138C6.71391 12.9915 4.93841 13.6288 4.05736 15.1511C3.191 16.6488 3.51977 18.4918 3.84362 20.2053C4.04884 21.2888 4.29259 22.4135 4.06154 23.2762C3.84393 24.0912 3.09365 24.9046 2.39728 25.711C1.23487 27.055 0 28.5091 0 30.3095C0 32.11 1.23455 33.564 2.39628 34.9081C3.09438 35.7147 3.84498 36.5289 4.06259 37.3439C4.29268 38.2066 4.04806 39.3307 3.84362 40.4138C3.51977 42.1281 3.19023 43.9705 4.05736 45.469C4.9375 46.9896 6.71378 47.6267 8.37539 48.2052C9.40294 48.5622 10.4825 48.9034 11.0991 49.518C11.0994 49.518 11.0991 49.518 11.0991 49.518C11.1743 49.5933 11.244 49.6759 11.3097 49.7641C11.3757 49.8526 11.3951 49.9675 11.3618 50.0728L5.55788 68.4523C5.44027 68.8268 5.50654 69.2323 5.73825 69.5482C5.97057 69.8643 6.33649 70.0508 6.72886 70.0508H20.8769C21.4141 70.0508 21.8867 69.7048 22.0479 69.1927L25.3983 58.5848C25.4724 58.3494 25.7633 58.267 25.9499 58.4283C27.2291 59.5292 28.6138 60.6192 30.3086 60.6192C32.0043 60.6192 33.3881 59.5293 34.6673 58.4283C34.8539 58.267 35.1448 58.3494 35.2189 58.5848L38.5682 69.1916C38.7296 69.7045 39.2023 70.0508 39.7403 70.0508H53.8873C54.2797 70.0508 54.6469 69.864 54.8789 69.5482C55.1104 69.2315 55.176 68.827 55.0583 68.4523L49.2554 50.0728C49.2222 49.967 49.2417 49.8517 49.3086 49.7631C49.3725 49.6781 49.4403 49.5969 49.5151 49.5212C49.5151 49.5207 49.5151 49.5199 49.5151 49.5193C50.1317 48.9036 51.2123 48.5624 52.2397 48.2054C53.9013 47.6277 55.6768 46.9915 56.5578 45.4692C57.4242 43.9714 57.0964 42.1273 56.7726 40.414C56.5675 39.3311 56.3229 38.208 56.5536 37.3452V37.3439C56.7707 36.5285 57.5219 35.7146 58.2189 34.9091C59.3813 33.5652 60.6162 32.11 60.6162 30.3095C60.6162 28.5092 59.3806 27.0551 58.2189 25.711C57.5209 24.9045 56.7702 24.0913 56.5526 23.2762C56.3224 22.4131 56.5681 21.2882 56.7726 20.2053C57.0964 18.491 57.425 16.6498 56.5578 15.1511C55.6776 13.6304 53.9024 12.9934 52.2408 12.4149C51.2133 12.058 50.1328 11.7168 49.5161 11.1021C49.5158 11.1017 49.5156 11.1016 49.5161 11.1011C48.9002 10.4843 48.5601 9.40374 48.2032 8.37642C47.6255 6.71496 46.9883 4.93941 45.466 4.05839C43.9674 3.19121 42.1244 3.51977 40.4118 3.84358C39.3286 4.04796 38.2032 4.29283 37.3409 4.06256C36.5256 3.84489 35.7123 3.09352 34.9061 2.39729C33.5621 1.23485 32.108 4.75942e-06 30.3075 4.75942e-06L30.3066 0ZM30.3066 2.45776C30.8259 2.45776 31.3162 2.71942 31.8123 3.05943C32.3084 3.39945 32.8105 3.83487 33.2982 4.2565C34.3725 5.18624 35.4484 6.1015 36.7049 6.4369C38.0146 6.78772 39.4385 6.52997 40.8665 6.25963C41.4837 6.14249 42.1195 6.02145 42.6986 5.97496C43.2777 5.92847 43.8068 5.93771 44.2346 6.1856C44.6706 6.43814 44.9514 6.8994 45.2044 7.43169C45.4573 7.96397 45.6717 8.58264 45.88 9.18246C46.354 10.5446 46.8357 11.8958 47.7779 12.8373C48.7193 13.7795 50.0706 14.2612 51.4327 14.7351C52.0324 14.9438 52.651 15.1588 53.1835 15.4119C53.716 15.6649 54.178 15.9456 54.4306 16.3816C54.6786 16.8095 54.6879 17.339 54.6413 17.9176C54.5946 18.4962 54.4729 19.1311 54.3566 19.7476C54.0862 21.1765 53.8279 22.6014 54.1772 23.9103C54.5134 25.1675 55.4299 26.2435 56.3597 27.318C56.7817 27.806 57.2169 28.3079 57.5568 28.8039C57.8967 29.2999 58.1584 29.7904 58.1584 30.3096C58.1584 30.8289 57.8968 31.3193 57.5568 31.8154C57.2168 32.3115 56.7813 32.8136 56.3597 33.3013C55.43 34.3755 54.5147 35.4525 54.1793 36.709C53.8292 38.0179 54.087 39.4425 54.3566 40.8706C54.4733 41.4876 54.5947 42.1237 54.6413 42.7027C54.6878 43.2818 54.6786 43.8108 54.4306 44.2387C54.178 44.6748 53.716 44.9555 53.1835 45.2085C52.6509 45.4614 52.0325 45.6758 51.4327 45.8842C50.0706 46.3581 48.7193 46.8398 47.7779 47.782C46.8357 48.7234 46.354 50.0747 45.88 51.4368C45.6714 52.0365 45.4572 52.6551 45.2044 53.1876C44.9515 53.7201 44.6707 54.1821 44.2346 54.4347C43.8066 54.6822 43.2765 54.6911 42.6976 54.6443C42.1186 54.5975 41.4838 54.4764 40.8676 54.3596C39.4374 54.0885 38.0143 53.8319 36.7059 54.1813C35.4485 54.5175 34.3726 55.433 33.2982 56.3628C32.8102 56.7848 32.3083 57.2199 31.8123 57.5598C31.3163 57.8998 30.8258 58.1615 30.3066 58.1615C29.7872 58.1615 29.297 57.8999 28.8008 57.5598C28.3047 57.2198 27.8026 56.7844 27.3149 56.3628C26.2407 55.4331 25.1638 54.5178 23.9072 54.1824C23.4511 54.0598 22.9819 54.0114 22.5026 54.0114C21.6079 54.0114 20.6762 54.1844 19.7456 54.3596C19.1279 54.4763 18.4924 54.5976 17.9135 54.6443C17.3346 54.6911 16.8051 54.6823 16.3775 54.4347C15.9414 54.1821 15.6607 53.7201 15.4077 53.1876C15.1548 52.655 14.9404 52.0366 14.732 51.4368C14.2581 50.0747 13.7764 48.7234 12.8342 47.782C11.8927 46.8398 10.5415 46.3581 9.17941 45.8842C8.57971 45.6755 7.96111 45.4613 7.42863 45.2085C6.8961 44.9557 6.4341 44.6748 6.18147 44.2387C5.9334 43.8106 5.92493 43.2816 5.97187 42.7027C6.01885 42.1239 6.14026 41.4881 6.25656 40.8717C6.5269 39.4429 6.78427 38.0191 6.43487 36.71C6.09869 35.4527 5.18212 34.3756 4.25238 33.3013C3.83032 32.8132 3.395 32.3114 3.05531 31.8154C2.71566 31.3193 2.45471 30.8287 2.45471 30.3096C2.45471 29.7905 2.71557 29.3 3.05531 28.8039C3.39509 28.3078 3.83073 27.8057 4.25238 27.318C5.18212 26.2436 6.09846 25.1667 6.43383 23.9103C6.7839 22.6013 6.52618 21.1778 6.25656 19.7497C6.13985 19.1328 6.01768 18.4977 5.97088 17.9186C5.92397 17.3396 5.93351 16.8096 6.18147 16.3816C6.43405 15.9456 6.8961 15.664 7.42863 15.4108C7.96116 15.1576 8.57953 14.9435 9.17941 14.7351C10.5415 14.2612 11.8927 13.7795 12.8342 12.8373C13.7764 11.8958 14.2581 10.5446 14.732 9.18246C14.9407 8.58278 15.1549 7.96395 15.4077 7.43169C15.6605 6.89944 15.9415 6.43816 16.3775 6.1856V6.18653C16.805 5.93815 17.3344 5.92827 17.9135 5.97485C18.4926 6.02144 19.1279 6.14279 19.7445 6.25952C21.174 6.53062 22.598 6.78821 23.9062 6.43887C25.1634 6.10273 26.2406 5.18614 27.3149 4.25639C27.803 3.83435 28.3048 3.39924 28.8008 3.05931C29.2969 2.7194 29.7874 2.45765 30.3066 2.45765V2.45776ZM30.3066 11.0041C19.6581 11.0041 11 19.6612 11 30.3096C11 40.9581 19.6581 49.6162 30.3066 49.6162C40.955 49.6162 49.6121 40.9581 49.6121 30.3096C49.6121 19.6612 40.955 11.0041 30.3066 11.0041ZM30.3066 13.4619C39.5933 13.4619 47.1543 21.0229 47.1543 30.3096C47.1543 39.5963 39.5933 47.1584 30.3066 47.1584C21.0198 47.1584 13.4578 39.5964 13.4578 30.3096C13.4578 21.0229 21.0198 13.4619 30.3066 13.4619ZM47.6913 54.1052C47.8434 54.1027 47.9793 54.2 48.025 54.345L52.0677 67.1469C52.1375 67.3681 51.9723 67.5934 51.7403 67.5932H40.8905C40.7407 67.5933 40.6081 67.4962 40.5631 67.3533L37.2836 56.9686C37.2213 56.7701 37.3485 56.5622 37.5537 56.5275C38.3773 56.3874 39.4057 56.5847 40.4108 56.7746C42.1241 57.0992 43.9664 57.4281 45.4651 56.5609C46.3558 56.0459 46.9367 55.2324 47.3889 54.2992C47.4451 54.1827 47.562 54.1077 47.6913 54.1052ZM12.927 54.1071C13.0538 54.1121 13.1677 54.1859 13.2232 54.3C13.6753 55.2323 14.2567 56.0458 15.1471 56.5617C16.6455 57.4288 18.4894 57.0986 20.2023 56.7755C21.2063 56.5856 22.2342 56.3863 23.0594 56.5283C23.2642 56.5636 23.3908 56.7713 23.3285 56.9694L20.0501 67.3531C20.005 67.496 19.8724 67.5931 19.7226 67.593H8.87177C8.63982 67.5931 8.47457 67.3679 8.54437 67.1467L12.5871 54.3469C12.6335 54.1995 12.7727 54.1014 12.927 54.1071Z" fill="#989898"/>
<path d="M29.7058 17.3857C29.2615 17.3857 28.8486 17.6228 28.6247 18.0067L25.4523 23.4453H19.1015C18.6542 23.4453 18.2391 23.6856 18.0163 24.0735C17.7935 24.4615 17.7952 24.9411 18.0207 25.3274L21.1875 30.7563L18.0206 36.1853C17.7951 36.5717 17.7936 37.0513 18.0162 37.4392H18.0161C18.2389 37.8271 18.654 38.0674 19.1013 38.0674H25.4521L28.6247 43.5061C28.8486 43.89 29.2615 44.127 29.7057 44.127C30.1499 44.127 30.5627 43.89 30.7866 43.5061L33.9592 38.0674H40.3099C40.7572 38.0674 41.1723 37.8271 41.3951 37.4393V37.4392C41.618 37.0512 41.6162 36.5716 41.3907 36.1853L38.2239 30.7563L41.3907 25.3274C41.6161 24.9411 41.618 24.4615 41.3951 24.0735L41.395 24.0734C41.1722 23.6855 40.757 23.4453 40.3098 23.4453H33.9591L30.7865 18.0066C30.5626 17.6228 30.1498 17.3857 29.7056 17.3857H29.7058ZM29.7058 21.1209L31.0616 23.4453H28.3499L29.7058 21.1209ZM21.2804 25.9483H23.9922L22.6363 28.2727L21.2804 25.9483ZM26.8898 25.9483H32.5217L35.3265 30.7563L32.5217 35.5644H26.8898L24.085 30.7563L26.8898 25.9483ZM35.4194 25.9483H38.1312L36.7753 28.2727L35.4194 25.9483ZM22.6363 33.24L23.9922 35.5644H21.2804L22.6363 33.24ZM36.7753 33.24L38.1312 35.5644H35.4194L36.7753 33.24ZM28.3499 38.0674H31.0616L29.7058 40.3918L28.3499 38.0674Z" fill="#989898"/>
</svg>
