<svg width="70" height="70" viewBox="0 0 70 70" fill="none" xmlns="http://www.w3.org/2000/svg">
<path d="M68.5375 0H40.5829C40.3914 -8.73717e-07 40.2018 0.0377193 40.0249 0.111003C39.848 0.184286 39.6872 0.291701 39.5518 0.427111C39.4164 0.562522 39.309 0.723275 39.2357 0.900199C39.1624 1.07712 39.1247 1.26675 39.1247 1.45825V8.54533C37.5454 8.88011 36.1291 9.74723 35.1128 11.0015C34.0966 12.2558 33.542 13.8212 33.542 15.4355C33.542 17.0499 34.0966 18.6152 35.1128 19.8696C36.1291 21.1239 37.5454 21.991 39.1247 22.3258V29.4128C39.1247 29.6043 39.1624 29.794 39.2357 29.9709C39.309 30.1478 39.4164 30.3086 39.5518 30.444C39.6872 30.5794 39.848 30.6868 40.0249 30.7601C40.2018 30.8334 40.3914 30.8711 40.5829 30.8711H48.9679C49.1594 30.8711 49.349 30.8334 49.5259 30.7601C49.7028 30.6868 49.8636 30.5794 49.999 30.444C50.1344 30.3086 50.2418 30.1478 50.3151 29.9709C50.3884 29.794 50.4261 29.6043 50.4261 29.4128C50.4273 28.3172 50.8634 27.2668 51.6385 26.4924C52.4137 25.7181 53.4646 25.2831 54.5603 25.2831C55.6559 25.2831 56.7068 25.7181 57.482 26.4924C58.2571 27.2668 58.6932 28.3172 58.6944 29.4128C58.6944 29.6043 58.7321 29.794 58.8054 29.9709C58.8787 30.1478 58.9861 30.3086 59.1215 30.444C59.2569 30.5794 59.4177 30.6868 59.5946 30.7601C59.7715 30.8334 59.9611 30.8711 60.1526 30.8711H68.5375C68.9243 30.8711 69.2952 30.7174 69.5687 30.444C69.8421 30.1705 69.9958 29.7996 69.9958 29.4128V1.45825C69.9958 1.0715 69.8421 0.700595 69.5687 0.427122C69.2952 0.153649 68.9243 9.2639e-06 68.5375 0ZM67.0793 27.9546H61.4504C61.1156 26.3754 60.2485 24.9591 58.9942 23.9428C57.7399 22.9265 56.1746 22.372 54.5602 22.372C52.9459 22.372 51.3805 22.9265 50.1262 23.9428C48.8719 24.9591 48.0048 26.3754 47.67 27.9546H42.0412V21.0279C42.0412 20.6412 41.8875 20.2703 41.6141 19.9968C41.3406 19.7233 40.9697 19.5697 40.5829 19.5697C39.4868 19.5692 38.4357 19.1335 37.6608 18.3582C36.8858 17.583 36.4505 16.5317 36.4505 15.4355C36.4505 14.3394 36.8858 13.2881 37.6608 12.5129C38.4357 11.7376 39.4868 11.3019 40.5829 11.3014C40.9697 11.3014 41.3406 11.1478 41.6141 10.8743C41.8875 10.6008 42.0412 10.2299 42.0412 9.84317V2.91649H67.0793V27.9546Z" fill="#989898"/>
<path d="M57.3529 39.1248H50.2804C49.9456 37.5456 49.0785 36.1293 47.8242 35.113C46.5699 34.0967 45.0045 33.5422 43.3902 33.5422C41.7758 33.5422 40.2105 34.0967 38.9562 35.113C37.7019 36.1293 36.8348 37.5456 36.5 39.1248H30.8711V32.1982C30.8711 32.0067 30.8334 31.817 30.7601 31.6401C30.6868 31.4632 30.5794 31.3024 30.444 31.167C30.3086 31.0316 30.1478 30.9242 29.9709 30.8509C29.794 30.7776 29.6044 30.7399 29.4129 30.7399C28.3171 30.7389 27.2666 30.3028 26.4921 29.5277C25.7177 28.7525 25.2827 27.7015 25.2827 26.6058C25.2827 25.51 25.7177 24.4591 26.4921 23.6839C27.2666 22.9087 28.3171 22.4727 29.4129 22.4717C29.6044 22.4717 29.794 22.4339 29.9709 22.3607C30.1478 22.2874 30.3086 22.18 30.444 22.0445C30.5794 21.9091 30.6868 21.7484 30.7601 21.5715C30.8334 21.3945 30.8711 21.2049 30.8711 21.0134V12.6431C30.8711 12.4516 30.8334 12.2619 30.7601 12.085C30.6868 11.9081 30.5794 11.7473 30.444 11.6119C30.3086 11.4765 30.1478 11.3691 29.9709 11.2958C29.794 11.2225 29.6044 11.1848 29.4129 11.1848H1.45826C1.26676 11.1848 1.07713 11.2225 0.900209 11.2958C0.723284 11.3691 0.562526 11.4765 0.427114 11.6119C0.291702 11.7473 0.184287 11.9081 0.111003 12.085C0.0377184 12.2619 -8.73731e-07 12.4516 0 12.6431V68.5377C-8.73731e-07 68.7292 0.0377184 68.9188 0.111003 69.0957C0.184287 69.2727 0.291702 69.4334 0.427114 69.5688C0.562526 69.7042 0.723284 69.8116 0.900209 69.8849C1.07713 69.9582 1.26676 69.9959 1.45826 69.9959H57.3529C57.5444 69.9959 57.734 69.9582 57.9109 69.8849C58.0879 69.8116 58.2486 69.7042 58.384 69.5688C58.5194 69.4334 58.6269 69.2727 58.7001 69.0957C58.7734 68.9188 58.8111 68.7292 58.8111 68.5377V40.5831C58.8111 40.3916 58.7734 40.2019 58.7001 40.025C58.6269 39.8481 58.5194 39.6873 58.384 39.5519C58.2486 39.4165 58.0879 39.3091 57.9109 39.2358C57.734 39.1625 57.5444 39.1248 57.3529 39.1248ZM2.91652 14.1013H27.9546V19.7302C26.3753 20.0649 24.959 20.9321 23.9427 22.1864C22.9265 23.4407 22.3719 25.006 22.3719 26.6204C22.3719 28.2347 22.9265 29.8001 23.9427 31.0544C24.959 32.3087 26.3753 33.1758 27.9546 33.5106V39.1394H21.0279C20.8364 39.1394 20.6468 39.1771 20.4699 39.2504C20.293 39.3237 20.1322 39.4311 19.9968 39.5665C19.8614 39.7019 19.754 39.8627 19.6807 40.0396C19.6074 40.2165 19.5697 40.4062 19.5697 40.5977C19.5685 41.6933 19.1324 42.7437 18.3573 43.5181C17.5821 44.2924 16.5312 44.7274 15.4356 44.7274C14.3399 44.7274 13.289 44.2924 12.5138 43.5181C11.7387 42.7437 11.3026 41.6933 11.3014 40.5977C11.3014 40.4062 11.2637 40.2165 11.1904 40.0396C11.1171 39.8627 11.0097 39.7019 10.8743 39.5665C10.7389 39.4311 10.5781 39.3237 10.4012 39.2504C10.2243 39.1771 10.0347 39.1394 9.84317 39.1394H2.91652V14.1013ZM2.91652 42.0559H8.54533C8.8801 43.6352 9.74722 45.0515 11.0015 46.0678C12.2558 47.0841 13.8212 47.6387 15.4356 47.6387C17.0499 47.6387 18.6153 47.0841 19.8696 46.0678C21.1239 45.0515 21.991 43.6352 22.3258 42.0559H27.9546V48.9826C27.9546 49.1741 27.9923 49.3637 28.0656 49.5406C28.1389 49.7176 28.2463 49.8783 28.3817 50.0137C28.5171 50.1491 28.6779 50.2565 28.8548 50.3298C29.0317 50.4031 29.2214 50.4408 29.4129 50.4408C29.9561 50.4403 30.4941 50.5469 30.9961 50.7544C31.4982 50.9619 31.9544 51.2664 32.3387 51.6503C32.723 52.0342 33.0279 52.4902 33.2359 52.992C33.4439 53.4938 33.5509 54.0317 33.5509 54.575C33.5509 55.1182 33.4439 55.6561 33.2359 56.1579C33.0279 56.6598 32.723 57.1157 32.3387 57.4996C31.9544 57.8836 31.4982 58.188 30.9961 58.3955C30.4941 58.6031 29.9561 58.7096 29.4129 58.7091C29.2214 58.7091 29.0317 58.7468 28.8548 58.8201C28.6779 58.8934 28.5171 59.0008 28.3817 59.1362C28.2463 59.2716 28.1389 59.4324 28.0656 59.6093C27.9923 59.7862 27.9546 59.9758 27.9546 60.1673V67.0794H2.91652V42.0559ZM55.8946 67.0794H30.8711V61.4506C32.4504 61.1158 33.8667 60.2487 34.883 58.9944C35.8993 57.7401 36.4538 56.1747 36.4538 54.5604C36.4538 52.946 35.8993 51.3807 34.883 50.1264C33.8667 48.8721 32.4504 48.0049 30.8711 47.6702V42.0413H37.7978C37.9893 42.0413 38.1789 42.0036 38.3558 41.9303C38.5327 41.857 38.6935 41.7496 38.8289 41.6142C38.9643 41.4788 39.0717 41.318 39.145 41.1411C39.2183 40.9642 39.256 40.7746 39.256 40.5831C39.2554 40.0398 39.3619 39.5017 39.5694 38.9997C39.7769 38.4976 40.0814 38.0413 40.4653 37.6569C40.8493 37.2726 41.3052 36.9677 41.8071 36.7596C42.3089 36.5516 42.8469 36.4445 43.3902 36.4445C43.9334 36.4445 44.4714 36.5516 44.9732 36.7596C45.4751 36.9677 45.931 37.2726 46.315 37.6569C46.6989 38.0413 47.0034 38.4976 47.2109 38.9997C47.4184 39.5017 47.5249 40.0398 47.5243 40.5831C47.5243 40.7746 47.562 40.9642 47.6353 41.1411C47.7086 41.318 47.816 41.4788 47.9514 41.6142C48.0868 41.7496 48.2476 41.857 48.4245 41.9303C48.6014 42.0036 48.791 42.0413 48.9825 42.0413H55.9092L55.8946 67.0794Z" fill="#989898"/>
</svg>
