<svg width="65" height="68" viewBox="0 0 65 68" fill="none" xmlns="http://www.w3.org/2000/svg">
<path d="M34.25 32C34.25 31.3096 33.6904 30.75 33 30.75C32.3096 30.75 31.75 31.3096 31.75 32H34.25ZM33 52L32.4648 53.1296C32.8028 53.2898 33.1949 53.2901 33.5332 53.1306L33 52ZM49.4678 45.131C50.0924 45.425 50.8371 45.1569 51.131 44.5322C51.425 43.9076 51.1569 43.1629 50.5322 42.869L49.4678 45.131ZM33 36L33.5322 34.869C33.1962 34.7108 32.8072 34.7103 32.4708 34.8676L33 36ZM2 2V0.75C1.30964 0.75 0.75 1.30964 0.75 2L2 2ZM0.75 18.761C0.75 19.4514 1.30964 20.011 2 20.011C2.69036 20.011 3.25 19.4514 3.25 18.761H0.75ZM19.3573 3.25C20.0477 3.25 20.6073 2.69036 20.6073 2C20.6073 1.30964 20.0477 0.75 19.3573 0.75V3.25ZM3.25 49.3303C3.25 48.64 2.69036 48.0803 2 48.0803C1.30964 48.0803 0.75 48.64 0.75 49.3303H3.25ZM2 66.0913H0.75V67.3413H2V66.0913ZM18.3573 67.3413C19.0477 67.3413 19.6073 66.7817 19.6073 66.0913C19.6073 65.401 19.0477 64.8413 18.3573 64.8413V67.3413ZM32.9952 16L33.5393 14.8746C33.1941 14.7078 32.7915 14.7085 32.447 14.8766L32.9952 16ZM50 24.2205H51.25C51.25 23.741 50.9757 23.3038 50.544 23.0951L50 24.2205ZM50 43.9817L50.5332 45.1123C50.9708 44.9059 51.25 44.4655 51.25 43.9817H50ZM16 43.945H14.75C14.75 44.428 15.0283 44.8678 15.4648 45.0746L16 43.945ZM16 24.2939L15.4518 23.1705C15.0224 23.3801 14.75 23.8161 14.75 24.2939H16ZM32.943 32L32.4255 33.1378C32.7547 33.2876 33.1326 33.2874 33.4617 33.1373L32.943 32ZM63.135 2L64.385 2.00001L64.385 0.75H63.135V2ZM61.8849 18.761C61.8849 19.4514 62.4446 20.011 63.1349 20.011C63.8253 20.011 64.3849 19.4514 64.3849 18.761L61.8849 18.761ZM46.7776 0.75C46.0872 0.75 45.5276 1.30964 45.5276 2C45.5276 2.69036 46.0872 3.25 46.7776 3.25V0.75ZM63.135 66.0912L63.135 67.3412L64.385 67.3412L64.385 66.0912L63.135 66.0912ZM64.3849 49.3303C64.3849 48.64 63.8253 48.0803 63.1349 48.0803C62.4446 48.0803 61.8849 48.64 61.8849 49.3303L64.3849 49.3303ZM46.7776 64.8413C46.0872 64.8414 45.5276 65.401 45.5276 66.0914C45.5276 66.7817 46.0872 67.3414 46.7776 67.3413L46.7776 64.8413ZM43.8753 21.2597L43.3313 22.3851L43.8753 21.2597ZM22.4577 47.4013C22.9458 46.9131 22.9458 46.1217 22.4577 45.6335C21.9695 45.1454 21.1781 45.1454 20.6899 45.6335L22.4577 47.4013ZM43.9018 46.858L43.3686 45.7275L43.9018 46.858ZM31.75 32V52H34.25V32H31.75ZM50.5322 42.869L33.5322 34.869L32.4678 37.131L49.4678 45.131L50.5322 42.869ZM3.25 18.761V2H0.75V18.761H3.25ZM2 3.25H19.3573V0.75H2V3.25ZM0.75 49.3303V66.0913H3.25V49.3303H0.75ZM2 67.3413H18.3573V64.8413H2V67.3413ZM48.75 24.2205V43.9817H51.25V24.2205H48.75ZM33.5352 50.8704L16.5352 42.8154L15.4648 45.0746L32.4648 53.1296L33.5352 50.8704ZM17.25 43.945V24.2939H14.75V43.945H17.25ZM15.4825 25.4317L32.4255 33.1378L33.4605 30.8622L16.5175 23.156L15.4825 25.4317ZM33.4617 33.1373L50.5187 25.3578L49.4813 23.0832L32.4243 30.8627L33.4617 33.1373ZM16.5292 45.0775L33.5292 37.1324L32.4708 34.8676L15.4708 42.8126L16.5292 45.0775ZM64.3849 18.761L64.385 2.00001L61.885 1.99999L61.8849 18.761L64.3849 18.761ZM63.135 0.75H46.7776V3.25H63.135V0.75ZM61.8849 49.3303L61.885 66.0912L64.385 66.0912L64.3849 49.3303L61.8849 49.3303ZM63.135 64.8412L46.7776 64.8413L46.7776 67.3413L63.135 67.3412L63.135 64.8412ZM44.7592 22.1436L64.0189 2.88388L62.2511 1.11612L42.9914 20.3758L44.7592 22.1436ZM32.4512 17.1254L43.3313 22.3851L44.4194 20.1343L33.5393 14.8746L32.4512 17.1254ZM43.3313 22.3851L49.456 25.3459L50.544 23.0951L44.4194 20.1343L43.3313 22.3851ZM16.5482 25.4173L22.122 22.6972L21.0256 20.4504L15.4518 23.1705L16.5482 25.4173ZM22.122 22.6972L33.5435 17.1234L32.447 14.8766L21.0256 20.4504L22.122 22.6972ZM22.4577 20.6899L2.88388 1.11612L1.11612 2.88388L20.6899 22.4577L22.4577 20.6899ZM20.6899 45.6335L1.11611 65.2075L2.88389 66.9752L22.4577 47.4013L20.6899 45.6335ZM43.018 47.7419L62.2511 66.9751L64.0189 65.2073L44.7857 45.9741L43.018 47.7419ZM49.4668 42.8512L43.3686 45.7275L44.4351 47.9886L50.5332 45.1123L49.4668 42.8512ZM43.3686 45.7275L32.4668 50.8694L33.5332 53.1306L44.4351 47.9886L43.3686 45.7275Z" fill="#969696"/>
</svg>
