<svg width="14" height="14" viewBox="0 0 14 14" fill="none" xmlns="http://www.w3.org/2000/svg">
<path fill-rule="evenodd" clip-rule="evenodd" d="M2.21014 12.5231C2.21014 12.5231 0.315162 8.86169 0.251196 6.70228C0.235205 6.01382 0.331148 5.87278 0.620991 5.65389C0.910834 5.435 1.50252 5.60687 1.68043 5.74773C1.85833 5.88858 3.22158 8.71304 3.22158 8.71304C3.22158 8.71304 8.26284 2.88444 11.4891 1.35087C11.6922 1.23999 11.9018 1.14078 12.1168 1.05375C12.9183 0.772047 13.1602 1.14759 13.1602 1.14759L13.3681 1.38169C13.3681 1.38169 13.6259 2.03894 13.1442 2.33605C11.2183 3.68646 9.48469 5.28061 7.98899 7.07666C5.22849 10.2689 3.78329 12.6473 3.78329 12.6473C3.68464 12.7674 3.56 12.8646 3.4183 12.932C3.27661 12.9995 3.12138 13.0355 2.96374 13.0375C2.80188 13.0274 2.64598 12.9741 2.51308 12.8833C2.38018 12.7926 2.27539 12.668 2.21014 12.5231Z" fill="#FFD600"/>
</svg>
