<svg width="22" height="17" fill="none" xmlns="http://www.w3.org/2000/svg"><path fill-rule="evenodd" clip-rule="evenodd" d="M1.4 0h18.2c.371 0 .727.15.99.415a1.425 1.425 0 010 2.003 1.391 1.391 0 01-.99.415H1.4c-.371 0-.727-.149-.99-.415a1.425 1.425 0 010-2.003C.673.149 1.03 0 1.4 0zm0 7.083h18.2c.371 0 .727.15.99.415a1.425 1.425 0 010 2.004 1.391 1.391 0 01-.99.415H1.4c-.371 0-.727-.15-.99-.415a1.425 1.425 0 010-2.004c.263-.265.619-.415.99-.415zm0 7.084h18.2c.371 0 .727.149.99.415a1.425 1.425 0 010 2.003 1.392 1.392 0 01-.99.415H1.4c-.371 0-.727-.15-.99-.415a1.425 1.425 0 010-2.003c.263-.266.619-.415.99-.415z" fill="#707070"/><path fill-rule="evenodd" clip-rule="evenodd" d="M2.4 0h18.2c.371 0 .727.15.99.415a1.425 1.425 0 010 2.003 1.391 1.391 0 01-.99.415H2.4c-.371 0-.727-.149-.99-.415a1.425 1.425 0 010-2.003C1.673.149 2.03 0 2.4 0zm0 7.083h18.2c.371 0 .727.15.99.415a1.425 1.425 0 010 2.004 1.391 1.391 0 01-.99.415H2.4c-.371 0-.727-.15-.99-.415a1.425 1.425 0 010-2.004c.263-.265.619-.415.99-.415zm0 7.084h18.2c.371 0 .727.149.99.415a1.425 1.425 0 010 2.003 1.392 1.392 0 01-.99.415H2.4c-.371 0-.727-.15-.99-.415a1.425 1.425 0 010-2.003c.263-.266.619-.415.99-.415z" fill="#336300"/></svg>