<svg width="28" height="34" fill="none" xmlns="http://www.w3.org/2000/svg"><path fill-rule="evenodd" clip-rule="evenodd" d="M7.993 34c.232 0 .463-.036.685-.106 6.418-2.093 11.869-6.473 15.342-12.33A28.544 28.544 0 0027.564 2.05 2.395 2.395 0 0026.78.587 2.336 2.336 0 0025.243 0h-.013l-5.173.018a2.358 2.358 0 00-1.522.58 2.416 2.416 0 00-.799 1.435l-.908 5.458a2.46 2.46 0 00.17 1.412c.194.443.515.816.92 1.073l3.02 1.881a.83.83 0 01.378.858 24.202 24.202 0 01-6.403 10.758.793.793 0 01-1.007.095l-2.698-1.859a2.325 2.325 0 00-2.768.103l-4.46 3.562a2.48 2.48 0 00-.56 3.188l2.56 4.28c.208.354.503.646.855.849.353.203.752.31 1.158.309zm17.25-32.396c.192 0 .377.071.52.2a.806.806 0 01.263.497 26.935 26.935 0 01-3.335 18.419c-3.275 5.528-8.418 9.664-14.474 11.64a.786.786 0 01-.91-.355l-2.557-4.28a.85.85 0 01.195-1.083l4.46-3.562a.788.788 0 01.936-.035l2.698 1.859a2.306 2.306 0 002.95-.271 26.003 26.003 0 006.85-11.554 2.439 2.439 0 00-.133-1.474 2.398 2.398 0 00-.957-1.117l-3.02-1.882a.815.815 0 01-.363-.84l.908-5.458a.83.83 0 01.276-.49.81.81 0 01.521-.196l5.172-.018zM5.645 20.379a.78.78 0 00.486-.181.798.798 0 00.27-.448A19.872 19.872 0 0113.304 8.5a.82.82 0 00-.103-1.33.76.76 0 00-.862.07 21.54 21.54 0 00-7.465 12.168.824.824 0 00.11.602.805.805 0 00.492.355.738.738 0 00.167.014zm-4.864.55a.765.765 0 00.508-.194.794.794 0 00.26-.484 24.704 24.704 0 013.8-9.965 24.327 24.327 0 017.622-7.38.818.818 0 00.266-1.1.773.773 0 00-.473-.37.755.755 0 00-.59.087 25.895 25.895 0 00-8.119 7.862A26.296 26.296 0 00.011 20a.804.804 0 00.135.593.785.785 0 00.634.335v.002z" fill="#386D00"/></svg>