<svg width="76" height="76" viewBox="0 0 76 76" fill="none" xmlns="http://www.w3.org/2000/svg">
<path fill-rule="evenodd" clip-rule="evenodd" d="M37.6275 0.660766C30.3028 0.756918 23.17 3.01889 17.1264 7.1621C11.0828 11.3053 6.39852 17.1448 3.66236 23.9459C0.926199 30.747 0.260451 38.2061 1.74907 45.3849C3.23769 52.5638 6.81405 59.1416 12.0284 64.2912C17.2427 69.4408 23.8621 72.9322 31.0539 74.3261C38.2456 75.7199 45.6886 74.9541 52.4466 72.1249C59.2046 69.2956 64.9755 64.5295 69.034 58.4257C73.0924 52.322 75.257 45.1534 75.2551 37.8216C75.1792 27.9027 71.1746 18.4191 64.1202 11.4522C57.0658 4.48532 47.5378 0.604189 37.6275 0.660766ZM37.6275 73.4644C30.6062 73.3718 23.769 71.2034 17.9758 67.2318C12.1826 63.2603 7.69193 57.6628 5.06863 51.1436C2.44534 44.6244 1.80669 37.4745 3.23266 30.5928C4.65863 23.7112 8.08565 17.4051 13.0829 12.4678C18.0801 7.53046 24.4244 4.18235 31.3179 2.8443C38.2113 1.50625 45.3461 2.23808 51.825 4.94783C58.304 7.65758 63.838 12.2242 67.7307 18.0734C71.6234 23.9227 73.7013 30.7935 73.703 37.8216C73.6289 47.3323 69.7896 56.4253 63.0269 63.1069C56.2642 69.7886 47.13 73.5134 37.6275 73.4644ZM37.6275 6.58924C31.4737 6.67305 25.4822 8.57615 20.4061 12.0591C15.33 15.542 11.3961 20.4494 9.09907 26.1641C6.80208 31.8787 6.24457 38.1455 7.49656 44.1764C8.74855 50.2074 11.7541 55.7333 16.1354 60.0591C20.5168 64.3849 26.0783 67.3177 32.1204 68.4885C38.1626 69.6593 44.4158 69.0158 50.0936 66.6391C55.7714 64.2624 60.6203 60.2587 64.0307 55.1312C67.441 50.0036 69.2604 43.9814 69.2602 37.8216C69.2346 33.6913 68.3959 29.6065 66.7918 25.8009C65.1878 21.9953 62.8499 18.5434 59.912 15.6427C56.9742 12.7421 53.4939 10.4496 49.6702 8.89615C45.8465 7.34269 41.7541 6.55865 37.6275 6.58924ZM46.9408 24.8752H42.5339C40.9817 24.8752 40.6606 25.5001 40.6606 27.0894V30.9285H46.9408L46.3341 37.6428H40.6606V57.7142H32.5427V37.7322H28.3322V30.9285H32.5427V25.5537C32.5427 20.5359 35.2725 17.9108 41.3029 17.9108H46.9408V24.8752Z" fill="#3958AE"/>
</svg>
