<svg width="76" height="75" viewBox="0 0 76 75" fill="none" xmlns="http://www.w3.org/2000/svg">
<path fill-rule="evenodd" clip-rule="evenodd" d="M37.4124 0.000467346C30.0876 0.0966189 22.9549 2.35859 16.9113 6.5018C10.8677 10.645 6.18319 16.4845 3.44703 23.2856C0.710867 30.0867 0.0451195 37.5458 1.53374 44.7246C3.02236 51.9035 6.59894 58.4813 11.8132 63.6309C17.0275 68.7805 23.6468 72.2719 30.8386 73.6658C38.0303 75.0596 45.4733 74.2938 52.2313 71.4646C58.9892 68.6353 64.7604 63.8692 68.8189 57.7654C72.8773 51.6617 75.0417 44.4931 75.0398 37.1613C74.9569 27.2446 70.9499 17.7651 63.897 10.7998C56.8441 3.83439 47.3205 -0.049026 37.4124 0.000467346ZM37.4124 72.8041C30.3911 72.7115 23.5539 70.5431 17.7607 66.5715C11.9674 62.6 7.47681 57.0025 4.85352 50.4833C2.23023 43.9641 1.59136 36.8142 3.01733 29.9325C4.4433 23.0509 7.87032 16.7448 12.8676 11.8075C17.8648 6.87016 24.2091 3.52205 31.1025 2.184C37.996 0.84595 45.1309 1.57778 51.6099 4.28753C58.0889 6.99728 63.6226 11.5639 67.5154 17.4131C71.4081 23.2624 73.486 30.1332 73.4876 37.1613C73.4164 46.6729 69.5779 55.7677 62.8146 62.4499C56.0513 69.1321 46.9157 72.8559 37.4124 72.8041ZM37.4124 5.92894C31.2537 6.00644 25.2555 7.90544 20.1725 11.3868C15.0895 14.8681 11.1486 19.7764 8.84606 25.494C6.54351 31.2116 5.9821 37.4831 7.23223 43.5194C8.48236 49.5557 11.4882 55.0871 15.8718 59.4175C20.2553 63.748 25.8206 66.684 31.8674 67.8563C37.9142 69.0286 44.1723 68.3847 49.8543 66.0056C55.5363 63.6266 60.3885 59.6186 63.8001 54.4861C67.2117 49.3536 69.0303 43.3259 69.0273 37.1613C68.9697 28.8245 65.6073 20.8515 59.6791 14.9951C53.7508 9.13857 45.7418 5.87762 37.4124 5.92894ZM53.8978 31.5362C54.0275 34.3259 53.5856 37.1125 52.5995 39.725C51.6135 42.3374 50.1041 44.7204 48.164 46.7275C46.2239 48.7345 43.8942 50.3231 41.318 51.3958C38.7418 52.4684 35.9739 53.0024 33.1839 52.9648C29.2247 52.968 25.3457 51.8472 21.9973 49.7326C25.8467 50.1909 29.7219 49.1203 32.7913 46.7506C31.277 46.7291 29.8071 46.2361 28.5857 45.34C27.3643 44.4439 26.4522 43.1893 25.9759 41.7505C27.072 41.9522 28.1989 41.9096 29.2766 41.6256C27.6197 41.3027 26.1277 40.4101 25.059 39.1024C23.9904 37.7947 23.4122 36.1542 23.4245 34.4648C24.4346 35.032 25.5674 35.3446 26.7251 35.3756C25.1864 34.3678 24.0944 32.8057 23.6759 31.0135C23.2573 29.2213 23.5444 27.3366 24.4773 25.7505C26.3188 27.9846 28.6062 29.8089 31.1931 31.1066C33.7801 32.4043 36.6094 33.1466 39.4997 33.2862C39.256 32.2223 39.2563 31.1171 39.5005 30.0533C39.7448 28.9896 40.2267 27.995 40.9101 27.1443C41.5934 26.2937 42.4604 25.6091 43.446 25.1419C44.4316 24.6748 45.51 24.437 46.6005 24.4468C47.5942 24.4436 48.578 24.643 49.4921 25.0329C50.4062 25.4229 51.2316 25.9951 51.9174 26.7147C53.5507 26.3957 55.1188 25.8041 56.5562 24.9647C55.9991 26.6355 54.8588 28.0493 53.3446 28.9468C54.7909 28.7857 56.2044 28.4064 57.5373 27.8218C56.5593 29.2707 55.3261 30.5294 53.8978 31.5362Z" fill="#189DDE"/>
</svg>
