<svg width="74" height="74" viewBox="0 0 74 74" fill="none" xmlns="http://www.w3.org/2000/svg">
<path d="M37 74C16.5888 74 0 57.4112 0 37C0 16.5888 16.5888 0 37 0C57.4112 0 74 16.5888 74 37C74 57.4112 57.4112 74 37 74ZM37 1.52893C17.4298 1.52893 1.52893 17.4298 1.52893 37C1.52893 56.5702 17.4298 72.4711 37 72.4711C56.5702 72.4711 72.4711 56.5702 72.4711 37C72.4711 17.4298 56.5702 1.52893 37 1.52893Z" fill="#2C9B05"/>
<path fill-rule="evenodd" clip-rule="evenodd" d="M68.114 37.0004C68.114 54.2008 54.2008 68.114 37.0004 68.114C19.7999 68.114 5.88672 54.2008 5.88672 37.0004C5.88672 19.7999 19.7999 5.88672 37.0004 5.88672C54.2008 5.88672 68.114 19.7999 68.114 37.0004ZM55.8058 34.6302C55.5764 25.1508 47.7789 17.5826 38.1467 17.5826C28.6674 17.5826 20.9463 24.9979 20.4876 34.3244V35.0888C20.4876 38.376 21.405 41.5103 23.0103 44.1095L19.876 53.5124L29.6612 50.3781C32.1839 51.8306 35.0888 52.595 38.1467 52.595C47.9318 52.595 55.8058 44.7211 55.8058 35.0888V34.6302ZM38.1467 49.7665C35.1653 49.7665 32.3368 48.8492 29.9669 47.3202L24.2335 49.155L26.0682 43.6508C24.3099 41.2045 23.2397 38.2231 23.2397 35.0124C23.2397 34.5537 23.2397 34.0186 23.3161 33.5599C24.0806 26.0682 30.4256 20.2583 38.0702 20.2583C45.8678 20.2583 52.2893 26.2211 52.9008 33.8657C52.9008 34.0568 52.9199 34.2479 52.939 34.439L52.9391 34.4392C52.9582 34.6302 52.9773 34.8213 52.9773 35.0124C53.0537 43.1921 46.4029 49.7665 38.1467 49.7665ZM43.2687 37.2288C43.651 37.3817 45.7915 38.3755 46.2501 38.6049C46.4368 38.6982 46.5981 38.7662 46.7238 38.8192C46.907 38.8964 47.0146 38.9418 47.0146 38.9871C47.1675 39.2164 47.1675 40.0573 46.7853 41.0511C46.4795 42.0449 44.6448 43.0387 43.8803 43.1152C43.7551 43.1277 43.6504 43.1525 43.5434 43.1779C42.997 43.3074 42.3898 43.4514 38.6819 42.0449C34.5813 40.4188 31.9192 36.5042 31.3608 35.683C31.3154 35.6163 31.2839 35.57 31.2667 35.547C31.2519 35.5249 31.23 35.4934 31.202 35.4533C30.9408 35.0785 30.1521 33.9468 29.7377 32.5656C29.5848 32.1069 29.5084 31.5718 29.5084 31.1131C29.5084 29.2169 30.4083 28.2206 30.8795 27.699C30.9401 27.6318 30.9937 27.5725 31.0373 27.5201C31.4196 27.0615 31.8782 26.985 32.184 26.985C32.3479 26.985 32.5118 27.007 32.6639 27.0274C32.7956 27.045 32.9185 27.0615 33.0249 27.0615C33.0655 27.0615 33.1061 27.0588 33.1469 27.0561C33.4132 27.0384 33.6872 27.0202 34.0187 27.7495C34.194 28.1702 34.4819 28.8321 34.7496 29.4476C35.0655 30.1742 35.3534 30.8361 35.3948 30.9602C35.4712 31.1896 35.5477 31.4189 35.3948 31.7247C35.2419 31.954 35.1654 32.1069 35.089 32.2598L35.089 32.2598C35.0508 32.298 35.0316 32.3363 35.0125 32.3745C34.9934 32.4127 34.9743 32.4509 34.9361 32.4892C34.8214 32.6038 34.7067 32.7376 34.5921 32.8714C34.4774 33.0052 34.3627 33.1389 34.2481 33.2536C34.0952 33.4065 33.8658 33.6358 34.0952 34.0945C34.3245 34.5532 35.1654 35.9292 36.465 37.0759C37.8665 38.2863 39.0557 38.8066 39.6786 39.0791C39.8032 39.1336 39.9051 39.1782 39.9815 39.2164C40.3638 39.4458 40.6696 39.4458 40.8989 39.14C40.9861 39.0237 41.1617 38.8191 41.3627 38.5848C41.6903 38.203 42.0854 37.7425 42.2749 37.4582C42.5807 36.9995 42.8865 37.0759 43.2687 37.2288Z" fill="#2C9B05"/>
</svg>
